{"glyphs":{"0":{"ha":711,"x_min":45,"x_max":667,"o":"m 360 -18 q 224 17 283 -18 q 125 115 165 52 q 65 265 85 178 q 45 458 45 353 q 54 571 45 513 q 81 681 63 628 q 125 781 98 734 q 187 862 152 827 q 265 916 222 896 q 360 936 309 936 q 455 916 412 936 q 532 862 498 897 q 591 781 566 827 q 633 681 616 734 q 658 571 650 628 q 667 457 667 513 q 648 264 667 352 q 590 114 629 177 q 495 17 552 52 q 360 -18 437 -18 m 205 457 q 207 352 205 404 q 215 253 209 300 q 232 166 221 206 q 259 97 242 126 q 301 51 277 68 q 360 35 326 35 q 418 52 394 35 q 459 98 443 68 q 485 168 475 127 q 499 256 494 209 q 505 355 504 303 q 507 458 507 406 q 504 550 507 501 q 496 645 502 598 q 480 735 490 692 q 454 811 470 779 q 414 864 437 844 q 361 884 391 884 q 302 864 327 884 q 259 811 277 844 q 231 734 242 778 q 215 644 220 691 q 207 548 209 596 q 205 457 205 500 z "},"1":{"ha":711,"x_min":115,"x_max":584,"o":"m 168 0 q 141 5 146 0 q 136 16 136 9 l 136 52 q 141 62 136 57 q 165 67 146 66 q 200 67 180 67 q 239 69 220 68 q 275 73 259 70 q 297 81 291 76 l 297 767 q 259 742 275 752 q 229 724 243 732 q 200 709 214 716 q 166 691 186 701 q 154 685 163 689 q 140 682 145 682 q 130 689 134 682 q 116 711 126 696 q 115 715 115 713 q 119 720 115 718 q 131 728 122 722 q 178 763 151 741 q 234 812 204 785 q 294 870 263 839 q 352 935 324 902 l 404 935 q 424 934 416 935 q 436 931 432 933 q 441 924 440 928 q 442 913 442 920 l 442 137 q 443 118 442 127 q 443 100 443 108 q 445 86 444 92 q 447 81 446 81 q 467 73 455 75 q 493 69 479 70 q 522 67 507 68 q 552 67 537 67 q 578 62 573 67 q 584 52 584 56 l 584 16 q 578 5 584 11 q 552 0 573 0 l 168 0 l 168 0 z "},"2":{"ha":711,"x_min":38,"x_max":677,"o":"m 68 0 q 51 1 56 0 q 42 4 45 1 q 38 12 39 7 q 38 27 38 18 q 46 50 38 39 q 66 74 54 60 q 136 151 98 113 q 213 229 174 190 q 312 332 264 280 q 396 436 359 385 q 453 538 432 488 q 475 637 475 589 q 461 710 475 674 q 426 773 448 745 q 374 818 404 801 q 312 835 345 835 q 246 821 277 835 q 190 785 215 808 q 148 733 165 762 q 123 672 130 703 q 119 658 121 665 q 115 647 118 652 q 104 640 111 643 q 83 637 96 637 l 77 637 q 63 640 68 637 q 58 652 58 642 q 61 677 58 655 q 72 727 64 699 q 93 786 79 755 q 126 836 106 816 l 125 836 q 180 884 153 865 q 234 914 207 903 q 291 931 262 926 q 352 936 319 936 q 472 915 418 936 q 564 857 526 894 q 623 770 602 820 q 644 661 644 720 q 625 577 644 619 q 571 492 606 536 q 489 404 537 449 q 384 309 441 359 q 364 292 378 304 q 333 261 351 279 q 294 224 315 244 q 255 185 274 204 q 221 150 237 166 q 197 123 205 134 l 566 123 q 590 128 581 123 q 607 143 600 132 q 620 174 614 155 q 633 221 626 193 l 677 221 l 646 30 q 635 10 644 20 q 602 0 625 0 l 68 0 l 68 0 z "},"3":{"ha":711,"x_min":33,"x_max":649,"o":"m 288 -18 q 240 -17 267 -18 q 184 -12 213 -16 q 129 0 156 -7 q 80 19 102 7 q 46 48 59 31 q 33 90 33 66 q 40 117 33 105 q 58 136 47 128 q 84 147 70 143 q 115 151 99 151 q 151 143 134 151 q 183 123 168 135 q 213 97 198 111 q 244 72 228 83 q 279 52 260 60 q 319 43 297 43 q 389 71 359 47 q 440 132 420 96 q 471 211 460 168 q 481 295 481 254 q 469 380 481 345 q 440 438 458 416 q 402 471 423 460 q 362 481 381 481 q 335 478 347 481 q 315 470 323 475 q 300 461 306 466 q 288 452 294 456 q 278 447 283 449 q 261 445 273 445 q 242 454 249 445 q 235 471 235 463 q 243 485 235 475 q 259 501 252 494 q 310 550 283 523 q 359 607 337 577 q 395 668 380 637 q 409 730 409 699 q 400 774 409 753 q 375 812 391 795 q 341 840 360 829 q 301 850 321 850 q 233 837 262 850 q 183 804 204 823 q 148 762 162 784 q 124 722 134 740 q 115 713 120 715 q 102 711 110 711 q 93 712 98 711 q 83 716 88 713 q 75 723 79 719 q 72 732 72 727 q 73 734 72 732 q 75 741 74 737 q 79 749 77 744 q 123 824 96 789 q 184 883 151 859 q 254 922 217 908 q 329 936 292 936 q 426 925 382 936 q 500 893 469 914 q 549 841 532 872 q 566 770 566 810 q 553 712 566 740 q 520 659 541 684 q 475 611 500 633 q 423 570 450 589 q 526 542 483 564 q 596 486 568 519 q 636 410 623 452 q 649 323 649 368 q 633 228 649 273 q 589 145 616 183 q 526 78 562 108 q 450 26 490 47 q 368 -6 410 5 q 288 -18 326 -18 z "},"4":{"ha":711,"x_min":31,"x_max":684,"o":"m 31 268 q 31 275 31 271 q 32 284 31 279 q 32 293 32 289 q 34 298 33 296 l 441 920 q 450 929 445 926 q 462 933 456 932 q 474 935 468 935 q 484 935 479 935 q 498 935 489 935 q 516 933 507 935 q 531 928 524 931 q 537 918 537 924 l 537 387 q 539 372 537 374 q 550 370 541 370 l 663 370 q 677 369 671 370 q 684 358 684 368 l 684 258 q 671 241 684 241 l 547 241 q 538 240 540 241 q 537 228 537 238 l 537 7 q 535 -3 537 4 q 519 -11 532 -11 l 398 -11 q 387 -5 389 -11 q 385 5 385 1 l 385 221 q 384 233 385 229 q 381 239 384 237 q 373 241 378 241 q 357 241 368 241 l 61 241 q 40 250 48 241 q 31 268 31 258 m 159 378 q 164 372 159 373 q 181 370 168 370 l 370 370 q 381 374 378 370 q 385 384 383 378 l 385 656 q 382 674 385 665 q 372 682 380 682 q 362 677 367 682 q 353 668 357 672 l 167 390 q 164 387 165 389 q 162 383 163 385 q 159 378 161 380 z "},"5":{"ha":711,"x_min":57,"x_max":641,"o":"m 57 75 q 64 101 57 90 q 82 120 71 112 q 108 133 94 128 q 138 137 123 137 q 184 121 163 137 q 228 87 206 106 q 271 52 249 68 q 319 37 293 37 q 376 48 352 37 q 419 79 401 60 q 448 122 437 98 q 467 172 460 146 q 477 223 474 198 q 479 268 479 248 q 470 351 479 316 q 445 410 460 385 q 409 449 429 434 q 368 472 389 464 q 328 484 347 481 q 293 486 308 486 q 258 481 276 486 q 225 468 241 475 q 197 453 210 460 q 177 440 184 445 q 170 437 173 439 q 164 434 168 435 q 157 432 161 433 q 146 431 153 431 q 123 435 132 431 q 113 450 114 439 l 134 909 l 511 909 q 520 911 517 909 q 527 917 524 913 q 531 926 529 921 q 536 936 532 930 l 583 936 l 564 790 l 199 790 l 189 582 q 218 589 201 586 q 254 595 235 593 q 293 599 273 597 q 331 601 313 601 q 393 593 359 601 q 462 571 427 586 q 529 533 496 556 q 586 478 561 510 q 626 407 611 447 q 641 317 641 366 q 625 202 641 252 q 583 115 610 152 q 520 52 556 77 q 445 12 485 27 q 362 -11 405 -4 q 281 -18 320 -18 q 247 -16 269 -18 q 201 -11 226 -14 q 151 0 176 -7 q 104 17 125 7 q 70 42 83 27 q 57 75 57 56 z "},"6":{"ha":711,"x_min":41,"x_max":668,"o":"m 41 343 q 69 510 41 435 q 155 650 98 585 q 297 775 212 715 q 496 898 382 836 q 515 907 502 901 q 543 920 528 913 q 573 930 557 926 q 600 935 588 935 q 632 932 623 935 q 642 921 642 930 q 626 902 642 914 q 587 876 609 889 q 543 849 564 862 q 511 829 521 836 q 458 791 490 815 q 392 737 425 767 q 332 674 359 707 q 294 610 304 642 q 317 615 304 613 q 349 617 331 617 q 478 592 420 617 q 579 524 537 567 q 645 423 621 481 q 668 300 668 366 q 644 176 668 234 q 578 75 621 118 q 476 7 535 32 q 349 -18 418 -18 q 256 -3 298 -18 q 179 36 214 11 q 119 96 145 62 q 76 171 93 131 q 50 255 58 211 q 41 343 41 298 m 357 37 q 425 60 397 37 q 468 118 452 83 q 491 197 484 154 q 498 282 498 241 q 490 385 498 335 q 464 473 483 435 q 412 535 445 511 q 329 558 380 558 q 267 539 291 558 q 229 485 242 519 q 210 405 215 451 q 205 305 205 359 q 208 247 205 277 q 217 186 210 216 q 235 129 224 156 q 263 82 246 102 q 303 49 280 61 q 357 37 326 37 z "},"7":{"ha":711,"x_min":41,"x_max":678,"o":"m 201 7 q 238 89 216 40 q 286 195 260 138 q 341 316 313 253 q 398 440 370 379 q 452 558 426 502 q 497 659 477 614 q 529 732 517 703 q 542 768 541 761 l 178 768 q 149 759 159 768 q 136 741 139 751 l 100 653 q 90 637 95 642 q 70 633 85 633 q 46 640 53 633 q 41 652 39 646 l 81 886 q 84 892 82 888 q 90 900 85 896 q 100 906 94 903 q 118 909 107 909 l 633 909 q 664 903 650 909 q 678 879 678 897 q 675 850 678 869 q 665 814 672 831 l 290 -18 l 201 -18 l 201 7 z "},"8":{"ha":711,"x_min":96,"x_max":614,"o":"m 96 214 q 109 291 96 256 q 144 356 122 326 q 196 413 166 387 q 260 465 226 439 q 208 519 233 492 q 164 575 183 546 q 133 637 144 604 q 121 709 121 669 q 138 801 121 760 q 184 873 154 843 q 258 919 214 903 q 357 936 302 936 q 449 920 406 936 q 525 877 492 905 q 576 809 557 848 q 595 723 595 770 q 588 682 595 703 q 570 638 581 660 q 543 596 558 617 q 510 557 527 575 q 475 525 492 539 q 441 502 457 511 q 507 446 475 473 q 562 386 538 418 q 600 315 585 354 q 614 225 614 276 q 595 132 614 176 q 542 55 576 88 q 463 3 509 22 q 364 -17 417 -17 q 263 -1 312 -17 q 178 46 215 16 q 118 119 140 76 q 96 214 96 161 m 234 210 q 243 141 234 174 q 269 85 252 109 q 310 46 286 60 q 366 32 334 32 q 403 42 384 32 q 437 73 422 52 q 463 127 453 94 q 473 208 473 161 q 456 268 473 237 q 415 325 439 298 q 364 376 391 353 q 315 416 336 399 q 254 333 275 386 q 234 210 234 280 m 255 758 q 266 694 255 724 q 296 639 277 665 q 339 591 315 614 q 389 547 363 568 q 395 543 393 543 q 402 546 398 543 q 412 554 406 548 q 437 589 427 569 q 453 630 447 608 q 462 676 459 652 q 465 724 465 700 q 459 784 465 754 q 440 837 454 814 q 406 874 427 860 q 355 888 385 888 q 312 878 331 888 q 280 850 293 867 q 261 808 268 832 q 255 758 255 785 z "},"9":{"ha":711,"x_min":35,"x_max":675,"o":"m 56 -5 q 64 10 56 3 q 83 22 73 17 q 167 68 124 43 q 250 122 210 93 q 328 185 291 151 q 396 260 366 220 q 405 273 400 265 q 416 289 410 281 q 426 305 421 297 q 435 319 431 313 q 380 307 408 312 q 321 302 353 302 q 199 330 252 302 q 110 400 146 357 q 54 498 73 444 q 35 610 35 553 q 56 729 35 671 q 116 833 77 787 q 211 908 155 880 q 337 936 267 936 q 480 907 417 936 q 586 828 543 878 q 652 713 629 779 q 675 575 675 648 q 645 399 675 481 q 562 248 615 317 q 434 124 508 179 q 273 32 360 70 q 233 15 254 24 q 188 -1 212 6 q 138 -14 164 -9 q 86 -18 113 -18 q 63 -16 71 -18 q 56 -5 56 -14 m 368 360 q 421 369 395 360 q 469 395 447 378 q 485 425 479 402 q 494 477 490 448 q 498 534 497 505 q 499 583 499 563 q 497 643 499 610 q 490 709 496 676 q 475 773 485 743 q 447 828 465 804 q 405 867 430 852 q 344 881 379 881 q 273 854 300 881 q 232 785 246 827 q 213 694 218 743 q 208 600 208 644 q 218 515 208 557 q 249 438 229 472 q 298 382 269 404 q 368 360 328 360 z "}," ":{"ha":373,"x_min":0,"x_max":0,"o":""},"!":{"ha":369,"x_min":88,"x_max":281,"o":"m 222 313 q 212 282 221 294 q 184 270 202 270 q 157 282 167 270 q 146 313 147 294 l 96 966 l 96 1002 q 103 1023 96 1017 q 123 1029 111 1029 q 132 1029 127 1029 q 144 1029 137 1029 q 164 1030 153 1030 q 184 1030 176 1030 q 211 1030 196 1030 q 237 1029 225 1030 q 256 1024 245 1029 q 273 1005 267 1020 l 273 966 l 222 313 m 88 70 q 96 107 88 90 q 117 138 104 125 q 148 159 130 151 q 184 166 165 166 q 222 158 205 166 q 253 137 240 151 q 273 106 266 123 q 281 69 281 88 q 273 32 281 50 q 253 2 266 15 q 222 -19 239 -12 q 184 -26 204 -26 q 146 -19 163 -26 q 115 2 128 -12 q 95 32 102 15 q 88 70 88 50 z "},"\"":{"ha":631,"x_min":87,"x_max":544,"o":"m 138 526 q 123 634 132 578 q 106 742 115 690 q 93 837 98 794 q 87 904 87 880 q 95 931 87 918 q 117 954 104 944 q 147 970 130 964 q 180 976 164 976 q 216 970 199 976 q 246 954 233 964 q 267 931 259 944 q 275 904 275 918 q 270 836 275 879 q 257 742 265 793 q 240 633 250 690 q 224 526 231 577 l 138 526 m 407 526 q 392 634 401 578 q 375 742 383 690 q 361 837 367 794 q 355 904 355 880 q 364 931 355 918 q 386 954 372 944 q 416 970 399 964 q 449 976 433 976 q 484 970 467 976 q 514 954 501 964 q 536 931 528 944 q 544 904 544 918 q 539 836 544 879 q 526 742 534 793 q 509 633 518 690 q 492 526 500 577 l 407 526 z "},"#":{"ha":840,"x_min":1,"x_max":834,"o":"m 94 749 l 277 749 q 312 910 294 827 q 346 1070 330 992 l 460 1070 l 392 749 l 534 749 q 569 910 551 827 q 603 1070 587 992 l 718 1070 l 649 749 l 834 749 l 808 640 l 625 640 q 614 586 619 612 q 604 535 609 560 q 594 484 599 510 q 583 430 589 458 l 770 430 l 745 321 l 559 321 q 523 148 541 236 q 487 -24 505 60 l 368 -24 l 441 321 l 302 321 q 266 148 284 236 q 230 -24 248 60 l 111 -24 l 184 321 l 1 321 l 29 430 l 208 430 q 220 484 214 458 q 231 535 226 510 q 242 586 237 560 q 254 640 248 612 l 64 640 l 94 749 m 326 430 l 465 430 q 477 484 471 458 q 488 535 482 509 q 498 586 493 560 q 510 640 504 612 l 368 640 l 326 430 z "},"$":{"ha":711,"x_min":68,"x_max":654,"o":"m 445 964 l 445 -149 l 397 -149 l 397 964 l 445 964 m 382 359 q 371 364 376 361 q 361 370 366 366 q 302 402 334 385 q 240 441 271 420 q 180 487 209 463 q 130 538 151 511 q 95 594 108 565 q 81 656 81 624 q 93 721 81 689 q 127 779 105 752 q 182 827 150 806 q 256 859 215 847 l 294 866 q 332 868 311 868 q 363 867 347 868 q 397 863 380 866 l 435 857 q 500 838 467 849 q 561 810 534 827 q 605 771 587 793 q 622 722 622 749 q 616 699 622 709 q 601 681 610 689 q 578 669 591 673 q 553 665 566 665 q 525 671 538 665 q 503 685 513 676 q 484 706 492 694 q 466 730 475 718 q 428 779 448 756 q 387 806 408 802 q 360 812 373 810 q 331 814 347 814 q 323 813 328 814 q 313 812 319 813 q 295 809 306 811 q 268 804 284 808 q 237 787 249 798 q 220 761 226 775 q 212 733 214 747 q 210 705 210 718 q 225 649 210 675 q 263 602 239 624 q 315 560 286 579 q 372 524 343 541 q 415 498 395 511 q 445 479 436 486 q 453 474 449 476 q 458 471 456 472 q 531 425 496 451 q 594 368 567 399 q 637 303 621 338 q 654 231 654 269 q 637 141 654 181 q 591 70 621 100 q 521 20 562 40 q 434 -7 481 1 l 396 -14 q 365 -17 380 -16 q 331 -18 349 -18 q 294 -16 309 -18 l 256 -10 q 186 14 220 -2 q 126 51 153 29 q 84 99 100 73 q 68 156 68 126 q 86 202 68 184 q 134 219 104 219 q 157 214 147 219 q 175 200 168 209 q 189 178 183 191 q 201 153 195 166 q 213 125 206 139 q 228 97 219 111 q 247 72 236 83 q 273 53 258 60 l 269 54 q 287 47 278 50 q 305 41 296 43 l 304 41 q 352 33 326 34 q 368 34 359 33 q 387 36 377 35 q 405 41 396 39 q 423 45 414 43 l 421 45 q 491 99 465 62 q 517 189 517 136 q 509 233 517 212 q 484 274 501 254 q 441 315 467 294 q 379 359 415 336 l 382 359 m 315 964 l 315 -149 l 268 -149 l 268 964 l 315 964 z "},"%":{"ha":1229,"x_min":99,"x_max":1141,"o":"m 957 -16 q 876 5 911 -16 q 817 63 840 26 q 781 154 793 101 q 768 269 768 206 q 781 371 768 319 q 817 463 793 422 q 876 530 840 504 q 957 556 911 556 q 1038 530 1004 556 q 1096 463 1073 505 q 1130 371 1118 422 q 1141 269 1141 320 q 1130 154 1141 206 q 1095 63 1118 101 q 1038 5 1072 26 q 957 -16 1003 -16 m 864 269 q 867 178 864 221 q 880 101 870 134 q 908 49 890 68 q 957 29 926 29 q 1006 49 988 29 q 1032 102 1023 69 q 1043 179 1041 136 q 1045 270 1045 223 q 1044 323 1045 296 q 1039 378 1042 351 q 1029 429 1036 405 q 1013 472 1023 454 q 990 500 1004 490 q 958 511 976 511 q 908 488 927 511 q 880 429 890 465 q 867 350 870 393 q 864 269 864 307 m 930 1004 l 1059 1004 l 312 -37 l 184 -37 l 930 1004 m 288 412 q 206 433 241 412 q 147 492 171 454 q 111 582 123 530 q 99 698 99 635 q 111 799 99 748 q 147 891 123 850 q 206 959 171 932 q 288 985 241 985 q 369 959 334 985 q 426 892 404 933 q 460 800 449 850 q 472 698 472 749 q 460 582 472 635 q 426 492 449 530 q 368 433 403 454 q 288 412 334 412 m 195 698 q 198 606 195 650 q 211 530 201 563 q 239 477 220 497 q 288 458 257 458 q 336 478 319 458 q 363 531 354 498 q 374 608 372 564 q 376 699 376 652 q 374 752 376 724 q 370 807 373 780 q 360 858 366 833 q 344 900 353 882 q 320 929 334 918 q 288 940 307 940 q 239 917 258 940 q 211 857 220 893 q 198 779 201 821 q 195 698 195 736 z "},"&":{"ha":1080,"x_min":16,"x_max":1061,"o":"m 802 118 q 834 75 817 94 q 875 56 852 56 q 895 61 882 56 q 923 71 909 65 q 951 81 938 77 q 972 85 965 85 q 988 82 982 85 q 996 75 994 79 q 1000 67 999 71 q 1000 62 1000 63 q 998 53 1000 59 q 985 40 996 47 q 904 -3 947 16 q 808 -21 860 -21 q 751 -11 776 -21 q 708 17 727 0 q 672 56 688 34 q 642 101 656 78 q 628 121 635 111 q 614 141 622 131 q 544 84 582 113 q 463 33 505 56 q 375 -4 420 10 q 281 -18 329 -18 q 176 5 224 -18 q 92 68 127 29 q 36 156 56 106 q 16 256 16 205 q 35 349 16 307 q 89 424 54 390 q 169 486 123 458 q 269 536 215 513 q 228 581 246 559 q 196 627 209 604 q 176 675 183 650 q 170 730 170 700 q 190 808 170 774 q 242 864 210 842 q 316 898 275 887 q 400 909 357 909 q 475 897 437 909 q 542 863 512 885 q 590 809 572 841 q 608 739 608 778 q 595 681 608 708 q 562 632 583 654 q 516 590 542 609 q 465 557 490 572 q 461 554 462 555 q 460 551 460 553 q 464 545 460 548 q 479 532 467 543 q 517 495 492 520 q 581 429 543 470 q 671 328 618 389 l 817 549 q 826 566 823 558 q 829 587 829 574 q 821 608 829 604 q 804 614 813 613 q 786 618 795 616 q 770 623 777 620 q 760 631 764 626 q 755 644 755 636 q 756 650 755 646 q 759 657 756 654 q 768 664 762 661 q 786 666 774 666 l 1051 666 q 1060 648 1059 654 q 1061 641 1061 642 q 1053 621 1061 626 q 1031 615 1045 616 q 999 611 1015 613 q 968 606 983 610 q 940 593 954 602 q 918 570 927 585 l 721 258 l 802 118 m 346 83 q 406 94 376 83 q 464 122 435 106 q 518 158 492 139 q 567 194 545 178 q 574 204 574 199 q 573 209 574 206 q 463 364 524 296 q 330 492 402 433 q 319 486 327 491 q 305 478 311 481 q 257 439 279 463 q 219 388 235 416 q 194 328 203 360 q 185 263 185 296 q 198 196 185 229 q 232 138 210 163 q 283 98 254 113 q 346 83 313 83 m 317 756 q 323 709 317 732 q 341 666 330 686 q 368 628 352 646 q 401 598 383 611 q 431 620 418 604 q 452 655 444 635 q 466 695 461 674 q 471 732 471 715 q 466 778 471 757 q 452 815 462 800 q 427 840 442 831 q 388 848 411 848 q 335 822 353 848 q 317 756 317 795 z "},"'":{"ha":362,"x_min":87,"x_max":275,"o":"m 138 526 q 123 634 132 578 q 106 742 115 690 q 93 837 98 794 q 87 904 87 880 q 95 931 87 918 q 117 954 104 944 q 147 970 130 964 q 180 976 164 976 q 216 970 199 976 q 246 954 233 964 q 267 931 259 944 q 275 904 275 918 q 270 836 275 879 q 257 742 265 793 q 240 633 250 690 q 224 526 231 577 l 138 526 z "},"(":{"ha":471,"x_min":116,"x_max":455,"o":"m 116 412 q 133 611 116 512 q 182 805 149 711 q 263 988 214 900 q 378 1152 313 1076 q 388 1162 384 1159 q 404 1165 393 1165 q 420 1158 411 1165 q 436 1140 429 1150 q 450 1120 444 1130 q 455 1105 455 1110 q 448 1079 455 1095 q 297 765 350 930 q 243 409 243 600 q 297 60 243 224 q 448 -253 350 -104 q 455 -279 455 -267 q 450 -294 455 -284 q 436 -314 444 -304 q 420 -332 429 -324 q 404 -339 411 -339 q 389 -336 393 -339 q 377 -325 385 -333 q 264 -161 313 -248 q 183 20 216 -74 q 133 214 150 115 q 116 412 116 313 z "},")":{"ha":471,"x_min":16,"x_max":355,"o":"m 355 412 q 338 215 355 313 q 287 21 321 116 q 205 -161 254 -73 q 93 -326 156 -249 q 82 -336 87 -332 q 68 -339 77 -339 q 52 -332 60 -339 q 35 -314 43 -324 q 22 -294 27 -304 q 16 -279 16 -284 q 18 -266 16 -273 q 23 -253 19 -259 q 174 61 121 -103 q 227 409 227 224 q 214 593 227 505 q 174 765 200 682 q 110 926 149 848 q 23 1079 72 1004 q 18 1092 19 1086 q 16 1105 16 1099 q 22 1120 16 1110 q 35 1140 27 1130 q 52 1158 43 1150 q 68 1165 60 1165 q 82 1162 78 1165 q 94 1151 86 1159 q 209 988 159 1076 q 290 806 258 901 q 339 612 323 711 q 355 412 355 512 z "},"*":{"ha":550,"x_min":27,"x_max":523,"o":"m 504 957 l 523 895 l 371 816 l 446 663 l 395 625 l 274 747 l 152 628 l 98 664 l 176 817 l 27 896 l 42 959 l 212 933 q 228 1018 220 974 q 241 1101 235 1063 l 307 1101 l 334 932 l 504 957 z "},"+":{"ha":711,"x_min":46,"x_max":665,"o":"m 46 488 l 294 488 l 294 745 l 420 745 l 420 488 l 665 488 l 665 361 l 420 361 l 420 106 l 294 106 l 294 361 l 46 361 l 46 488 z "},",":{"ha":407,"x_min":82,"x_max":325,"o":"m 142 -205 q 125 -196 128 -205 q 121 -180 121 -187 q 127 -163 122 -171 q 140 -150 132 -156 q 155 -138 147 -144 q 169 -127 163 -132 q 189 -106 178 -117 q 207 -81 199 -94 q 220 -55 215 -68 q 226 -28 226 -41 q 224 -16 226 -22 q 211 -10 222 -10 q 166 -3 189 -10 q 125 17 144 3 q 94 51 106 31 q 82 97 82 71 q 90 143 82 123 q 113 176 98 163 q 148 197 128 190 q 193 204 168 204 q 261 188 235 204 q 301 150 287 172 q 320 102 315 127 q 325 59 325 77 q 313 -13 325 22 q 283 -79 302 -48 q 240 -137 264 -111 q 190 -182 216 -163 q 166 -197 180 -190 q 142 -205 153 -205 z "},"-":{"ha":660,"x_min":58,"x_max":602,"o":"m 602 412 l 602 279 l 58 279 l 58 412 l 602 412 z "},".":{"ha":403,"x_min":88,"x_max":315,"o":"m 88 88 q 97 132 88 111 q 121 168 106 153 q 157 193 137 184 q 201 201 178 201 q 245 193 224 201 q 281 168 266 184 q 306 132 297 153 q 315 88 315 111 q 306 44 315 64 q 281 8 297 24 q 245 -16 266 -7 q 201 -25 224 -25 q 157 -16 178 -25 q 121 8 137 -7 q 97 44 106 24 q 88 88 88 64 z "},"/":{"ha":491,"x_min":3,"x_max":488,"o":"m 359 985 l 488 985 l 132 -18 l 3 -18 l 359 985 z "},":":{"ha":403,"x_min":88,"x_max":315,"o":"m 88 526 q 97 569 88 549 q 121 606 106 590 q 157 630 137 621 q 201 639 178 639 q 245 630 224 639 q 281 606 266 621 q 306 569 297 590 q 315 526 315 549 q 306 481 315 502 q 281 446 297 461 q 245 421 266 430 q 201 412 224 412 q 157 421 178 412 q 121 446 137 430 q 97 481 106 461 q 88 526 88 502 m 88 86 q 97 130 88 109 q 121 166 106 151 q 157 191 137 182 q 201 199 178 199 q 245 191 224 199 q 281 166 266 182 q 306 130 297 151 q 315 86 315 109 q 306 42 315 62 q 281 6 297 22 q 245 -18 266 -9 q 201 -27 224 -27 q 157 -18 178 -27 q 121 6 137 -9 q 97 42 106 22 q 88 86 88 62 z "},";":{"ha":407,"x_min":82,"x_max":325,"o":"m 94 524 q 102 567 94 547 q 127 604 111 588 q 163 628 142 619 q 207 637 183 637 q 251 628 230 637 q 287 604 271 619 q 311 567 302 588 q 320 524 320 547 q 311 479 320 500 q 287 444 302 459 q 251 419 271 428 q 207 410 230 410 q 163 419 183 410 q 127 444 142 428 q 102 479 111 459 q 94 524 94 500 m 142 -205 q 125 -196 128 -205 q 121 -180 121 -187 q 127 -163 122 -171 q 140 -150 132 -156 q 155 -138 147 -144 q 169 -127 163 -132 q 189 -106 178 -117 q 207 -81 199 -94 q 220 -55 215 -68 q 226 -28 226 -41 q 224 -16 226 -22 q 211 -10 222 -10 q 166 -3 189 -10 q 125 17 144 3 q 94 51 106 31 q 82 97 82 71 q 90 143 82 123 q 113 176 98 163 q 148 197 128 190 q 193 204 168 204 q 261 188 235 204 q 301 150 287 172 q 320 102 315 127 q 325 59 325 77 q 313 -13 325 22 q 283 -79 302 -48 q 240 -137 264 -111 q 190 -182 216 -163 q 166 -197 180 -190 q 142 -205 153 -205 z "},"<":{"ha":711,"x_min":104,"x_max":607,"o":"m 297 424 q 452 331 373 378 q 607 239 531 284 l 607 87 l 104 387 l 104 458 l 607 752 l 607 604 l 297 424 z "},"=":{"ha":711,"x_min":47,"x_max":665,"o":"m 665 613 l 665 486 l 47 486 l 47 613 l 665 613 m 665 362 l 665 235 l 47 235 l 47 362 l 665 362 z "},">":{"ha":711,"x_min":104,"x_max":607,"o":"m 104 605 l 104 753 l 607 459 l 607 387 l 104 88 l 104 240 q 259 332 180 285 q 414 425 338 379 l 104 605 z "},"?":{"ha":528,"x_min":61,"x_max":443,"o":"m 184 243 q 171 253 179 243 q 155 278 163 262 q 139 314 147 294 q 125 353 132 334 q 114 390 119 372 q 109 418 110 407 q 126 488 109 461 q 170 534 143 515 q 230 564 197 552 q 295 590 263 576 q 335 610 316 599 q 367 637 353 622 q 389 672 381 652 q 397 718 397 692 q 383 770 397 749 q 338 802 369 790 q 256 818 307 814 q 134 823 206 823 q 109 828 122 823 q 86 842 96 833 q 68 862 75 850 q 61 888 61 873 q 67 926 61 908 q 87 958 73 944 q 122 979 100 971 q 176 987 144 987 q 282 963 233 987 q 367 899 331 939 q 422 806 402 859 q 443 696 443 753 q 431 615 443 656 q 397 538 418 574 q 345 473 375 502 q 280 427 315 444 q 246 412 263 418 q 215 395 229 405 q 193 370 201 385 q 184 331 184 355 q 185 310 184 317 q 190 297 186 303 q 197 284 193 292 q 207 262 201 277 q 204 257 207 260 q 197 251 201 254 q 190 245 193 248 q 184 243 186 243 m 79 78 q 87 118 79 99 q 109 151 95 137 q 141 174 123 165 q 182 182 160 182 q 222 174 203 182 q 254 151 241 165 q 276 118 268 137 q 284 78 284 99 q 276 38 284 57 q 254 4 268 19 q 222 -19 241 -10 q 182 -27 203 -27 q 141 -19 160 -27 q 109 4 123 -10 q 87 38 95 19 q 79 78 79 57 z "},"@":{"ha":1390,"x_min":102,"x_max":1322,"o":"m 1322 110 q 1231 -59 1286 17 q 1102 -192 1176 -136 q 938 -282 1029 -248 q 741 -322 847 -315 q 567 -301 650 -322 q 413 -241 484 -280 q 284 -146 342 -202 q 186 -21 227 -90 q 124 130 146 48 q 102 302 102 212 q 124 480 102 393 q 186 643 146 566 q 284 785 227 720 q 413 896 342 849 q 566 969 484 943 q 740 995 649 995 q 898 976 825 995 q 1029 922 970 956 q 1132 842 1088 888 q 1206 740 1177 795 q 1252 623 1236 684 q 1267 499 1267 562 q 1251 357 1267 424 q 1206 235 1234 291 q 1139 135 1177 179 q 1057 60 1101 91 q 965 13 1013 29 q 871 -3 918 -3 q 822 -1 850 -3 q 768 10 793 1 q 726 40 743 20 q 708 98 708 61 q 712 147 708 127 q 719 183 715 167 q 707 172 713 178 q 692 160 700 167 q 642 116 669 140 q 586 71 614 92 q 533 36 558 50 q 490 22 508 22 q 453 33 469 22 q 427 61 437 43 q 409 99 416 78 q 398 142 402 121 q 393 183 395 164 q 392 216 392 203 q 415 342 392 281 q 476 455 437 402 q 567 551 515 508 q 677 626 618 595 q 799 674 736 657 q 922 692 861 692 q 940 688 934 692 q 950 678 947 684 q 953 665 953 672 q 954 652 954 658 l 850 179 l 851 180 l 850 170 q 849 161 849 165 q 848 155 848 157 q 866 107 848 124 q 911 91 883 91 q 981 108 947 91 q 1044 155 1015 125 q 1098 224 1074 185 q 1140 307 1122 263 q 1166 396 1157 351 q 1176 482 1176 441 q 1148 637 1176 563 q 1064 768 1120 711 q 928 862 1009 826 q 740 903 846 898 q 595 873 665 899 q 464 806 525 848 q 354 710 404 765 q 268 589 304 654 q 213 451 233 524 q 193 302 193 378 q 235 87 193 185 q 349 -81 276 -10 q 523 -191 422 -152 q 740 -231 623 -231 q 907 -204 830 -231 q 1045 -130 983 -178 q 1156 -14 1107 -82 q 1237 138 1204 54 l 1303 138 l 1322 110 m 524 236 q 525 210 524 224 q 529 182 526 195 q 541 161 533 170 q 562 152 548 152 q 609 169 584 152 q 658 211 634 186 q 703 259 682 235 q 739 300 724 284 l 801 574 q 739 564 770 573 q 679 540 707 555 q 626 504 650 525 q 586 456 602 482 q 540 351 553 405 q 524 236 527 296 z "},"A":{"ha":1045,"x_min":3,"x_max":1042,"o":"m 3 32 q 9 37 3 37 q 39 41 22 38 q 74 54 56 44 q 109 83 92 64 q 138 136 126 102 l 410 927 q 411 928 410 926 q 411 930 411 929 q 407 942 411 935 q 404 953 404 949 q 406 956 404 956 l 603 956 q 607 955 604 956 q 610 951 609 954 l 897 146 q 910 113 904 127 q 925 89 916 100 q 946 70 933 79 q 979 53 959 62 q 1005 43 989 48 q 1036 37 1021 37 q 1041 35 1040 37 q 1042 31 1042 33 l 1042 5 q 1041 2 1042 4 q 1036 0 1040 0 l 560 0 q 556 2 557 0 q 555 5 555 4 l 555 32 q 556 35 555 33 q 560 37 557 37 q 566 38 563 37 q 570 38 568 38 q 591 39 577 39 q 621 42 605 40 q 654 47 637 43 q 684 58 671 51 q 707 77 698 65 q 715 105 715 88 q 714 115 715 109 l 625 359 q 623 366 625 361 q 617 375 621 370 q 608 385 614 380 q 594 389 602 389 l 349 389 q 334 385 340 389 q 324 376 328 380 q 318 366 320 371 q 315 361 315 361 q 279 253 294 297 q 254 181 264 210 q 239 137 244 153 q 231 114 233 121 q 228 105 229 107 q 228 104 228 104 q 229 99 228 102 q 230 95 229 97 q 250 67 235 78 q 283 49 264 56 q 322 40 302 43 q 358 37 342 37 l 376 37 q 380 35 379 37 q 381 32 381 33 l 381 5 q 380 2 381 4 q 376 0 379 0 l 9 0 q 3 5 3 0 l 3 32 m 359 486 q 357 479 357 483 q 356 473 356 476 q 358 466 356 469 q 366 464 360 464 l 570 464 q 579 467 577 464 q 582 474 582 470 q 581 480 582 477 q 579 486 581 483 l 489 734 q 479 748 486 743 q 467 752 472 752 q 454 747 461 752 q 444 733 448 742 l 359 486 z "},"B":{"ha":1005,"x_min":7,"x_max":934,"o":"m 7 32 q 8 35 7 33 q 12 37 9 37 q 45 39 25 37 q 86 44 64 40 q 131 54 109 47 q 171 71 153 61 q 200 96 189 81 q 211 130 211 110 l 211 825 q 201 879 211 859 q 173 907 191 898 q 133 919 156 917 q 83 922 110 922 l 45 922 q 40 924 41 922 q 39 927 39 926 l 39 954 q 40 958 39 956 q 45 960 41 960 q 52 960 45 960 q 75 960 58 960 q 119 961 91 960 q 191 961 146 961 q 224 962 201 961 q 278 963 248 962 q 341 965 308 964 q 405 966 375 966 q 459 968 435 967 q 494 968 483 968 q 571 966 528 968 q 656 956 613 964 q 740 932 699 947 q 812 891 781 917 q 863 829 844 866 q 882 739 882 791 q 872 682 882 708 q 847 636 862 656 q 814 602 831 616 q 781 577 796 587 q 754 563 766 568 q 742 557 743 558 q 815 510 781 536 q 877 452 850 484 q 919 381 903 420 q 934 296 934 342 q 919 199 934 241 q 880 125 904 157 q 824 73 855 94 q 759 38 792 52 q 693 16 726 24 q 633 5 660 8 q 587 1 606 1 q 563 0 568 0 l 12 0 q 8 2 9 0 q 7 5 7 4 l 7 32 m 408 180 q 421 133 408 154 q 456 96 435 111 q 503 72 477 81 q 555 64 529 64 q 631 80 598 64 q 686 125 665 96 q 719 195 708 155 q 730 283 730 235 q 713 385 730 341 q 663 457 695 428 q 587 501 631 486 q 490 515 543 515 l 416 515 q 409 513 410 515 q 408 508 408 511 l 408 180 m 528 578 q 588 590 560 578 q 637 623 616 602 q 670 672 658 644 q 682 735 682 701 q 669 820 682 787 q 632 873 656 854 q 571 901 608 893 q 488 909 535 909 q 464 907 477 909 q 437 902 450 906 q 415 892 424 899 q 406 874 406 885 l 406 591 q 408 583 406 589 q 422 578 410 578 l 528 578 z "},"C":{"ha":1078,"x_min":71,"x_max":1025,"o":"m 71 472 q 90 615 71 548 q 144 740 109 683 q 227 842 178 797 q 335 919 276 888 q 463 968 395 951 q 604 985 530 985 q 725 974 667 985 q 844 947 783 962 q 866 941 854 945 q 887 933 877 937 q 905 926 897 929 q 917 924 913 924 q 926 926 918 924 q 937 929 934 929 l 968 929 q 977 918 977 929 l 977 696 q 974 691 977 692 q 960 690 970 690 q 950 690 958 690 q 939 694 941 690 q 934 702 938 696 q 926 714 930 708 q 918 727 922 721 q 913 734 914 732 q 857 820 888 785 q 790 877 827 855 q 709 908 753 899 q 615 918 666 918 q 501 903 551 918 q 414 861 451 888 q 351 796 376 834 q 310 713 326 758 q 287 617 294 668 q 279 511 279 566 q 288 397 279 454 q 314 289 296 340 q 361 194 332 238 q 431 118 390 151 q 526 68 471 86 q 648 50 580 50 q 756 67 706 50 q 847 114 806 84 q 921 181 888 143 q 976 262 953 220 q 979 266 977 265 q 984 266 981 266 l 1019 266 q 1023 264 1021 266 q 1025 257 1025 262 q 1022 247 1025 255 q 1016 232 1019 238 l 922 26 q 918 22 921 24 q 913 21 916 21 q 891 24 897 21 q 878 26 884 26 q 824 19 857 26 q 751 4 790 12 q 672 -11 712 -4 q 602 -18 633 -18 q 463 -3 530 -18 q 337 42 396 13 q 229 115 278 72 q 145 212 180 158 q 91 332 110 267 q 71 472 71 397 z "},"D":{"ha":1190,"x_min":31,"x_max":1128,"o":"m 36 0 q 31 2 32 0 q 31 5 31 5 l 31 35 q 31 38 31 35 q 36 40 32 40 l 51 40 q 86 42 65 40 q 127 51 107 43 q 160 75 146 59 q 174 119 174 91 l 174 842 q 165 877 174 863 q 142 901 156 892 q 111 914 128 910 q 79 918 94 918 l 36 918 q 31 921 32 918 q 31 924 31 923 l 31 953 q 31 956 31 954 q 36 958 32 958 l 51 958 l 330 963 q 415 964 369 964 q 500 964 460 964 q 576 963 543 964 q 642 959 610 962 q 705 951 673 956 q 776 939 736 947 q 916 881 851 923 q 1028 779 981 839 q 1102 647 1075 720 q 1128 498 1128 574 q 1108 360 1128 425 q 1052 239 1088 294 q 965 139 1015 184 q 856 64 916 95 q 729 17 796 33 q 591 0 662 0 l 56 0 l 36 0 m 368 105 q 380 75 368 85 q 413 59 393 64 q 462 53 434 54 q 520 52 490 52 q 822 163 722 52 q 923 488 923 275 q 900 659 923 581 q 831 793 878 737 q 714 881 785 850 q 549 912 644 912 l 385 912 q 371 908 374 912 q 368 894 368 903 l 368 109 l 368 105 z "},"E":{"ha":888,"x_min":5,"x_max":828,"o":"m 5 35 q 5 38 5 35 q 10 40 6 40 l 25 40 q 83 42 54 42 q 138 50 113 43 q 178 75 162 57 q 193 131 193 93 l 193 825 q 182 868 193 852 q 154 895 172 885 q 114 910 136 905 q 68 919 92 916 l 54 919 q 50 921 51 919 q 49 924 49 923 l 49 951 q 50 954 49 952 q 54 956 51 956 l 730 956 q 747 952 742 956 q 754 932 753 947 l 766 715 q 761 710 766 712 q 750 709 755 709 q 739 710 745 709 q 732 714 734 711 q 725 734 727 721 q 721 764 723 747 q 714 798 718 780 q 701 830 709 815 q 676 856 692 845 q 637 871 661 867 l 395 871 q 387 863 387 871 l 387 539 q 393 532 387 532 l 587 532 q 621 537 604 532 q 650 553 637 541 q 670 585 663 564 q 678 638 678 606 q 684 644 678 644 l 710 644 q 715 638 715 644 l 715 328 q 713 323 715 324 q 710 322 711 322 l 684 322 q 679 324 680 322 q 678 328 678 326 q 670 389 678 366 q 650 426 663 412 q 620 443 637 439 q 585 448 604 448 l 393 448 q 387 441 387 448 l 387 144 q 393 113 387 125 q 409 95 399 101 q 433 87 420 89 q 462 85 447 85 l 647 85 q 713 103 686 85 q 755 146 739 121 q 780 200 772 172 q 789 248 787 228 q 798 261 791 256 q 815 267 806 267 q 823 264 819 267 q 828 258 828 261 l 806 9 q 802 3 804 6 q 796 0 800 0 l 10 0 q 5 2 6 0 q 5 5 5 5 l 5 15 l 5 35 z "},"F":{"ha":822,"x_min":58,"x_max":751,"o":"m 602 555 q 627 557 612 555 q 657 567 643 559 q 683 594 672 576 q 693 644 693 612 q 699 650 693 650 l 725 650 q 730 644 730 650 l 730 372 q 728 367 730 368 q 725 366 726 366 l 699 366 q 694 368 695 366 q 693 372 693 370 q 683 428 693 408 q 658 458 672 448 q 628 469 644 467 q 604 471 613 471 l 377 471 q 365 466 369 471 q 361 452 361 460 l 361 127 q 368 97 361 109 q 388 75 375 84 q 417 59 400 66 q 454 46 434 52 q 476 40 465 43 q 495 37 488 37 q 500 35 499 37 q 500 32 500 33 l 500 5 q 499 2 500 4 q 495 0 498 0 l 64 0 q 59 2 60 0 q 58 5 58 4 l 58 32 q 59 35 58 33 q 64 37 60 37 q 83 40 71 37 q 101 46 95 43 q 149 80 130 59 q 168 132 168 102 l 168 854 q 153 895 168 880 q 121 918 139 910 q 87 927 103 925 q 67 929 71 929 l 64 929 q 60 931 61 929 q 59 935 59 933 l 59 951 q 60 954 59 952 q 64 956 61 956 l 734 956 q 747 952 743 955 q 751 941 751 950 l 751 756 q 746 746 751 748 q 735 744 741 744 l 722 744 q 718 756 720 745 q 711 782 715 767 q 702 813 707 798 q 688 837 696 828 q 670 854 679 847 q 650 865 661 861 q 625 870 640 869 q 591 871 611 871 l 374 871 q 361 858 361 871 l 361 571 q 377 555 361 555 l 602 555 l 602 555 z "},"G":{"ha":1130,"x_min":78,"x_max":1096,"o":"m 78 486 q 96 618 78 555 q 148 736 115 681 q 228 837 181 791 q 330 914 274 882 q 449 964 385 947 q 579 982 512 982 q 652 978 615 982 q 725 966 690 973 q 793 951 761 960 q 849 937 825 943 q 888 925 873 930 q 905 921 903 921 l 913 921 q 922 922 919 921 q 927 924 925 923 q 932 927 930 926 q 941 928 935 928 l 968 928 q 972 927 969 928 q 975 920 975 926 l 975 694 q 969 684 975 687 q 958 682 962 682 q 947 688 951 682 q 938 702 942 694 q 931 716 934 709 q 928 726 928 723 q 880 815 911 779 q 807 875 849 852 q 716 908 766 898 q 611 918 666 918 q 454 884 517 918 q 352 791 391 849 q 298 656 314 732 q 282 496 282 580 q 294 382 282 438 q 327 277 305 327 q 378 185 348 227 q 447 114 409 144 q 528 66 484 83 q 621 50 572 50 q 717 61 675 50 q 785 108 759 73 l 785 258 q 778 310 785 287 q 751 348 770 332 q 700 372 732 363 q 616 380 667 380 q 611 388 612 380 q 609 401 609 395 q 611 412 609 404 q 616 420 612 420 l 1088 420 q 1095 413 1094 420 q 1096 401 1096 405 q 1095 390 1096 397 q 1088 380 1093 382 q 1051 367 1070 372 q 1015 353 1031 361 q 988 329 999 344 q 978 287 978 313 l 978 89 q 974 80 978 83 q 960 73 969 77 q 873 38 922 54 q 774 9 825 22 q 673 -11 724 -3 q 582 -18 623 -18 q 385 17 477 -18 q 225 117 294 52 q 117 276 157 182 q 78 486 78 370 z "},"H":{"ha":1222,"x_min":41,"x_max":1181,"o":"m 46 0 q 42 2 43 0 q 41 5 41 4 l 41 42 q 42 45 41 43 q 46 47 43 47 q 89 51 67 47 q 127 64 110 54 q 156 93 145 74 q 168 144 168 112 l 168 824 q 160 863 168 847 q 139 888 153 878 q 106 903 125 898 q 64 909 87 907 q 59 914 59 909 l 59 951 q 64 956 59 956 l 465 956 q 470 954 469 956 q 471 951 471 952 l 471 914 q 465 910 471 910 q 426 906 445 910 q 393 892 407 903 q 370 864 378 882 q 361 814 361 845 l 361 535 q 363 526 361 528 q 372 524 365 524 l 845 524 q 854 526 852 524 q 856 535 856 528 l 856 825 q 841 865 856 849 q 803 889 826 880 q 754 903 781 899 q 705 909 728 907 q 700 914 700 909 l 700 951 q 705 956 700 956 l 1157 956 q 1161 954 1160 956 q 1162 951 1162 952 l 1162 914 q 1157 910 1162 910 q 1117 906 1137 910 q 1083 892 1098 903 q 1058 864 1067 882 q 1049 814 1049 845 l 1049 143 q 1054 112 1049 125 q 1070 84 1059 98 q 1106 59 1081 69 q 1176 47 1131 49 q 1181 42 1181 47 l 1181 5 q 1176 0 1181 0 l 684 0 q 679 2 680 0 q 678 5 678 4 l 678 42 q 679 45 678 43 q 684 47 680 47 q 733 50 704 47 q 790 62 762 53 q 837 89 817 71 q 856 136 856 106 l 856 429 q 854 437 856 435 q 845 439 852 439 l 372 439 q 363 437 365 439 q 361 429 361 435 l 361 129 q 371 90 361 106 q 398 65 381 75 q 436 52 414 56 q 481 47 458 47 q 486 45 485 47 q 486 42 486 43 l 486 5 q 486 2 486 4 q 481 0 485 0 l 46 0 l 46 0 z "},"I":{"ha":535,"x_min":61,"x_max":474,"o":"m 364 129 q 371 90 364 106 q 392 65 378 75 q 424 52 405 56 q 467 47 444 47 q 473 42 473 47 l 473 5 q 472 2 473 3 q 467 0 471 0 l 66 0 q 62 2 63 0 q 61 5 61 4 l 61 42 q 62 45 61 43 q 66 47 63 47 q 110 51 90 47 q 142 64 129 54 q 163 93 156 74 q 171 144 171 112 l 171 827 q 164 866 171 850 q 143 891 157 882 q 111 905 130 901 q 68 909 92 909 q 62 914 62 909 l 62 951 q 68 956 62 956 l 469 956 q 473 954 472 956 q 474 951 474 952 l 474 914 q 473 911 474 913 q 469 909 472 909 q 426 906 445 909 q 393 892 406 903 q 372 863 379 882 q 364 812 364 844 l 364 129 l 364 129 z "},"J":{"ha":531,"x_min":-170,"x_max":470,"o":"m 167 838 q 158 879 167 863 q 132 904 149 895 q 90 916 115 913 q 35 919 66 919 q 30 924 30 919 l 30 951 q 35 956 30 956 l 465 956 q 469 954 468 956 q 470 951 470 952 l 470 924 q 469 921 470 923 q 465 919 468 919 q 425 916 444 919 q 391 903 406 913 q 369 873 377 892 q 360 822 360 854 l 360 -7 q 350 -108 360 -57 q 320 -207 340 -159 q 270 -296 300 -254 q 199 -368 239 -337 q 107 -416 158 -399 q -7 -434 56 -434 q -130 -414 -92 -434 q -170 -363 -169 -394 q -163 -336 -170 -349 q -147 -314 -157 -323 q -125 -299 -137 -304 q -100 -294 -113 -294 q -65 -298 -80 -294 q -39 -310 -50 -303 q -19 -326 -28 -317 q -2 -341 -11 -334 q 17 -353 7 -349 q 41 -358 27 -358 q 93 -346 72 -358 q 129 -312 115 -334 q 150 -262 142 -291 q 162 -202 158 -234 q 166 -135 165 -170 q 167 -68 167 -101 l 167 838 l 167 838 z "},"K":{"ha":1125,"x_min":27,"x_max":1122,"o":"m 168 838 q 156 876 168 861 q 123 902 143 892 q 80 916 104 911 q 33 922 56 921 q 27 928 27 922 l 27 951 q 32 956 27 956 l 492 956 q 496 954 495 956 q 497 951 497 952 l 497 928 q 492 924 497 924 q 449 920 472 924 q 407 907 427 917 q 374 881 387 898 q 361 836 361 864 l 361 557 q 363 513 361 529 q 373 498 366 498 q 381 498 377 498 q 388 500 385 498 q 457 543 427 518 q 514 598 488 568 q 563 661 541 628 q 608 729 586 694 q 634 767 621 748 q 659 803 648 785 q 677 837 670 821 q 685 870 685 854 q 676 899 685 888 q 654 915 667 909 q 625 921 640 920 q 595 922 609 922 l 589 922 q 584 924 585 922 q 583 928 583 926 l 583 951 q 584 954 583 952 q 589 956 585 956 l 1001 956 q 1005 954 1004 956 q 1006 951 1006 952 l 1006 928 q 1004 923 1006 926 q 998 920 1002 920 q 923 913 957 918 q 862 895 890 907 q 811 859 834 882 q 766 801 787 836 q 702 696 730 740 q 651 623 673 653 q 614 575 629 593 q 588 545 598 557 q 571 525 577 533 q 564 510 566 517 q 580 492 568 503 q 612 463 592 481 q 660 417 632 444 q 723 350 688 390 q 801 257 758 311 q 893 132 844 203 q 953 77 917 98 q 1034 46 989 56 q 1070 38 1057 41 q 1092 34 1084 35 q 1105 33 1100 33 q 1116 33 1110 33 q 1121 31 1120 33 q 1122 27 1122 28 l 1122 5 q 1116 0 1122 0 l 612 0 q 606 5 606 0 l 606 28 q 612 34 606 33 q 636 35 621 35 q 668 37 652 35 q 694 46 683 39 q 706 71 706 54 q 691 104 705 82 q 656 154 677 127 q 613 208 636 180 q 570 258 589 236 q 525 312 546 285 q 481 362 503 340 q 434 399 458 385 q 381 414 410 414 l 368 414 q 362 411 363 414 q 361 404 361 409 l 361 117 q 374 70 361 87 q 406 45 387 53 q 448 35 425 37 q 492 33 471 33 q 496 31 495 33 q 497 27 497 28 l 497 5 q 496 2 497 4 q 492 0 495 0 l 32 0 q 27 5 27 0 l 27 28 q 33 34 27 34 q 80 40 56 35 q 123 55 104 45 q 156 80 143 64 q 168 119 168 96 l 168 838 z "},"L":{"ha":881,"x_min":27,"x_max":876,"o":"m 33 0 q 28 2 29 0 q 27 5 27 4 l 27 42 q 28 45 27 43 q 33 47 28 47 l 49 47 q 62 48 51 47 q 88 52 73 50 q 118 58 102 54 q 144 68 134 62 q 180 103 168 82 q 191 151 191 125 l 191 828 q 175 868 191 852 q 137 893 159 884 q 93 905 115 902 q 56 909 70 909 l 41 909 q 37 911 38 909 q 36 914 36 913 l 36 951 q 37 954 36 952 q 41 956 38 956 l 562 956 q 566 954 565 956 q 567 951 567 952 l 567 914 q 566 911 567 913 q 562 909 565 909 l 532 909 q 462 903 494 909 q 409 889 429 897 q 389 871 393 884 q 385 828 385 859 l 385 117 q 397 95 386 105 q 421 85 408 85 l 659 85 q 704 95 682 85 q 743 121 725 105 q 777 156 762 137 q 806 193 793 175 q 829 224 819 210 q 846 244 839 238 q 854 248 850 246 q 865 250 859 250 q 876 241 876 250 q 874 233 876 237 l 762 12 q 755 3 759 7 q 747 0 752 0 l 33 0 l 33 0 z "},"M":{"ha":1348,"x_min":18,"x_max":1320,"o":"m 18 35 q 19 39 18 37 q 23 41 20 41 q 93 51 68 41 q 129 80 117 62 q 144 125 141 99 q 148 180 146 151 q 158 350 152 268 q 169 512 163 433 q 178 670 174 592 q 182 827 182 748 l 182 852 q 172 879 182 867 q 148 899 162 891 q 120 911 134 907 q 98 916 106 916 q 92 921 92 916 l 92 951 q 93 954 92 952 q 98 956 94 956 l 338 956 q 350 951 345 955 q 359 941 355 947 l 654 283 q 666 272 659 272 q 677 275 673 272 q 682 284 680 279 l 974 929 q 987 949 981 942 q 1001 956 994 956 l 1240 956 q 1244 954 1244 956 q 1245 951 1245 952 l 1245 921 q 1244 918 1245 920 q 1240 916 1243 916 q 1224 913 1238 916 q 1192 902 1209 910 q 1160 880 1175 895 q 1146 842 1146 865 l 1185 119 q 1196 86 1186 100 q 1220 64 1206 73 q 1250 51 1234 55 q 1280 44 1266 46 q 1304 41 1294 41 q 1314 41 1314 41 q 1319 39 1318 41 q 1320 35 1320 37 l 1320 5 q 1319 2 1320 4 q 1314 0 1318 0 l 868 0 q 863 5 863 0 l 863 35 q 868 41 863 41 q 905 42 884 41 q 945 50 926 44 q 977 68 964 56 q 989 100 989 80 l 958 654 q 955 661 958 661 q 949 654 952 661 l 652 12 q 643 2 649 4 q 623 0 637 0 q 587 1 599 0 q 571 12 575 3 l 282 649 q 279 656 280 654 q 275 659 278 659 q 271 650 271 659 q 269 590 271 629 q 263 502 267 551 q 256 397 260 452 q 250 291 253 342 q 244 195 246 239 q 242 122 242 151 l 242 94 q 256 71 245 81 q 283 54 267 61 q 319 44 299 47 q 360 41 338 41 q 364 39 363 41 q 364 35 364 37 l 364 5 q 360 0 364 0 l 23 0 q 18 5 18 0 l 18 35 z "},"N":{"ha":1205,"x_min":41,"x_max":1181,"o":"m 46 0 q 43 2 45 0 q 41 5 41 3 l 41 35 q 46 41 41 41 q 63 41 54 41 q 82 41 73 41 q 98 43 91 42 q 110 45 106 43 q 138 67 127 54 q 154 98 149 81 q 162 137 160 116 q 164 182 164 158 l 164 859 q 150 889 164 878 q 116 906 135 900 q 76 913 96 911 q 46 916 56 916 q 42 918 43 916 q 41 921 41 920 l 41 951 q 42 954 41 952 q 46 956 43 956 l 353 956 l 938 309 q 943 304 941 306 q 946 302 944 302 q 949 304 949 302 q 950 309 950 307 l 950 711 q 945 819 950 779 q 928 881 941 859 q 893 909 915 902 q 838 916 871 916 l 803 916 q 799 918 800 916 q 798 921 798 920 l 798 951 q 799 954 798 952 q 803 956 800 956 l 1176 956 q 1181 954 1180 956 q 1181 951 1181 952 l 1181 921 q 1180 918 1181 920 q 1176 916 1179 916 q 1141 910 1162 916 q 1099 895 1120 905 q 1064 869 1079 884 q 1050 836 1050 854 l 1050 33 q 1044 14 1050 22 q 1030 1 1039 6 q 1012 -6 1022 -3 q 994 -8 1002 -8 q 963 -2 981 -8 q 927 23 945 3 l 287 733 q 280 739 282 738 q 275 740 278 740 q 271 733 271 740 l 271 127 q 280 95 271 109 q 304 71 290 81 q 335 55 318 61 q 369 46 353 50 q 399 42 386 43 q 419 41 412 41 q 424 38 422 41 q 425 35 425 37 l 425 5 q 424 2 425 4 q 419 0 422 0 l 46 0 l 46 0 z "},"O":{"ha":1238,"x_min":75,"x_max":1164,"o":"m 612 -18 q 552 -14 588 -18 q 474 1 517 -9 q 386 30 432 12 q 295 75 340 47 q 211 140 251 102 q 141 228 171 178 q 93 341 111 277 q 75 484 75 405 q 94 619 75 555 q 149 739 113 684 q 236 840 185 795 q 351 918 288 886 q 488 967 414 949 q 643 985 562 985 q 780 967 713 985 q 903 919 846 950 q 1009 843 961 887 q 1091 745 1057 799 q 1145 628 1126 690 q 1164 497 1164 565 q 1145 371 1164 433 q 1093 251 1127 308 q 1009 144 1058 193 q 899 59 960 96 q 765 3 838 23 q 612 -18 692 -18 m 274 509 q 285 399 274 454 q 318 294 296 345 q 372 198 340 243 q 444 121 404 154 q 535 70 485 88 q 643 51 585 51 q 785 86 725 51 q 885 178 846 121 q 944 311 925 236 q 964 466 964 386 q 952 580 964 524 q 920 687 941 636 q 867 780 899 737 q 794 853 836 822 q 704 902 753 884 q 595 919 654 919 q 499 903 543 919 q 419 858 455 886 q 357 791 384 830 q 311 707 330 752 q 283 611 293 661 q 274 509 274 560 z "},"P":{"ha":882,"x_min":27,"x_max":833,"o":"m 68 0 q 62 7 62 0 l 62 35 q 63 38 62 36 q 68 41 64 41 q 111 47 91 41 q 146 66 131 54 q 170 94 161 77 q 178 129 178 110 l 178 818 q 172 871 178 852 q 152 900 165 890 q 118 912 138 910 q 72 915 98 915 l 41 915 q 31 923 34 915 q 27 938 27 932 q 28 948 27 941 q 36 956 30 955 q 40 956 37 956 q 54 957 44 956 q 79 957 63 957 q 121 958 95 958 q 200 960 158 959 q 286 963 243 962 q 372 965 330 964 q 452 966 414 966 l 547 966 q 653 948 602 966 q 745 894 705 930 q 809 806 785 859 q 833 684 833 753 q 821 601 833 640 q 786 528 808 561 q 735 468 764 494 q 674 422 706 441 q 610 395 643 404 q 557 387 582 387 q 549 387 553 387 l 387 395 q 382 395 387 395 q 375 394 377 395 q 372 391 373 393 q 372 386 372 390 l 372 131 q 386 87 372 104 q 424 60 401 70 q 477 45 448 50 q 534 41 506 41 q 539 39 538 41 q 540 35 540 37 l 540 5 q 539 2 540 4 q 534 0 538 0 l 68 0 m 373 472 q 376 462 374 467 q 386 457 378 458 q 396 456 389 457 q 412 455 403 456 q 433 454 422 454 q 455 453 444 453 q 535 471 500 453 q 592 523 569 490 q 626 601 614 555 q 637 700 637 646 q 592 864 637 812 q 460 916 547 916 q 443 916 451 916 q 427 915 435 916 q 409 915 418 915 q 389 913 400 914 q 378 912 385 913 q 372 903 372 910 l 372 492 l 373 472 z "},"Q":{"ha":1236,"x_min":75,"x_max":1195,"o":"m 597 -18 q 568 -15 583 -16 q 540 -11 553 -14 q 361 49 446 6 q 213 156 277 92 q 112 302 149 220 q 75 479 75 385 q 117 684 75 591 q 232 843 159 777 q 407 947 306 910 q 625 983 507 983 q 769 967 701 983 q 898 920 838 950 q 1006 845 957 889 q 1089 745 1055 800 q 1142 625 1123 690 q 1161 486 1161 559 q 1134 334 1161 406 q 1059 203 1107 263 q 946 94 1011 142 q 807 9 882 45 q 865 -35 836 -13 q 919 -76 894 -56 q 964 -111 944 -95 q 996 -136 984 -126 q 1005 -144 1003 -142 q 1009 -146 1008 -146 q 1065 -189 1038 -170 q 1116 -218 1093 -209 q 1123 -220 1120 -220 q 1131 -222 1126 -221 l 1130 -222 q 1152 -228 1140 -224 q 1173 -234 1163 -231 q 1189 -242 1183 -238 q 1195 -250 1195 -245 q 1184 -270 1195 -262 q 1158 -280 1174 -277 q 1122 -283 1141 -283 q 1086 -284 1103 -284 q 985 -271 1030 -284 q 898 -233 941 -258 q 838 -195 866 -214 q 785 -156 810 -176 q 735 -116 760 -136 q 685 -72 711 -95 q 642 -36 663 -52 q 597 -18 621 -20 m 273 507 q 284 394 273 450 q 319 287 296 338 q 375 193 342 236 q 450 118 408 150 q 543 69 492 87 q 652 51 593 51 q 775 80 718 51 q 875 163 833 109 q 942 292 918 216 q 966 461 966 368 q 943 626 966 546 q 874 768 920 705 q 760 871 829 831 q 600 919 691 911 q 464 886 524 919 q 360 796 403 852 q 295 665 318 739 q 273 507 273 590 z "},"R":{"ha":1023,"x_min":27,"x_max":1015,"o":"m 30 35 q 31 38 30 36 q 35 41 31 41 q 48 42 39 41 q 66 45 57 43 q 84 48 76 46 q 96 50 92 50 q 150 79 134 59 q 165 129 165 99 l 165 818 q 151 871 165 852 q 118 901 136 891 q 82 913 99 911 q 58 916 64 916 l 33 916 q 28 918 29 916 q 27 921 27 920 l 27 951 q 28 954 27 952 q 33 956 28 956 q 36 956 33 956 q 45 957 38 956 q 67 957 53 957 q 107 958 81 958 q 187 960 144 959 q 273 963 229 962 q 358 965 316 964 q 438 966 401 966 l 507 966 q 616 948 560 966 q 716 894 671 930 q 790 806 762 859 q 819 684 819 753 q 807 604 819 639 q 773 542 795 569 q 723 495 752 515 q 659 459 693 475 l 864 134 q 926 57 890 92 q 1008 9 961 23 q 1014 6 1013 8 q 1015 0 1015 3 q 1010 -14 1015 -10 q 993 -17 1004 -17 q 928 -13 964 -17 q 855 -1 892 -9 q 786 21 819 7 q 730 55 753 35 q 686 103 709 74 q 641 166 664 132 q 596 236 618 199 q 554 307 574 272 q 514 371 533 341 q 479 422 495 401 l 374 429 q 368 429 373 429 q 361 428 363 429 q 359 425 359 427 q 358 420 358 424 l 358 131 q 363 99 358 113 q 379 76 368 85 q 408 60 390 66 q 452 50 426 54 q 464 48 456 50 q 480 45 471 47 q 498 42 490 43 q 513 41 507 41 q 518 39 517 41 q 519 35 519 37 l 519 5 q 518 2 519 4 q 513 0 517 0 l 35 0 q 31 9 32 0 q 30 27 30 19 l 30 35 m 359 497 q 362 487 360 492 q 372 482 365 483 q 391 480 378 481 q 425 478 403 478 q 523 496 484 478 q 584 546 562 515 q 615 616 606 576 q 623 700 623 656 q 609 786 623 745 q 569 857 595 827 q 508 904 544 886 q 430 922 473 922 q 415 921 420 922 q 405 921 410 921 q 393 920 399 920 q 375 919 387 920 q 365 917 371 919 q 358 908 358 916 l 358 517 l 359 497 z "},"S":{"ha":737,"x_min":61,"x_max":676,"o":"m 92 18 q 81 33 83 18 q 70 132 74 96 q 64 184 66 167 q 62 207 62 202 q 62 214 62 212 q 68 231 62 222 q 85 239 75 239 q 99 231 92 239 q 114 212 107 223 q 126 191 121 201 q 133 175 132 180 q 171 112 151 138 q 218 72 192 87 q 278 50 245 56 q 354 43 311 43 q 467 77 427 43 q 507 189 507 112 q 488 269 507 233 q 437 335 469 304 q 366 394 406 366 q 284 450 326 422 q 202 510 242 479 q 131 578 162 541 q 80 661 100 615 q 61 763 61 706 q 74 827 61 798 q 107 882 86 857 q 156 925 128 906 q 216 958 184 945 q 281 978 248 971 q 345 985 314 985 q 396 980 370 985 q 446 970 421 976 q 496 957 471 964 q 545 943 521 949 l 590 947 q 598 942 596 947 q 600 933 600 937 l 620 774 q 611 769 620 770 q 597 768 602 768 q 585 769 593 768 q 576 771 577 770 q 571 780 574 773 q 564 794 568 786 q 557 810 561 802 q 549 824 553 818 q 466 899 517 874 q 354 924 415 924 q 304 918 328 924 q 264 898 281 911 q 238 865 248 885 q 228 816 228 844 q 247 741 228 774 q 298 678 267 707 q 370 621 330 648 q 452 564 410 593 q 534 503 494 535 q 606 431 574 470 q 657 343 637 391 q 676 235 676 295 q 662 160 676 195 q 625 97 648 125 q 569 47 601 69 q 501 11 537 26 q 426 -11 465 -3 q 351 -18 388 -18 q 271 -12 305 -18 q 212 4 237 -5 q 170 19 187 12 q 142 26 153 26 q 136 25 138 26 l 92 18 z "},"T":{"ha":1019,"x_min":43,"x_max":975,"o":"m 412 852 q 407 868 412 867 q 393 871 401 870 l 163 871 q 123 851 138 866 q 101 817 109 837 q 89 775 93 798 q 80 731 85 752 q 77 716 79 725 q 75 707 76 708 q 70 705 73 705 l 47 705 q 43 707 43 705 l 43 730 l 68 962 q 75 976 70 969 q 90 983 79 983 q 99 980 94 983 q 107 974 103 977 q 115 966 111 970 q 123 962 119 963 q 138 957 131 958 q 154 956 145 956 l 865 956 q 881 957 873 956 q 896 962 888 958 q 904 966 900 963 q 911 974 907 970 q 920 980 916 977 q 929 983 924 983 q 944 976 939 983 q 950 962 949 969 l 975 730 l 975 707 q 971 705 975 705 l 949 705 q 944 707 945 705 q 941 716 943 708 q 939 731 940 725 q 930 775 934 752 q 918 817 926 798 q 895 851 909 837 q 856 871 881 866 l 625 871 q 611 868 617 870 q 606 852 606 867 l 606 132 q 616 96 606 112 q 643 68 626 80 q 684 48 661 56 q 734 38 707 41 q 753 37 741 37 q 772 37 764 37 q 777 35 776 37 q 778 32 778 33 l 778 5 q 777 2 778 4 q 772 0 776 0 l 245 0 q 241 2 242 0 q 240 5 240 4 l 240 32 q 241 35 240 33 q 245 37 242 37 q 265 37 253 37 q 284 38 277 37 q 334 48 311 41 q 375 68 357 56 q 402 96 392 80 q 412 132 412 112 l 412 852 l 412 852 z "},"U":{"ha":1134,"x_min":24,"x_max":1118,"o":"m 143 838 q 134 872 143 857 q 109 898 125 888 q 73 913 94 908 q 30 919 53 919 q 24 924 24 919 l 24 951 q 29 956 24 956 l 458 956 q 462 954 461 956 q 463 951 463 952 l 463 924 q 462 921 463 923 q 458 919 461 919 q 416 916 437 919 q 377 904 395 913 q 348 877 359 895 q 336 828 336 859 l 336 353 q 406 143 336 217 q 612 68 475 68 q 722 84 669 68 q 814 134 774 100 q 878 218 854 167 q 901 341 901 270 l 901 762 q 900 810 901 785 q 888 856 898 834 q 859 893 879 878 q 801 916 838 909 q 773 919 784 918 q 758 919 762 919 q 753 924 753 919 l 753 951 q 758 956 753 956 l 1112 956 q 1117 954 1116 956 q 1118 951 1118 952 l 1118 924 q 1116 921 1118 923 q 1112 919 1115 919 q 1069 915 1088 919 q 1041 907 1050 911 q 1020 893 1029 903 q 1004 872 1010 883 q 994 849 998 861 q 991 828 991 837 l 991 394 q 966 222 991 298 q 890 93 941 146 q 763 11 840 39 q 584 -18 686 -18 q 483 -11 535 -18 q 382 13 431 -3 q 290 55 333 29 q 214 117 246 81 q 162 199 181 153 q 143 305 143 246 l 143 838 l 143 838 z "},"V":{"ha":1082,"x_min":3,"x_max":1078,"o":"m 493 -18 q 472 -3 477 -18 l 119 852 q 103 878 113 867 q 83 896 93 888 q 63 906 73 903 q 47 911 54 910 q 37 914 43 913 q 25 917 31 916 q 14 918 19 918 q 9 919 9 919 q 3 924 3 919 l 3 951 q 9 956 3 956 l 470 956 q 475 955 474 956 q 475 951 475 953 l 475 924 q 474 921 475 923 q 470 919 473 919 l 460 919 q 421 913 443 916 q 381 904 400 911 q 350 883 363 897 q 338 844 338 869 q 341 824 338 836 q 347 805 344 812 l 589 218 q 591 215 590 216 q 593 212 592 214 q 596 211 595 211 q 604 218 601 211 l 826 819 q 832 833 829 827 q 835 846 835 840 q 819 887 835 870 q 776 909 804 905 q 763 911 772 910 q 743 915 753 913 q 724 918 733 916 q 710 919 714 919 q 705 924 705 919 l 705 951 q 705 954 705 952 q 710 956 706 956 l 1073 956 q 1078 954 1077 956 q 1078 951 1078 952 l 1078 924 q 1078 921 1078 922 q 1073 919 1077 919 l 1048 919 q 986 890 1010 911 q 946 840 962 869 q 918 778 929 811 q 895 715 906 745 l 632 5 q 617 -15 626 -12 q 593 -18 608 -18 l 493 -18 l 493 -18 z "},"W":{"ha":1595,"x_min":-5,"x_max":1592,"o":"m 982 -18 q 961 -3 966 -18 l 810 361 l 659 5 q 643 -15 651 -11 q 619 -18 635 -18 l 521 -18 q 508 -15 513 -18 q 500 -3 503 -11 l 149 842 q 127 872 141 860 q 97 891 113 884 q 66 902 81 898 q 43 907 52 905 q 32 909 39 907 q 18 912 25 911 q 6 915 12 913 q 0 916 1 916 q -5 921 -5 916 l -5 951 q 0 956 -5 956 l 448 956 q 452 955 452 956 q 453 951 453 953 l 453 921 q 452 918 453 920 q 448 916 451 916 l 435 916 q 394 909 409 916 q 371 894 379 903 q 362 875 363 885 q 360 857 360 865 q 365 829 360 842 q 372 802 369 816 l 616 215 q 629 208 619 208 q 635 210 633 208 q 639 216 637 212 l 756 492 l 608 849 q 581 886 599 870 q 545 907 562 903 q 524 913 536 910 q 508 916 511 916 q 503 921 503 916 l 503 951 q 508 956 503 956 l 1152 956 q 1157 954 1156 956 q 1158 951 1158 952 l 1158 921 q 1157 917 1158 919 q 1152 916 1156 916 l 1127 916 q 1084 909 1103 916 q 1050 888 1065 902 q 1023 852 1036 873 q 998 801 1010 830 l 915 607 l 1077 217 q 1090 210 1080 210 q 1100 218 1097 210 l 1371 852 q 1379 884 1379 871 q 1363 908 1379 901 q 1307 916 1348 916 l 1265 916 q 1259 921 1259 916 l 1259 951 q 1260 954 1259 952 q 1265 956 1261 956 l 1587 956 q 1592 954 1591 956 q 1592 951 1592 952 l 1592 921 q 1592 917 1592 919 q 1587 916 1591 916 l 1555 916 q 1527 909 1539 916 q 1504 889 1514 903 q 1483 857 1493 876 q 1463 810 1474 837 l 1119 5 q 1103 -15 1112 -11 q 1080 -18 1095 -18 l 982 -18 m 915 865 q 921 882 920 876 q 922 894 922 887 q 876 916 922 916 q 844 911 857 916 q 825 900 832 907 q 815 886 818 894 q 812 870 812 878 q 814 854 812 863 q 822 832 817 846 q 836 796 827 819 q 860 738 845 774 l 915 865 z "},"X":{"ha":1170,"x_min":3,"x_max":1166,"o":"m 3 35 q 9 41 3 41 l 35 41 q 83 51 59 41 q 131 78 107 62 q 175 114 154 94 q 213 152 196 134 q 242 185 230 170 q 259 207 254 200 l 472 485 q 360 630 408 568 q 277 738 313 692 q 217 813 242 783 q 170 862 191 843 q 130 890 149 880 q 89 905 111 900 q 71 908 81 906 q 48 912 60 910 q 26 915 37 913 q 9 916 16 916 q 4 918 5 916 q 3 921 3 920 l 3 951 q 4 954 3 952 q 9 956 5 956 l 519 956 q 524 954 524 956 q 525 951 525 952 l 525 921 q 524 918 525 920 q 519 916 524 916 q 439 909 465 916 q 414 887 414 902 q 422 871 414 884 q 445 838 429 858 l 581 659 q 587 653 585 654 q 593 652 589 652 q 603 657 600 652 q 612 667 607 662 l 743 838 q 758 860 749 846 q 767 885 767 873 q 756 902 767 896 q 731 911 746 908 q 698 915 715 914 q 668 916 681 916 q 663 921 663 916 l 663 951 q 663 955 663 953 q 668 956 664 956 l 1055 956 q 1060 955 1059 956 q 1061 951 1061 953 l 1061 921 q 1060 917 1061 919 q 1055 916 1059 916 q 934 886 985 916 q 844 804 883 856 l 655 561 l 991 118 q 1011 96 1000 106 q 1037 75 1023 85 q 1065 59 1050 66 q 1094 50 1080 52 q 1114 44 1102 45 q 1138 40 1126 42 q 1158 34 1149 38 q 1166 22 1166 31 q 1158 6 1166 12 q 1140 0 1149 0 l 689 0 q 685 2 686 0 q 684 5 684 4 l 684 35 q 684 38 684 37 q 689 41 685 40 q 708 42 695 42 q 735 44 722 41 q 758 55 748 47 q 768 81 768 63 q 765 94 768 87 q 760 105 762 102 l 546 388 q 541 393 543 391 q 534 395 539 395 q 527 393 529 395 q 523 388 526 391 l 310 112 q 302 98 304 104 q 300 85 300 92 q 314 56 300 64 q 344 45 327 47 q 378 44 361 43 q 403 41 395 45 q 408 35 408 38 l 408 5 q 407 2 408 4 q 403 0 406 0 l 9 0 q 4 2 5 0 q 3 5 3 4 l 3 13 l 3 35 z "},"Y":{"ha":1108,"x_min":3,"x_max":1105,"o":"m 483 335 q 481 342 483 339 l 203 785 q 179 822 192 804 q 150 858 165 841 q 115 887 134 874 q 75 905 96 899 q 64 907 71 905 q 48 910 56 909 q 33 913 40 911 q 22 915 25 914 q 9 923 15 916 q 3 937 3 931 q 3 942 3 939 q 4 948 3 945 q 7 954 5 951 q 13 956 9 956 l 473 956 q 483 949 481 956 q 485 937 485 943 q 484 923 485 930 q 476 916 483 916 q 441 913 458 914 q 414 906 425 911 q 395 891 402 901 q 389 863 389 881 q 397 833 389 846 l 604 501 q 613 487 611 490 q 621 484 616 484 q 630 490 626 484 q 639 504 633 495 l 802 781 q 822 816 812 797 q 831 854 831 835 q 826 885 831 873 q 811 902 821 896 q 786 911 801 908 q 753 916 772 913 q 744 924 745 916 q 743 937 743 931 q 744 949 743 942 q 754 956 746 956 l 1095 956 q 1103 948 1101 956 q 1105 937 1105 941 q 1100 926 1105 930 q 1089 918 1096 921 q 1076 913 1083 915 q 1063 910 1069 911 q 1004 885 1029 903 q 956 842 979 868 q 946 831 952 839 q 939 823 939 824 l 676 372 l 676 132 q 697 69 676 92 q 772 41 718 47 q 791 41 779 41 q 810 41 802 41 q 815 39 814 41 q 816 35 816 37 l 816 5 q 815 2 816 4 q 810 0 814 0 l 349 0 q 344 2 345 0 q 343 5 343 4 l 343 35 q 344 39 343 37 q 349 41 345 41 q 368 41 356 41 q 387 41 380 41 q 462 69 441 47 q 483 132 483 92 l 483 335 z "},"Z":{"ha":1042,"x_min":52,"x_max":977,"o":"m 52 29 q 55 44 52 37 q 63 58 58 52 l 677 852 q 680 859 680 856 q 675 865 680 865 q 666 866 670 866 l 328 866 q 295 862 312 866 q 262 849 277 857 q 235 828 247 840 q 218 798 222 815 q 211 770 215 791 q 198 708 206 749 q 187 698 197 701 q 166 695 178 695 q 160 695 164 695 q 153 696 157 695 q 146 697 149 696 q 142 699 142 698 l 152 933 q 153 940 152 935 q 155 949 153 945 q 162 956 157 954 q 168 956 165 956 l 930 956 q 933 953 932 956 q 937 945 935 949 q 940 936 939 941 q 941 927 941 930 q 932 900 941 913 l 342 137 q 334 125 340 134 q 328 112 328 117 q 339 98 328 102 q 359 94 350 94 l 791 94 q 854 116 829 94 q 894 171 879 138 q 916 241 909 204 q 924 306 923 277 q 928 312 925 310 q 936 315 932 314 q 945 316 941 316 q 953 316 949 316 q 958 315 954 316 q 966 314 962 315 q 974 311 970 313 q 977 308 977 309 l 977 276 l 962 40 q 962 25 962 33 q 960 13 962 18 q 955 4 958 7 q 943 0 951 0 l 78 0 q 64 3 69 0 q 56 11 59 6 q 53 21 54 16 q 52 29 52 26 z "},"[":{"ha":529,"x_min":139,"x_max":519,"o":"m 503 1174 l 503 1095 l 342 1095 q 292 1046 292 1095 l 292 -104 q 342 -153 292 -153 l 519 -153 l 519 -232 l 139 -232 l 139 1174 l 503 1174 z "},"\\":{"ha":492,"x_min":4,"x_max":488,"o":"m 133 985 l 4 985 l 360 -18 l 488 -18 l 133 985 z "},"]":{"ha":529,"x_min":10,"x_max":390,"o":"m 10 -232 l 10 -153 l 188 -153 q 225 -141 214 -153 q 237 -104 237 -130 l 237 1046 q 225 1083 237 1072 q 188 1095 214 1095 l 25 1095 l 25 1174 l 390 1174 l 390 -232 l 10 -232 z "},"^":{"ha":756,"x_min":65,"x_max":691,"o":"m 380 764 l 174 460 l 65 460 l 336 935 l 425 935 l 691 460 l 581 460 l 380 764 z "},"_":{"ha":688,"x_min":-11,"x_max":699,"o":"m -11 -139 l 699 -139 l 699 -217 l -11 -217 l -11 -139 z "},"`":{"ha":502,"x_min":95,"x_max":367,"o":"m 352 720 q 343 712 349 715 q 333 708 337 708 q 319 713 326 708 l 137 860 q 108 891 121 873 q 95 935 95 909 q 100 959 95 947 q 113 979 104 970 q 133 993 121 988 q 157 998 144 998 q 189 989 173 998 q 219 960 204 980 l 361 762 q 366 754 365 758 q 367 745 367 750 q 366 741 367 743 q 363 734 366 738 l 352 720 z "},"a":{"ha":690,"x_min":47,"x_max":673,"o":"m 330 14 q 277 -11 308 -2 q 216 -20 247 -20 q 91 18 134 -20 q 47 119 47 55 q 64 182 47 155 q 113 229 81 208 q 194 266 146 249 q 304 298 241 282 q 359 317 338 307 q 397 337 380 328 q 411 348 409 343 q 412 357 412 353 l 412 475 q 406 516 412 497 q 387 550 399 536 q 355 572 374 564 q 314 581 337 581 q 277 574 294 581 q 248 554 260 567 q 229 524 236 541 q 222 484 222 506 q 222 477 222 481 q 223 469 222 473 q 224 461 224 465 q 225 457 225 458 q 214 452 224 456 q 188 443 203 448 q 155 432 173 437 q 120 422 136 427 q 91 414 103 418 q 73 410 78 410 q 64 417 66 410 q 62 433 62 425 q 86 509 62 472 q 150 575 110 547 q 241 622 189 604 q 347 640 292 640 q 435 627 396 640 q 500 592 473 614 q 542 542 528 570 q 556 480 556 513 l 556 157 q 569 125 556 139 q 604 111 583 111 q 626 116 616 111 q 643 126 635 120 q 656 136 651 132 q 666 140 662 140 q 672 136 671 140 q 673 128 673 132 q 670 105 673 117 q 659 87 667 93 q 600 42 626 62 q 553 8 574 22 q 515 -14 532 -6 q 484 -21 498 -21 q 459 -14 470 -21 q 441 5 449 -6 q 428 28 433 16 q 419 52 422 41 q 413 69 415 62 q 410 75 411 76 l 330 14 m 205 135 q 213 105 205 117 q 231 87 220 94 q 257 79 243 81 q 288 77 272 77 q 323 84 302 77 q 364 103 344 91 q 398 130 384 115 q 412 161 412 145 l 412 273 q 407 280 412 280 q 404 279 406 280 l 247 206 q 230 194 237 199 q 216 180 222 188 q 208 162 211 172 q 205 135 205 151 z "},"b":{"ha":797,"x_min":8,"x_max":722,"o":"m 243 1112 q 249 1114 245 1113 q 253 1116 252 1116 q 264 1099 264 1116 l 264 587 q 266 573 264 581 q 275 566 268 566 q 286 570 277 566 q 333 593 311 582 q 376 614 355 605 q 419 629 397 623 q 465 635 441 635 q 565 610 518 635 q 647 544 612 586 q 702 445 682 502 q 722 322 722 387 q 696 184 722 247 q 622 76 669 121 q 510 6 575 31 q 370 -18 446 -18 q 295 -15 329 -18 q 230 -7 260 -12 q 172 5 199 -2 q 117 18 144 12 q 109 24 111 20 q 107 35 107 28 l 107 924 q 98 950 107 941 q 76 964 90 959 q 47 971 62 968 q 17 979 31 975 q 11 982 13 980 q 8 992 8 985 q 10 999 8 996 q 18 1006 12 1002 l 243 1112 m 273 509 q 266 502 267 506 q 264 493 264 498 l 264 165 q 307 68 271 101 q 402 35 342 35 q 484 54 451 35 q 536 106 516 73 q 565 186 556 140 q 573 286 573 232 q 565 385 573 339 q 536 465 557 431 q 479 519 515 499 q 387 539 443 539 q 354 538 369 539 q 327 533 340 536 q 301 524 314 530 q 273 509 288 518 z "},"c":{"ha":670,"x_min":61,"x_max":623,"o":"m 61 287 q 91 453 62 385 q 169 562 120 520 q 282 621 218 603 q 418 640 347 640 q 454 638 433 640 q 497 634 475 637 q 540 625 519 631 q 579 609 562 619 q 607 583 596 598 q 617 546 617 568 q 611 520 617 530 q 594 504 605 510 q 569 496 583 498 q 538 494 555 494 q 506 501 519 494 q 482 516 493 507 q 462 537 471 526 q 441 557 452 548 q 416 573 430 566 q 381 579 401 579 q 303 555 334 579 q 255 494 273 531 q 232 413 238 457 q 225 329 225 369 q 235 229 225 275 q 268 150 245 183 q 327 98 291 117 q 415 79 363 79 q 453 85 434 79 q 489 102 471 92 q 521 126 506 113 q 549 155 536 140 q 563 169 556 163 q 583 174 569 174 q 611 166 599 174 q 623 148 623 157 q 622 141 623 145 q 614 128 621 136 q 559 68 589 96 q 495 22 529 41 q 422 -7 461 3 q 339 -18 383 -18 q 230 8 281 -18 q 142 78 180 35 q 83 175 104 121 q 61 287 61 230 z "},"d":{"ha":791,"x_min":58,"x_max":777,"o":"m 651 1112 q 657 1114 654 1113 q 661 1116 660 1116 q 673 1099 673 1116 l 673 155 q 688 113 673 125 q 734 100 703 100 l 773 102 q 777 99 776 102 q 777 91 777 95 q 775 87 777 90 q 767 82 774 85 l 535 -14 q 528 -17 534 -15 q 522 -18 523 -18 q 516 -13 517 -18 q 515 -1 515 -7 l 515 45 q 511 52 515 52 q 505 50 509 52 q 460 24 481 37 q 417 2 439 12 q 373 -13 396 -7 q 321 -18 349 -18 q 211 7 260 -18 q 128 74 162 32 q 76 170 94 116 q 58 283 58 224 q 86 416 58 355 q 161 522 114 477 q 271 592 208 566 q 401 617 333 617 q 433 614 420 617 q 458 607 447 610 q 481 600 470 603 q 507 596 493 596 q 512 597 509 596 q 515 605 515 599 l 515 924 q 507 950 515 941 q 484 964 498 959 q 455 971 471 968 q 425 979 439 975 q 419 982 421 980 q 416 992 416 985 q 418 999 416 996 q 427 1006 420 1002 l 651 1112 m 212 314 q 223 220 212 265 q 257 141 234 175 q 317 86 281 106 q 401 66 353 66 q 428 70 409 66 q 466 80 447 74 q 500 96 486 87 q 515 115 515 104 l 515 452 q 482 528 515 498 q 386 557 448 557 q 308 535 340 557 q 253 479 275 514 q 222 401 232 445 q 212 314 212 358 z "},"e":{"ha":688,"x_min":47,"x_max":621,"o":"m 47 275 q 70 421 47 354 q 134 536 92 488 q 237 612 176 585 q 375 640 298 640 q 416 636 398 640 q 450 628 435 633 q 478 616 465 623 q 505 601 492 609 q 541 572 521 593 q 578 523 561 551 q 608 464 596 495 q 621 403 621 432 q 617 382 621 393 q 604 371 613 371 l 204 371 q 195 359 197 371 q 193 329 193 347 q 210 223 193 269 q 256 144 227 176 q 323 95 286 112 q 404 79 361 79 q 454 86 430 79 q 501 104 479 93 q 543 130 524 116 q 581 159 563 144 q 586 160 585 160 q 591 157 588 160 q 604 144 597 151 q 613 132 610 137 q 615 128 615 130 q 612 123 615 126 q 557 72 590 97 q 488 26 525 46 q 412 -6 451 6 q 339 -18 374 -18 q 215 7 269 -18 q 123 74 161 33 q 67 168 86 115 q 47 275 47 220 m 446 423 q 463 439 463 423 q 455 489 463 465 q 431 530 446 512 q 393 558 415 548 q 344 568 371 568 q 287 554 311 568 q 245 521 262 541 q 220 480 229 501 q 212 444 212 459 q 215 428 212 433 q 224 423 218 423 l 446 423 z "},"f":{"ha":475,"x_min":27,"x_max":674,"o":"m 27 20 q 29 32 27 24 q 34 41 31 39 q 59 47 43 45 q 92 56 75 49 q 120 78 108 63 q 132 123 132 94 l 132 516 q 124 524 132 524 l 50 524 q 35 529 42 524 q 27 543 27 534 q 35 556 27 551 q 54 567 43 562 q 80 577 66 572 q 105 589 94 583 q 124 604 117 595 q 132 623 132 612 l 132 646 q 157 829 132 741 q 230 985 181 917 q 353 1093 279 1053 q 525 1134 427 1134 q 559 1128 534 1134 q 609 1114 583 1123 q 654 1091 635 1104 q 674 1063 674 1078 q 672 1054 674 1058 q 669 1044 671 1050 q 662 1028 667 1040 q 650 1001 656 1016 q 638 974 644 987 q 631 958 632 961 q 626 951 629 955 q 618 947 622 947 q 615 948 616 947 q 606 954 613 949 q 571 983 591 967 q 529 1012 551 998 q 482 1036 507 1026 q 433 1045 458 1045 q 350 1029 379 1045 q 308 989 321 1014 q 292 933 294 964 q 290 871 290 902 l 290 629 q 291 625 290 625 q 296 624 293 624 l 429 624 q 453 620 448 624 q 462 606 459 616 q 468 572 466 591 q 470 538 470 553 q 467 526 470 529 q 452 524 463 524 l 298 524 q 293 523 297 524 q 290 517 290 522 l 290 137 q 304 89 290 107 q 343 59 319 70 q 398 44 368 48 q 458 41 428 41 q 467 32 464 40 q 470 20 470 24 q 470 16 470 19 q 468 9 469 12 q 465 3 467 5 q 458 0 462 0 l 34 0 q 28 9 30 1 q 27 20 27 16 z "},"g":{"ha":830,"x_min":47,"x_max":825,"o":"m 395 640 q 511 623 460 640 q 597 573 563 606 q 679 578 640 574 q 763 581 718 581 q 788 580 779 581 q 804 577 798 579 q 812 571 809 574 q 816 562 814 567 q 823 531 821 545 q 825 503 825 517 q 816 488 825 492 q 782 484 808 484 l 658 484 q 676 448 667 469 q 686 394 686 427 q 665 303 686 347 q 603 224 644 258 q 504 170 562 191 q 370 149 445 149 q 332 151 347 149 q 302 157 318 153 q 279 142 293 149 q 251 127 264 136 q 228 109 237 119 q 218 82 218 98 q 268 41 218 54 q 429 28 318 28 q 584 23 514 27 q 703 2 653 19 q 779 -52 752 -16 q 806 -153 806 -88 q 793 -212 806 -180 q 754 -275 781 -243 q 689 -335 728 -306 q 596 -386 650 -363 q 476 -421 543 -408 q 328 -434 409 -434 q 204 -420 257 -434 q 117 -383 151 -406 q 65 -331 82 -360 q 47 -270 47 -301 q 57 -227 47 -246 q 82 -192 66 -208 q 117 -162 98 -176 q 156 -134 136 -149 q 194 -103 176 -119 q 226 -67 212 -87 q 160 -50 190 -62 q 110 -22 131 -38 q 78 14 90 -5 q 66 53 66 33 q 76 85 66 71 q 102 109 86 98 q 138 128 118 119 q 180 145 159 137 q 209 157 194 151 q 241 175 224 163 q 119 260 160 208 q 77 380 77 312 q 102 482 77 435 q 169 565 126 530 q 270 620 212 600 q 395 640 328 640 m 202 -214 q 219 -272 202 -243 q 266 -323 237 -300 q 336 -361 296 -347 q 421 -376 376 -376 q 513 -360 469 -376 q 593 -317 558 -344 q 648 -256 627 -291 q 669 -183 669 -221 q 662 -144 669 -161 q 643 -115 655 -127 q 614 -97 631 -104 q 581 -89 598 -90 q 533 -86 566 -87 q 458 -84 500 -85 q 409 -83 433 -83 q 364 -82 385 -83 q 327 -81 343 -81 q 300 -79 310 -80 q 271 -107 288 -94 q 238 -135 254 -120 q 213 -170 223 -151 q 202 -214 202 -189 m 523 379 q 512 472 523 431 q 481 542 501 513 q 434 584 461 570 q 374 599 407 599 q 331 591 355 599 q 288 563 308 583 q 254 506 267 542 q 240 414 240 470 q 248 338 240 378 q 274 266 256 299 q 321 211 292 233 q 390 190 349 190 q 445 204 420 190 q 487 242 469 218 q 513 302 504 267 q 523 379 523 337 z "},"h":{"ha":865,"x_min":20,"x_max":845,"o":"m 388 20 q 387 9 388 16 q 381 0 385 1 l 27 0 q 22 9 23 1 q 20 20 20 16 q 22 32 20 24 q 27 41 24 39 q 52 47 36 45 q 85 57 68 50 q 113 79 101 64 q 125 124 125 94 l 125 925 q 117 950 125 941 q 94 964 108 960 q 65 972 81 969 q 35 979 50 975 q 29 983 31 981 q 26 993 26 985 q 28 1000 26 996 q 37 1006 31 1003 l 261 1112 q 267 1114 264 1113 q 271 1116 270 1116 q 283 1099 283 1116 l 283 525 q 283 515 283 522 q 288 509 284 509 q 294 511 292 509 q 300 517 296 513 q 340 560 320 540 q 385 595 361 580 q 440 619 410 610 q 511 628 471 628 q 594 618 553 628 q 668 582 635 608 q 720 508 700 555 q 740 386 740 460 l 740 124 q 752 79 740 94 q 781 57 764 64 q 813 47 797 50 q 838 41 829 45 q 843 32 841 39 q 845 20 845 24 q 844 9 845 16 q 838 0 842 1 l 484 0 q 479 9 480 1 q 477 20 477 16 q 479 32 477 24 q 484 41 481 39 q 509 47 493 45 q 542 57 526 50 q 570 79 558 64 q 583 124 583 94 l 583 357 q 581 431 583 397 q 567 492 578 466 q 529 532 555 517 q 455 547 503 547 q 401 535 431 547 q 345 503 371 523 q 300 457 318 483 q 283 402 283 431 l 283 124 q 295 79 283 94 q 323 57 307 64 q 356 47 340 50 q 381 41 372 45 q 386 32 384 39 q 388 20 388 24 z "},"i":{"ha":442,"x_min":41,"x_max":408,"o":"m 47 0 q 42 9 43 1 q 41 21 41 17 q 43 32 41 24 q 47 41 45 39 q 73 47 56 45 q 105 57 89 50 q 134 79 121 64 q 146 124 146 94 l 146 450 q 137 475 146 466 q 115 489 128 484 q 85 497 101 494 q 56 504 70 500 q 49 508 52 505 q 47 517 47 510 q 49 524 47 521 q 57 531 51 528 l 281 637 q 287 640 284 638 q 292 641 290 641 q 303 625 303 641 l 303 124 q 315 79 303 94 q 344 57 328 64 q 376 47 360 50 q 401 41 393 45 q 406 32 404 39 q 408 21 408 24 q 407 9 408 17 q 401 0 406 1 l 47 0 m 117 886 q 142 956 117 930 q 212 981 168 981 q 281 956 255 981 q 307 886 307 930 q 281 818 307 843 q 212 792 255 792 q 142 818 168 792 q 117 886 117 843 z "},"j":{"ha":443,"x_min":-168,"x_max":303,"o":"m 281 635 q 287 638 284 637 q 292 640 290 640 q 303 623 303 640 l 303 -73 q 279 -223 303 -158 q 210 -332 254 -288 q 101 -398 165 -376 q -39 -420 38 -420 q -87 -413 -64 -420 q -128 -393 -110 -406 q -157 -366 -146 -381 q -168 -334 -168 -350 q -164 -313 -168 -323 q -154 -293 -161 -302 q -137 -279 -147 -285 q -113 -274 -127 -274 q -105 -275 -109 -274 q -91 -281 -100 -276 q -64 -299 -81 -287 q -18 -334 -47 -311 q 0 -345 -9 -341 q 19 -351 9 -349 q 42 -354 29 -353 q 74 -355 56 -355 q 112 -338 98 -355 q 134 -298 126 -321 q 143 -248 141 -274 q 146 -201 146 -221 l 146 448 q 137 474 146 465 q 115 488 128 483 q 85 495 101 492 q 56 503 70 498 q 49 506 52 504 q 47 516 47 509 q 49 523 47 519 q 57 530 51 526 l 281 635 m 106 886 q 132 956 106 930 q 201 981 157 981 q 270 956 244 981 q 296 886 296 930 q 270 818 296 843 q 201 792 244 792 q 132 818 157 792 q 106 886 106 843 z "},"k":{"ha":867,"x_min":30,"x_max":860,"o":"m 397 20 q 396 5 397 11 q 391 0 395 0 l 37 0 q 30 20 30 1 q 37 41 30 38 q 62 47 45 45 q 94 57 78 50 q 123 79 111 64 q 135 124 135 94 l 135 924 q 126 950 135 941 q 104 964 117 959 q 75 971 90 968 q 45 979 59 975 q 38 982 41 980 q 36 992 36 985 q 38 999 36 996 q 46 1006 40 1002 l 271 1112 q 276 1114 273 1113 q 281 1116 279 1116 q 292 1099 292 1116 l 292 426 q 300 401 292 406 q 319 396 308 396 q 357 405 334 396 q 405 429 379 414 q 455 460 430 443 q 501 495 481 478 q 534 527 521 513 q 547 550 547 542 q 534 568 547 564 q 505 576 521 573 q 476 584 489 579 q 463 602 463 589 q 472 617 463 611 q 491 624 481 624 l 777 624 q 807 608 807 624 q 791 590 807 597 q 753 576 776 583 q 704 561 730 570 q 660 536 679 551 l 465 385 q 470 373 465 379 q 478 363 475 366 l 736 90 q 775 62 754 72 q 816 45 797 52 q 847 33 835 38 q 860 20 860 28 q 859 6 860 12 q 849 0 857 0 l 479 0 q 474 5 475 0 q 473 20 473 11 q 479 41 473 37 q 494 46 486 44 q 507 52 501 48 q 516 62 513 56 q 520 79 520 68 q 511 99 520 87 q 491 123 501 112 l 302 323 q 301 325 302 324 l 300 325 q 294 315 296 325 q 292 292 292 304 l 292 124 q 304 79 292 94 q 333 57 317 64 q 366 47 349 50 q 391 41 382 45 q 397 20 397 38 z "},"l":{"ha":405,"x_min":14,"x_max":381,"o":"m 381 20 q 380 9 381 16 q 374 0 378 1 l 20 0 q 15 9 16 1 q 14 20 14 16 q 16 31 14 24 q 20 40 18 39 q 45 46 29 44 q 78 56 62 49 q 106 78 94 63 q 119 123 119 94 l 119 914 q 110 940 119 930 q 87 954 101 949 q 58 961 74 958 q 28 968 43 964 q 20 987 20 972 q 22 997 20 991 q 30 1006 24 1002 l 254 1112 q 260 1114 257 1113 q 268 1116 264 1116 q 275 1112 273 1116 q 276 1099 276 1108 l 276 123 q 288 78 276 94 q 317 56 300 63 q 349 46 333 49 q 374 40 366 44 q 379 31 377 39 q 381 20 381 24 z "},"m":{"ha":1278,"x_min":28,"x_max":1275,"o":"m 269 658 q 275 661 272 659 q 279 662 278 662 q 291 646 291 662 l 291 533 q 296 529 292 529 q 306 532 300 529 q 366 565 336 548 q 424 597 395 583 q 484 620 454 611 q 544 629 513 629 q 595 621 574 629 q 631 602 616 614 q 654 576 645 590 q 670 549 663 562 q 673 544 671 547 q 678 538 675 541 q 684 532 681 534 q 690 530 687 530 q 710 536 700 530 q 818 588 776 569 q 887 615 859 606 q 935 627 916 625 q 975 629 954 629 q 1043 614 1015 629 q 1092 577 1072 600 q 1123 523 1112 553 q 1141 461 1135 493 q 1149 399 1147 430 q 1152 343 1152 368 q 1151 299 1152 319 q 1148 255 1149 279 q 1146 200 1147 231 q 1145 126 1145 170 q 1153 92 1145 106 q 1172 70 1160 79 q 1198 57 1184 61 q 1226 50 1213 52 q 1251 45 1240 47 q 1268 41 1262 43 q 1273 32 1271 39 q 1275 21 1275 24 q 1274 9 1275 17 q 1268 0 1272 1 l 890 0 q 884 9 886 1 q 883 21 883 17 q 885 32 883 24 q 890 41 887 39 q 915 47 899 45 q 947 57 931 50 q 976 81 964 65 q 987 130 987 98 l 987 132 q 992 178 991 153 q 993 234 993 203 q 992 262 993 249 q 992 289 992 275 q 992 319 992 303 q 991 357 991 336 q 988 423 991 390 q 974 483 985 456 q 939 526 962 509 q 875 543 916 543 q 860 541 868 543 q 838 534 852 539 q 800 519 823 529 q 737 492 776 509 q 726 485 732 489 q 720 473 720 480 l 720 126 q 732 80 720 96 q 760 57 744 64 q 793 47 777 50 q 818 41 809 45 q 823 32 821 39 q 825 21 825 24 q 823 9 825 17 q 818 0 822 1 l 464 0 q 458 9 460 1 q 457 21 457 17 q 459 32 457 24 q 464 41 461 39 q 489 47 473 45 q 522 57 505 50 q 550 80 538 64 q 562 126 562 96 l 562 422 q 558 470 562 448 q 543 508 554 492 q 510 533 531 524 q 456 542 490 542 q 417 533 441 542 q 369 512 393 525 q 322 485 344 499 q 291 458 301 471 l 291 126 q 303 80 291 96 q 332 57 315 64 q 364 47 348 50 q 389 41 380 45 q 394 32 392 39 q 396 21 396 24 q 395 9 396 17 q 389 0 393 1 l 35 0 q 30 9 31 1 q 28 21 28 17 q 31 32 28 24 q 35 41 33 39 q 60 47 44 45 q 93 57 77 50 q 121 79 109 64 q 134 125 134 94 l 134 470 q 125 495 134 486 q 102 509 116 505 q 73 517 89 514 q 43 524 58 520 q 37 528 39 526 q 35 538 35 530 q 37 545 35 541 q 45 551 39 548 l 269 658 z "},"n":{"ha":892,"x_min":35,"x_max":879,"o":"m 276 658 q 282 661 279 659 q 286 662 285 662 q 298 646 298 662 l 298 540 q 303 533 300 533 q 309 533 307 533 q 314 536 311 534 q 388 573 357 558 q 440 599 418 589 q 479 615 462 610 q 514 624 496 621 q 553 628 532 627 q 604 629 574 629 q 662 614 637 629 q 703 577 686 600 q 730 523 720 553 q 746 461 741 493 q 753 399 751 430 q 755 343 755 368 q 754 299 755 319 q 752 255 753 279 q 750 200 751 231 q 749 126 749 170 q 757 92 749 106 q 776 70 764 79 q 802 57 788 61 q 830 50 817 52 q 855 45 844 47 q 872 41 866 43 q 877 32 875 39 q 879 21 879 24 q 878 9 879 17 q 872 0 876 1 l 494 0 q 488 9 490 1 q 487 21 487 17 q 489 32 487 24 q 494 41 491 39 q 517 47 503 45 q 547 58 532 50 q 575 82 562 66 q 591 132 587 99 q 594 151 593 142 q 595 169 595 159 q 596 189 596 178 q 597 214 597 199 q 596 279 597 244 q 595 356 595 313 q 592 422 595 389 q 577 480 589 454 q 543 522 566 506 q 479 538 519 538 q 453 537 465 538 q 426 529 442 535 q 385 511 410 523 q 315 477 359 498 q 304 470 310 474 q 298 458 298 465 l 298 126 q 310 80 298 96 q 338 57 322 64 q 371 47 355 50 q 396 41 387 45 q 401 32 399 39 q 403 21 403 24 q 401 9 403 17 q 396 0 400 1 l 42 0 q 37 9 38 1 q 35 21 35 17 q 37 32 35 24 q 42 41 39 39 q 67 47 51 45 q 100 57 83 50 q 128 80 116 64 q 140 126 140 96 l 140 471 q 132 496 140 487 q 109 510 123 505 q 80 518 96 515 q 50 525 64 521 q 44 529 46 526 q 41 538 41 531 q 43 545 41 542 q 52 552 45 549 l 276 658 z "},"o":{"ha":812,"x_min":51,"x_max":761,"o":"m 51 317 q 79 439 51 380 q 155 542 107 497 q 265 613 202 587 q 398 640 328 640 q 537 614 471 640 q 653 546 603 589 q 732 443 703 502 q 761 314 761 383 q 734 183 761 243 q 660 77 707 122 q 547 7 612 33 q 404 -18 481 -18 q 263 8 328 -18 q 151 79 198 34 q 77 185 104 124 q 51 317 51 246 m 224 359 q 230 284 224 323 q 246 208 235 245 q 274 138 257 171 q 313 81 290 106 q 366 42 336 56 q 431 28 395 28 q 500 48 471 28 q 548 102 529 69 q 575 177 566 136 q 584 260 584 218 q 578 330 584 293 q 559 403 572 367 q 530 473 547 439 q 489 531 512 506 q 436 572 465 557 q 374 587 408 587 q 308 566 336 587 q 261 512 279 545 q 234 439 243 479 q 224 359 224 399 z "},"p":{"ha":791,"x_min":8,"x_max":716,"o":"m 249 658 q 255 661 252 659 q 259 662 258 662 q 271 646 271 662 l 271 574 q 274 568 271 570 q 279 566 277 566 q 285 568 282 566 q 291 571 288 570 q 340 598 318 587 q 381 616 361 610 q 422 625 401 623 q 469 628 443 628 q 573 601 527 628 q 650 529 618 573 q 699 429 682 484 q 716 317 716 373 q 705 234 716 275 q 673 156 693 193 q 624 87 652 119 q 561 32 595 55 q 488 -5 527 8 q 408 -18 449 -18 q 348 -14 377 -18 q 285 -3 319 -10 q 272 -11 273 -3 q 271 -28 271 -19 l 271 -304 q 279 -337 271 -323 q 301 -358 288 -350 q 330 -371 314 -367 q 361 -378 346 -376 q 388 -383 376 -381 q 406 -387 400 -385 q 413 -396 413 -390 q 406 -407 413 -406 l 15 -407 q 8 -396 8 -406 q 15 -387 8 -390 q 40 -381 24 -383 q 73 -371 56 -378 q 101 -349 89 -364 q 113 -304 113 -334 l 113 471 q 104 496 113 487 q 82 510 96 505 q 53 518 68 515 q 23 525 37 521 q 17 529 19 526 q 14 538 14 531 q 16 545 14 542 q 24 552 18 549 l 249 658 m 409 551 q 342 541 372 551 q 281 508 312 531 q 278 506 279 507 q 275 503 276 504 l 271 498 l 271 136 q 271 125 271 134 q 273 109 272 116 q 291 82 275 94 q 327 62 307 71 q 367 49 347 54 q 399 45 387 45 q 474 61 444 45 q 524 105 505 77 q 552 169 543 132 q 560 247 560 205 q 557 314 560 279 q 546 382 553 349 q 527 447 539 416 q 499 500 515 477 q 460 537 482 524 q 409 551 437 551 z "},"q":{"ha":795,"x_min":68,"x_max":789,"o":"m 684 -304 q 696 -349 684 -334 q 725 -371 709 -364 q 758 -381 741 -378 q 783 -387 774 -383 q 789 -396 789 -390 q 783 -407 789 -406 l 368 -407 q 361 -396 361 -406 q 368 -387 361 -390 q 388 -383 374 -385 q 419 -378 401 -381 q 456 -371 437 -376 q 491 -358 475 -367 q 517 -337 507 -350 q 527 -304 527 -324 l 527 47 q 526 51 527 51 q 524 52 526 52 q 512 46 521 52 q 453 13 476 26 q 410 -6 429 1 q 370 -16 390 -14 q 322 -18 351 -18 q 224 7 270 -18 q 143 75 178 32 q 88 173 109 117 q 68 290 68 229 q 97 434 68 369 q 176 544 127 498 q 289 615 225 590 q 420 640 352 640 q 505 629 465 640 q 583 597 545 618 l 588 597 q 610 604 597 597 q 635 621 623 612 q 659 638 648 630 q 673 646 669 646 l 680 646 q 683 645 682 646 q 684 642 684 645 l 684 -304 m 527 425 q 491 549 527 511 q 393 588 455 588 q 329 566 360 588 q 274 503 298 543 q 236 406 250 463 q 222 281 222 349 q 238 190 222 231 q 281 122 255 150 q 338 79 307 94 q 400 64 370 64 q 489 83 445 64 q 515 102 503 89 q 527 123 527 115 l 527 425 z "},"r":{"ha":558,"x_min":35,"x_max":558,"o":"m 276 637 q 282 640 279 638 q 286 641 285 641 q 298 625 298 641 l 298 509 q 298 504 298 507 q 302 501 298 501 q 307 504 305 501 q 311 508 309 506 q 339 544 323 524 q 371 582 354 564 q 407 611 389 600 q 443 623 425 623 q 475 616 455 623 q 513 601 494 610 q 545 582 532 591 q 558 566 558 572 q 552 543 558 559 q 537 509 546 526 q 517 479 528 492 q 498 466 507 466 l 496 466 q 472 476 484 470 q 446 487 459 481 q 420 497 433 493 q 393 500 407 500 q 355 492 373 500 q 325 470 338 484 q 305 441 313 457 q 298 410 298 425 l 298 123 q 306 91 298 104 q 328 69 315 77 q 357 56 341 60 q 388 49 373 52 q 415 44 403 46 q 433 40 427 43 q 440 21 440 37 q 433 0 440 1 l 42 0 q 35 21 35 1 q 42 40 35 37 q 67 46 51 44 q 100 56 83 49 q 128 78 116 63 q 140 123 140 94 l 140 450 q 132 475 140 466 q 109 489 123 484 q 80 497 96 494 q 50 504 64 500 q 44 508 46 505 q 41 517 41 510 q 43 524 41 521 q 52 531 45 528 l 276 637 z "},"s":{"ha":514,"x_min":44,"x_max":463,"o":"m 134 4 q 123 1 127 4 q 114 -7 118 -3 q 105 -15 109 -12 q 96 -18 101 -18 l 71 -18 q 67 1 70 -18 q 61 48 64 21 q 56 105 58 76 q 54 155 54 135 q 62 169 54 165 q 79 172 70 172 q 89 168 83 172 q 100 160 95 165 q 109 149 105 155 q 115 140 113 144 q 138 94 127 115 q 165 60 150 74 q 200 38 180 45 q 249 30 220 30 q 284 37 271 30 q 305 57 298 45 q 315 85 313 69 q 317 117 317 100 q 297 175 317 151 q 247 218 277 198 q 181 260 216 239 q 115 309 145 281 q 64 375 85 336 q 44 469 44 413 q 64 533 44 502 q 117 587 85 564 q 190 625 150 611 q 271 640 231 640 q 313 636 292 640 q 352 627 334 632 q 383 618 370 623 q 399 611 395 613 q 407 601 404 608 q 411 578 410 593 q 412 536 412 562 q 412 468 412 510 q 404 451 412 456 q 387 446 395 446 q 373 449 380 446 q 363 458 366 452 q 345 500 355 479 q 322 539 335 522 q 291 567 309 556 q 250 577 273 577 q 223 574 237 577 q 199 561 210 570 q 181 534 188 551 q 175 490 175 517 q 196 448 175 467 q 250 408 218 428 q 319 365 281 388 q 389 312 357 342 q 442 243 420 282 q 463 151 463 204 q 443 80 463 112 q 391 27 422 49 q 320 -6 359 5 q 243 -18 281 -18 q 205 -15 224 -18 q 171 -7 186 -12 q 145 1 155 -3 q 134 4 135 4 z "},"t":{"ha":490,"x_min":31,"x_max":473,"o":"m 102 523 l 52 523 q 37 528 42 523 q 31 538 31 532 q 32 545 31 541 q 35 551 33 549 q 65 571 49 559 q 96 596 81 583 q 127 622 112 609 q 153 646 142 635 q 172 668 160 653 q 199 697 184 683 q 232 723 214 712 q 268 734 250 734 q 277 732 272 734 q 283 725 283 729 q 280 710 283 720 q 275 688 278 701 q 267 663 271 676 q 260 636 263 649 q 261 627 260 631 q 271 623 263 624 l 444 623 q 458 620 454 623 q 465 610 463 616 q 467 596 466 606 q 470 573 469 585 q 472 548 471 560 q 473 527 473 535 q 468 523 473 523 l 264 523 q 260 522 260 523 q 260 517 260 520 l 260 180 q 265 142 260 158 q 279 115 271 125 q 298 98 288 104 q 320 93 309 93 q 371 102 351 93 q 405 122 391 111 q 430 142 419 133 q 454 151 441 151 q 466 144 464 151 q 467 132 467 136 q 465 118 467 123 q 461 111 463 113 q 454 99 460 109 q 435 75 447 89 q 407 44 424 60 q 370 14 391 28 q 326 -9 350 0 q 275 -18 302 -18 q 207 -5 239 -18 q 152 32 175 9 q 116 83 129 54 q 102 144 102 113 l 102 523 z "},"u":{"ha":814,"x_min":27,"x_max":773,"o":"m 111 495 q 93 529 109 515 q 59 547 77 543 q 48 548 54 548 q 38 550 43 549 q 30 553 33 551 q 27 562 27 555 q 29 571 27 567 q 38 577 31 575 l 245 637 q 253 639 249 638 q 262 640 258 640 q 269 628 269 640 l 269 170 q 279 129 269 147 q 307 97 290 110 q 345 77 323 84 q 390 71 367 71 q 424 76 406 71 q 458 90 441 81 q 488 110 474 98 q 511 133 503 121 l 511 496 q 493 529 509 515 q 459 547 477 543 q 449 549 454 549 q 438 550 443 549 q 430 554 433 551 q 427 562 427 556 q 429 572 427 568 q 438 578 431 576 l 645 637 q 653 639 649 638 q 662 640 658 640 q 669 633 669 640 l 669 165 q 686 123 672 136 q 730 110 699 110 l 769 113 q 772 103 772 113 q 773 90 773 94 q 771 81 773 89 q 763 71 770 74 l 557 -14 q 550 -17 555 -15 q 544 -18 545 -18 q 538 -13 539 -18 q 537 -1 537 -7 l 537 64 q 530 66 535 66 q 528 66 529 66 q 526 65 526 66 l 418 12 q 390 2 403 7 q 365 -8 377 -3 q 338 -16 352 -13 q 307 -18 323 -18 q 244 -13 278 -18 q 180 6 210 -7 q 131 38 151 18 q 111 85 111 58 l 111 495 l 111 495 z "},"v":{"ha":766,"x_min":0,"x_max":760,"o":"m 325 -18 q 316 -11 319 -18 q 310 3 312 -3 l 126 501 q 93 556 115 532 q 40 589 71 579 q 28 591 35 591 q 15 593 22 592 q 4 598 9 595 q 0 609 0 602 q 3 622 0 616 q 15 627 7 627 l 372 627 q 377 620 376 627 q 378 611 378 613 q 371 598 378 602 q 352 595 363 595 q 328 594 340 594 q 303 591 315 595 q 284 579 292 588 q 277 553 277 571 q 279 545 277 551 q 281 537 281 538 l 416 168 q 420 158 417 165 q 429 152 423 152 q 434 155 431 152 q 439 162 437 158 q 443 170 441 166 q 445 175 444 174 q 498 312 477 256 q 534 406 520 368 q 556 464 549 443 q 568 497 564 486 q 572 514 571 509 q 572 524 572 519 q 557 563 572 547 q 521 586 543 578 q 506 587 515 587 q 488 589 496 587 q 473 594 479 590 q 467 608 467 598 q 472 618 467 613 q 483 624 477 624 l 753 624 q 759 619 758 623 q 760 607 760 614 q 758 600 760 602 q 752 596 757 597 q 738 593 747 594 q 713 589 728 591 q 687 575 699 586 q 667 549 676 564 q 651 518 658 534 q 638 489 644 502 q 561 289 592 371 q 508 153 529 207 q 475 68 487 98 q 457 23 463 38 q 450 5 451 8 q 448 1 448 1 q 443 -11 446 -3 q 433 -18 439 -18 l 325 -18 l 325 -18 z "},"w":{"ha":1168,"x_min":5,"x_max":1148,"o":"m 326 -18 q 317 -11 321 -18 q 311 3 313 -3 l 132 489 q 98 544 120 520 q 45 577 77 567 q 34 580 41 578 q 21 585 27 582 q 10 592 14 587 q 5 604 5 596 q 9 617 5 610 q 22 624 14 624 l 378 624 q 382 616 382 624 q 383 606 383 608 q 376 592 383 596 q 357 588 368 589 q 334 586 347 587 q 310 581 321 585 q 292 568 299 577 q 284 541 284 559 q 285 533 284 539 q 286 525 286 526 l 416 169 q 421 159 418 165 q 429 153 424 153 q 435 156 432 153 q 440 163 438 159 q 444 171 442 167 q 446 176 445 174 l 564 489 q 530 544 552 520 q 477 577 509 567 q 466 580 473 578 q 453 585 459 582 q 442 592 446 587 q 437 604 437 596 q 441 617 437 610 q 454 624 446 624 l 810 624 q 815 616 814 624 q 816 606 816 608 q 808 592 816 596 q 790 588 801 589 q 766 586 779 587 q 743 581 753 585 q 724 568 732 577 q 717 541 717 559 q 718 533 717 539 q 718 525 718 526 l 829 222 q 834 213 831 219 q 842 206 837 206 q 848 209 845 206 q 853 216 851 212 q 857 224 856 220 q 859 229 859 228 l 960 494 q 963 511 963 502 q 956 539 963 527 q 938 561 949 552 q 915 573 927 569 q 894 577 903 577 q 867 584 880 577 q 854 606 854 591 q 859 617 854 611 q 869 624 863 624 l 1141 624 q 1147 615 1146 623 q 1148 605 1148 608 q 1147 597 1148 600 q 1140 590 1145 593 q 1126 585 1135 587 q 1102 580 1117 583 q 1076 566 1087 577 q 1056 540 1065 555 q 1040 509 1046 525 q 1027 480 1033 493 q 950 280 981 361 q 898 146 918 199 q 866 64 877 93 q 849 21 854 35 q 843 4 844 7 q 842 1 842 1 q 836 -11 840 -3 q 827 -18 833 -18 l 758 -18 q 749 -11 753 -18 q 743 3 745 -3 l 596 400 l 442 1 q 436 -11 440 -3 q 427 -18 433 -18 l 326 -18 l 326 -18 z "},"x":{"ha":753,"x_min":12,"x_max":736,"o":"m 333 624 q 338 619 337 624 q 338 612 338 614 q 328 605 338 607 q 305 598 317 602 q 283 587 293 595 q 273 565 273 580 q 274 553 273 559 q 279 543 275 547 l 368 434 q 379 421 373 428 q 390 414 385 414 q 399 420 393 414 l 478 515 q 491 533 487 526 q 495 554 495 541 q 484 582 495 574 q 460 594 473 590 q 436 601 447 597 q 425 616 425 604 q 426 621 425 618 q 433 624 427 624 l 659 624 q 663 622 663 624 q 664 612 664 621 q 663 606 664 610 q 659 600 663 602 q 625 588 639 594 q 598 572 610 581 q 575 552 586 564 q 550 524 564 540 l 426 376 q 424 371 424 372 q 423 365 423 369 l 667 62 q 686 48 674 53 q 709 38 698 43 q 728 27 720 33 q 736 12 736 22 q 735 4 736 6 q 728 0 734 2 l 413 0 q 407 5 408 0 q 406 13 406 11 q 417 23 406 22 q 443 27 429 25 q 468 35 456 29 q 479 60 479 41 q 473 77 479 69 q 462 90 467 84 l 345 227 q 337 239 340 235 q 324 243 334 243 q 311 236 316 243 q 300 223 306 229 l 201 104 q 189 84 192 94 q 186 67 186 73 q 196 46 186 55 q 218 31 205 37 q 243 22 231 25 q 264 20 256 20 q 268 16 267 20 q 269 9 269 13 q 268 3 269 6 q 264 0 267 0 l 33 0 q 24 3 26 0 q 22 12 22 6 q 33 25 22 18 q 58 38 44 32 q 86 52 72 45 q 106 66 100 59 l 292 292 l 71 570 q 56 582 66 576 q 36 591 46 587 q 19 600 26 595 q 12 610 12 605 q 28 624 13 624 l 333 624 z "},"y":{"ha":790,"x_min":-17,"x_max":773,"o":"m 224 -420 q 201 -416 212 -420 q 180 -405 189 -412 q 164 -388 170 -397 q 159 -366 159 -378 q 169 -336 159 -347 q 193 -319 178 -326 q 222 -308 207 -313 q 249 -295 238 -303 q 265 -282 256 -290 q 280 -260 273 -275 l 369 -53 l 109 489 q 76 544 98 520 q 23 577 54 567 q 12 580 18 578 q -2 585 5 582 q -13 592 -8 587 q -17 604 -17 596 q -13 617 -17 610 q -1 624 -9 624 l 357 624 q 362 616 361 624 q 363 606 363 608 q 355 592 363 596 q 336 587 347 589 q 311 585 324 586 q 286 581 298 585 q 267 568 275 576 q 259 541 259 559 q 262 533 259 539 q 265 525 265 526 l 433 165 q 438 155 435 161 q 447 149 442 149 q 452 152 450 149 q 457 159 455 155 q 460 166 459 163 q 463 172 462 170 q 515 307 494 252 q 550 399 536 363 q 571 457 564 436 q 582 489 578 477 q 585 505 585 500 q 586 515 586 510 q 572 554 587 538 q 534 577 556 570 q 519 580 528 579 q 502 584 510 581 q 487 591 493 586 q 480 606 480 596 q 485 617 480 611 q 495 624 490 624 l 766 624 q 772 616 771 624 q 773 605 773 608 q 772 597 773 600 q 765 591 770 593 q 751 585 760 588 q 727 580 742 583 q 701 566 713 577 q 681 540 690 555 q 664 509 671 526 q 652 480 657 493 l 308 -372 q 292 -394 302 -385 q 270 -409 282 -403 q 245 -418 258 -415 q 224 -420 233 -420 z "},"z":{"ha":678,"x_min":42,"x_max":662,"o":"m 42 14 q 42 22 42 19 q 46 31 43 24 l 380 486 q 392 502 387 495 q 397 519 397 509 q 389 522 398 521 q 365 524 379 523 q 335 525 351 524 q 309 525 319 525 l 197 525 q 158 515 174 525 q 131 489 142 505 q 113 456 120 474 q 99 423 105 438 q 87 397 93 408 q 73 387 81 387 q 64 388 71 387 q 56 390 56 388 l 97 629 q 107 636 98 635 q 121 637 116 637 q 131 633 126 637 q 140 622 135 628 q 151 612 145 616 q 166 607 157 607 q 193 606 176 607 q 235 604 210 605 q 296 602 260 603 q 382 602 332 602 q 430 602 403 602 q 489 603 458 602 q 555 604 521 604 q 621 606 589 605 q 627 600 625 604 q 628 590 628 595 q 625 579 628 589 q 617 566 621 569 l 274 99 q 269 92 271 95 q 267 83 267 88 q 267 79 267 80 q 271 78 267 78 l 505 78 q 537 86 523 78 q 565 106 552 94 q 587 132 577 118 q 607 157 597 145 q 625 177 616 170 q 642 185 633 185 q 654 183 646 185 q 662 177 662 181 l 606 31 q 602 23 604 28 q 597 13 600 18 q 590 4 594 7 q 580 0 585 0 l 57 0 q 42 14 42 0 z "},"{":{"ha":769,"x_min":140,"x_max":628,"o":"m 140 476 q 153 507 140 496 q 185 518 166 518 q 243 541 222 518 q 264 616 264 564 q 255 694 264 656 q 237 771 247 733 q 218 849 227 810 q 210 928 210 888 q 226 1011 210 975 q 271 1076 243 1048 q 337 1123 300 1103 q 415 1154 374 1142 q 497 1171 456 1166 q 577 1177 539 1177 q 616 1168 604 1177 q 628 1143 628 1160 q 624 1123 628 1131 q 614 1112 621 1116 q 598 1106 607 1107 q 580 1103 590 1104 q 503 1092 539 1101 q 439 1062 467 1082 q 396 1011 412 1042 q 380 936 380 980 q 384 857 380 896 q 394 772 387 818 q 402 713 399 742 q 406 654 406 684 q 401 613 406 633 q 389 578 396 594 q 372 549 381 562 q 355 528 363 536 q 342 516 350 522 q 329 503 335 509 q 317 489 322 496 q 313 476 313 482 q 318 462 313 470 q 331 446 323 454 q 346 431 338 438 q 357 420 353 424 q 373 398 365 411 q 389 369 382 385 q 401 334 396 353 q 406 294 406 315 q 402 241 406 273 q 391 165 398 210 q 383 90 386 128 q 380 17 380 51 q 390 -51 380 -22 q 417 -103 400 -81 q 455 -140 433 -125 q 500 -164 476 -155 q 547 -177 524 -173 q 592 -180 571 -180 q 622 -191 616 -180 q 628 -220 628 -201 q 619 -245 628 -236 q 592 -254 610 -254 q 518 -250 559 -254 q 435 -235 477 -245 q 352 -205 393 -224 q 280 -157 311 -186 q 229 -88 248 -128 q 210 5 210 -48 q 218 81 210 43 q 237 157 227 119 q 255 233 247 195 q 264 307 264 271 q 259 356 264 333 q 245 396 255 379 q 220 425 235 414 q 181 437 204 435 q 152 452 163 441 q 140 476 140 463 z "},"|":{"ha":333,"x_min":102,"x_max":231,"o":"m 102 1116 l 231 1116 l 231 -24 l 102 -24 l 102 1116 z "},"}":{"ha":769,"x_min":141,"x_max":629,"o":"m 629 476 q 617 452 629 463 q 588 437 606 441 q 549 425 565 435 q 524 396 534 414 q 510 356 514 379 q 505 307 505 333 q 514 233 505 271 q 532 157 522 195 q 551 81 543 119 q 559 5 559 43 q 540 -88 559 -48 q 489 -157 521 -128 q 417 -205 458 -186 q 334 -235 376 -224 q 251 -250 292 -245 q 177 -254 210 -254 q 150 -245 159 -254 q 141 -220 141 -236 q 147 -191 141 -201 q 177 -180 153 -180 q 245 -171 208 -180 q 314 -140 283 -162 q 367 -79 346 -117 q 389 17 389 -41 q 386 90 389 51 q 378 165 383 128 q 368 241 372 209 q 363 294 363 274 q 368 334 363 315 q 379 369 372 353 q 395 398 387 385 q 410 419 403 411 q 422 431 414 424 q 438 446 430 438 q 451 462 446 454 q 456 476 456 470 q 452 488 456 481 q 440 502 447 495 q 427 516 433 509 q 415 527 420 522 q 398 549 407 536 q 381 578 389 562 q 369 613 374 594 q 363 654 363 633 q 367 713 363 684 q 375 772 370 742 q 386 857 382 818 q 389 936 389 896 q 371 1011 389 980 q 326 1063 354 1043 q 260 1093 297 1084 q 185 1103 224 1103 q 151 1114 161 1103 q 141 1143 141 1124 q 150 1168 141 1160 q 185 1177 158 1177 q 272 1171 228 1177 q 358 1154 317 1166 q 437 1123 400 1142 q 500 1076 473 1103 q 544 1011 528 1048 q 559 928 559 975 q 551 849 559 888 q 532 771 543 810 q 514 694 522 733 q 505 616 505 656 q 509 586 505 601 q 522 557 513 570 q 548 534 532 545 q 589 518 564 524 q 617 505 606 516 q 629 476 629 494 z "},"~":{"ha":752,"x_min":61,"x_max":690,"o":"m 690 550 q 676 443 690 490 q 639 363 663 395 q 584 313 615 330 q 519 296 553 296 q 447 311 480 296 q 381 349 414 327 q 329 384 351 370 q 291 406 307 397 q 262 417 275 414 q 237 420 249 420 q 219 415 229 420 q 201 395 210 409 q 188 358 193 381 q 182 298 183 334 l 61 298 q 75 406 61 359 q 113 486 89 453 q 167 535 136 518 q 233 553 198 553 q 272 549 252 553 q 318 535 292 545 q 375 506 343 524 q 450 458 408 487 q 482 437 465 447 q 515 428 499 428 q 535 434 526 428 q 553 455 545 441 q 565 493 560 470 q 570 550 570 517 l 690 550 z "},"":{"ha":373,"x_min":0,"x_max":0,"o":""},"":{"ha":369,"x_min":88,"x_max":281,"o":"m 222 296 q 212 327 221 315 q 184 338 202 338 q 157 327 167 338 q 146 296 147 315 l 96 -357 l 96 -393 q 103 -414 96 -408 q 123 -420 111 -420 q 132 -421 127 -420 q 144 -421 137 -421 q 164 -422 153 -422 q 184 -422 176 -422 q 211 -422 196 -422 q 237 -420 225 -422 q 256 -416 245 -420 q 273 -397 267 -412 l 273 -357 l 222 296 m 88 538 q 96 501 88 519 q 117 470 104 484 q 148 450 130 457 q 184 442 165 442 q 222 450 205 442 q 253 471 240 458 q 273 503 266 485 q 281 539 281 520 q 273 576 281 559 q 253 607 266 593 q 222 627 239 620 q 184 635 204 635 q 146 627 163 635 q 115 607 128 620 q 95 576 102 593 q 88 538 88 559 z "},"":{"ha":670,"x_min":61,"x_max":623,"o":"m 61 287 q 88 447 62 381 q 160 554 115 512 q 266 615 205 595 q 393 639 326 635 l 435 760 l 537 760 l 493 635 q 537 626 515 631 q 577 609 559 620 q 606 584 595 599 q 617 546 617 568 q 611 520 617 530 q 594 504 605 510 q 569 496 583 498 q 538 494 555 494 q 512 498 524 494 q 491 508 500 502 q 474 523 482 515 q 459 540 467 531 l 307 110 q 354 87 328 95 q 415 79 381 79 q 453 85 434 79 q 489 102 471 92 q 521 126 506 113 q 549 155 536 140 q 563 169 556 163 q 583 174 569 174 q 611 166 599 174 q 623 148 623 157 q 622 141 623 145 q 614 128 621 136 q 559 68 589 96 q 495 22 529 41 q 422 -7 461 3 q 339 -18 383 -18 q 265 -5 300 -18 l 181 -243 l 80 -243 l 180 41 q 131 91 153 62 q 94 151 109 119 q 70 217 78 182 q 61 287 61 252 m 225 329 q 229 266 225 296 q 240 210 233 235 l 371 578 q 298 551 326 576 q 254 490 270 526 q 231 411 237 454 q 225 329 225 368 z "},"":{"ha":753,"x_min":79,"x_max":728,"o":"m 144 422 q 115 428 126 422 q 104 444 104 434 l 104 460 q 115 475 104 469 q 144 481 126 481 l 238 481 q 213 532 225 507 q 192 585 201 558 q 178 638 183 611 q 172 695 172 666 q 193 798 172 750 q 249 880 214 845 q 331 936 284 916 q 429 956 378 956 q 529 942 481 956 q 613 906 576 929 q 673 853 650 884 q 695 788 695 823 q 691 768 695 779 q 679 750 687 758 q 659 736 671 741 q 633 730 648 730 q 601 735 614 730 q 578 750 588 741 q 559 774 568 760 q 541 806 550 788 q 515 846 528 829 q 488 876 503 864 q 456 893 473 887 q 415 899 438 899 q 374 890 395 899 q 338 865 354 881 q 311 828 321 850 q 301 782 301 806 q 308 714 301 745 q 325 654 314 683 q 348 600 335 626 q 375 549 361 574 q 393 516 385 531 q 410 481 401 500 l 519 481 q 548 475 537 481 q 559 460 559 469 l 559 444 q 548 428 559 434 q 519 422 537 422 l 434 422 q 447 373 442 397 q 451 321 451 348 q 450 284 451 304 q 445 243 448 264 q 438 202 442 222 q 427 163 433 182 q 458 137 441 150 q 493 113 475 123 q 528 97 511 103 q 562 90 546 90 q 607 106 588 90 q 640 143 627 123 q 660 182 653 163 q 667 204 667 200 l 728 204 q 722 163 727 186 q 708 114 718 139 q 682 66 698 90 q 642 23 666 42 q 586 -7 618 5 q 511 -18 553 -18 q 464 -11 486 -18 q 423 8 441 -3 q 389 32 404 19 q 364 55 374 44 q 336 28 352 41 q 302 5 321 15 q 262 -12 283 -5 q 217 -18 241 -18 q 155 -9 181 -18 q 112 17 129 1 q 87 54 95 33 q 79 98 79 75 q 92 152 79 127 q 129 195 106 177 q 181 223 152 213 q 242 233 210 233 q 291 228 271 233 q 326 218 312 223 l 326 221 q 321 275 326 248 q 308 327 316 302 q 290 377 300 353 q 269 422 279 401 l 144 422 m 159 95 q 163 72 159 83 q 173 52 166 61 q 189 38 180 43 q 210 33 198 33 q 244 43 228 33 q 272 68 260 54 q 293 98 285 83 q 306 123 302 113 q 290 140 299 131 q 271 157 281 149 q 248 169 260 164 q 220 174 235 174 q 197 168 208 174 q 178 151 186 161 q 164 125 170 140 q 159 95 159 111 z "},"":{"ha":711,"x_min":22,"x_max":690,"o":"m 156 334 q 127 394 138 364 q 117 463 117 425 q 128 534 117 504 q 163 595 140 564 l 28 730 l 95 798 l 231 661 q 261 680 246 672 q 291 694 275 688 q 323 702 306 699 q 360 705 340 705 q 428 694 397 705 q 488 665 458 684 l 622 798 l 688 732 l 555 598 q 576 567 566 583 q 592 536 585 552 q 602 502 598 519 q 606 463 606 484 q 593 391 606 422 q 561 329 581 359 l 690 199 l 623 133 l 494 262 q 431 229 463 241 q 360 218 400 218 q 285 231 317 218 q 220 266 252 243 q 189 235 207 253 q 153 198 172 217 q 117 162 134 180 q 88 134 100 145 l 22 201 l 156 334 m 217 463 q 228 404 217 431 q 257 358 238 377 q 302 328 275 338 q 360 317 328 317 q 419 328 392 317 q 465 358 446 338 q 495 404 484 377 q 505 463 505 431 q 495 521 505 494 q 465 566 484 547 q 419 595 446 585 q 360 606 392 606 q 302 595 328 606 q 257 566 275 585 q 228 521 238 547 q 217 463 217 494 z "},"":{"ha":1108,"x_min":3,"x_max":1105,"o":"m 193 349 q 178 366 178 349 l 178 418 q 193 435 178 435 l 422 435 l 203 785 q 179 822 192 804 q 150 858 165 841 q 115 887 134 874 q 75 905 96 899 q 64 907 71 905 q 48 910 56 909 q 33 913 40 911 q 22 915 25 914 q 9 923 15 916 q 3 937 3 931 q 3 942 3 939 q 4 948 3 945 q 7 954 5 951 q 13 956 9 956 l 473 956 q 483 949 481 956 q 485 937 485 943 q 484 923 485 930 q 476 916 483 916 q 441 913 458 914 q 414 906 425 911 q 395 891 402 901 q 389 863 389 881 q 397 833 389 846 l 604 501 q 613 487 611 490 q 621 484 616 484 q 630 490 626 484 q 639 504 633 495 l 802 781 q 822 816 812 797 q 831 854 831 835 q 826 885 831 873 q 811 902 821 896 q 786 911 801 908 q 753 916 772 913 q 744 924 745 916 q 743 937 743 931 q 744 949 743 942 q 754 956 746 956 l 1095 956 q 1103 948 1101 956 q 1105 937 1105 941 q 1100 926 1105 930 q 1089 918 1096 921 q 1076 913 1083 915 q 1063 910 1069 911 q 1004 885 1029 903 q 956 842 979 868 q 946 831 952 839 q 939 823 939 824 l 713 435 l 947 435 q 957 430 954 435 q 961 418 961 425 l 961 366 q 957 354 961 359 q 947 349 953 349 l 676 349 l 676 271 l 949 271 q 958 266 954 270 q 961 254 961 261 l 961 203 q 957 191 961 195 q 947 186 953 186 l 676 186 l 676 132 q 697 69 676 92 q 772 41 718 47 q 791 41 779 41 q 810 41 802 41 q 815 39 814 41 q 816 35 816 37 l 816 5 q 815 2 816 4 q 810 0 814 0 l 349 0 q 344 2 345 0 q 343 5 343 4 l 343 35 q 344 39 343 37 q 349 41 345 41 q 368 41 356 41 q 387 41 380 41 q 462 69 441 47 q 483 132 483 92 l 483 186 l 193 186 q 178 203 178 186 l 178 254 q 193 271 178 271 l 483 271 l 483 335 q 481 342 483 339 l 476 349 l 193 349 l 193 349 z "},"":{"ha":570,"x_min":224,"x_max":347,"o":"m 347 1116 l 347 607 l 224 607 l 224 1116 l 347 1116 m 347 486 l 347 -24 l 224 -24 l 224 486 l 347 486 z "},"":{"ha":789,"x_min":61,"x_max":701,"o":"m 326 759 q 370 693 344 728 q 425 617 395 657 q 518 489 469 558 q 608 341 567 419 q 675 179 648 264 q 701 5 701 94 q 691 -79 701 -35 q 660 -166 681 -123 q 606 -251 639 -210 q 529 -324 574 -292 q 428 -377 485 -356 q 300 -404 370 -399 q 258 -399 281 -404 q 210 -387 235 -395 q 163 -368 186 -379 q 122 -342 140 -357 q 93 -312 104 -328 q 81 -277 81 -295 q 84 -256 81 -268 q 95 -234 86 -245 q 121 -216 104 -224 q 169 -209 138 -209 q 201 -217 186 -209 q 230 -238 216 -225 q 258 -264 243 -250 q 287 -291 272 -279 q 319 -312 302 -304 q 357 -320 336 -320 q 401 -313 376 -320 q 446 -291 425 -305 q 481 -255 467 -276 q 496 -208 496 -234 q 489 -172 496 -192 q 474 -133 483 -153 q 455 -97 465 -114 q 437 -69 445 -80 q 375 21 405 -21 q 316 104 345 64 q 214 250 260 182 q 133 387 167 319 q 80 527 99 455 q 61 682 61 599 q 72 764 61 719 q 105 855 83 809 q 160 945 127 901 q 237 1022 193 988 q 335 1076 280 1056 q 454 1097 389 1097 q 495 1093 472 1097 q 544 1081 519 1088 q 593 1062 569 1074 q 637 1037 618 1051 q 669 1006 656 1023 q 681 970 681 989 q 679 950 681 962 q 668 928 676 939 q 642 909 659 917 q 593 902 624 902 q 562 910 576 902 q 533 931 547 918 q 505 958 519 943 q 476 984 491 972 q 444 1005 460 997 q 406 1013 427 1013 q 362 1006 387 1013 q 317 984 338 998 q 281 949 296 970 q 267 901 267 928 q 272 866 267 885 q 286 828 277 847 q 304 792 294 809 q 325 761 315 774 l 326 759 m 252 703 q 235 729 243 713 q 218 761 227 744 q 203 796 210 778 q 190 832 196 814 q 165 753 173 793 q 157 672 157 713 q 162 606 157 639 q 180 542 168 573 q 211 459 189 505 q 263 366 233 414 q 327 266 292 317 q 394 167 361 215 q 457 75 426 121 q 511 -8 488 29 q 526 -35 518 -20 q 543 -69 534 -51 q 558 -107 551 -87 q 572 -145 566 -126 q 596 -77 590 -112 q 602 5 602 -41 q 601 46 602 27 q 596 82 599 64 q 590 116 593 99 q 582 152 586 134 q 553 230 574 188 q 505 318 532 273 q 445 411 477 364 q 382 502 413 458 q 309 610 344 557 q 252 703 273 663 z "},"":{"ha":529,"x_min":22,"x_max":506,"o":"m 115 741 q 79 748 96 741 q 49 767 62 755 q 30 796 37 779 q 22 832 22 812 q 30 869 22 852 q 49 899 37 886 q 79 919 62 911 q 115 926 96 926 q 152 919 135 926 q 181 899 169 911 q 201 869 194 886 q 208 832 208 852 q 201 796 208 812 q 181 767 194 779 q 152 748 169 755 q 115 741 135 741 m 413 741 q 377 748 393 741 q 347 767 360 755 q 327 796 334 779 q 320 832 320 812 q 327 869 320 852 q 347 899 334 886 q 377 919 360 911 q 413 926 393 926 q 450 919 433 926 q 479 899 467 911 q 499 869 492 886 q 506 832 506 852 q 499 796 506 812 q 479 767 492 779 q 450 748 467 755 q 413 741 433 741 z "},"":{"ha":1164,"x_min":61,"x_max":1093,"o":"m 61 490 q 79 627 61 562 q 132 751 98 693 q 212 855 165 808 q 317 936 259 902 q 440 988 374 970 q 577 1006 506 1006 q 714 988 648 1006 q 838 936 780 970 q 942 855 895 902 q 1023 751 989 808 q 1075 627 1057 693 q 1093 490 1093 562 q 1075 353 1093 419 q 1023 230 1057 288 q 942 125 989 172 q 838 45 895 79 q 714 -7 780 11 q 577 -26 648 -26 q 440 -7 506 -26 q 317 45 374 11 q 212 125 259 79 q 132 230 165 172 q 79 353 98 288 q 61 490 61 419 m 153 490 q 169 378 153 432 q 211 276 184 323 q 277 191 239 229 q 363 124 316 152 q 465 82 410 97 q 577 66 519 66 q 690 82 635 66 q 791 124 744 97 q 877 191 838 152 q 943 276 916 229 q 986 378 970 323 q 1001 490 1001 432 q 986 603 1001 549 q 943 704 970 657 q 877 790 916 751 q 791 856 838 829 q 690 899 744 884 q 577 914 635 914 q 465 899 519 914 q 363 856 410 884 q 277 790 316 829 q 211 704 239 751 q 169 603 184 657 q 153 490 153 549 m 250 482 q 261 575 250 532 q 293 656 273 619 q 343 723 314 693 q 408 773 372 752 q 484 804 444 793 q 569 815 525 815 q 642 808 607 815 q 713 791 676 801 q 726 787 720 789 q 739 782 733 784 q 749 778 745 779 q 757 776 754 776 q 762 778 758 776 q 769 779 767 779 l 788 779 q 793 772 793 779 l 793 628 q 791 624 793 625 q 783 623 789 623 q 777 624 782 623 q 770 626 772 624 q 767 631 770 627 q 762 640 765 635 q 758 647 760 644 q 755 652 755 651 q 721 708 739 686 q 681 745 703 731 q 632 766 659 760 q 576 772 606 772 q 507 763 537 772 q 455 735 477 753 q 417 693 433 718 q 393 639 402 668 q 379 576 383 610 q 374 507 374 543 q 379 433 374 470 q 395 363 385 397 q 424 301 406 330 q 465 252 441 273 q 522 219 490 231 q 595 207 555 207 q 660 218 630 207 q 715 249 690 230 q 759 293 740 268 q 792 345 779 318 q 794 348 793 347 q 797 348 795 348 l 818 348 q 821 347 819 348 q 822 342 822 346 q 820 335 822 341 q 817 326 819 330 l 760 192 q 758 190 760 191 q 755 189 756 189 q 741 190 745 189 q 733 192 737 192 q 701 188 721 192 q 657 178 681 183 q 610 168 634 172 q 568 163 587 163 q 485 173 525 163 q 409 202 444 183 q 345 250 374 222 q 294 313 315 278 q 261 391 273 349 q 250 482 250 433 z "},"":{"ha":463,"x_min":27,"x_max":456,"o":"m 221 513 q 185 495 205 501 q 143 490 164 490 q 57 515 86 490 q 27 585 27 541 q 39 628 27 610 q 73 660 50 646 q 128 685 95 673 q 203 707 161 696 q 241 720 227 713 q 267 734 256 727 q 276 742 275 739 q 277 747 277 745 l 277 828 q 260 880 277 859 q 210 901 243 901 q 165 883 183 901 q 147 834 147 865 q 148 825 147 831 q 149 817 149 818 q 133 810 148 814 q 101 800 119 805 q 66 789 83 794 q 45 784 50 785 q 39 789 40 784 q 37 800 37 794 q 54 852 37 827 q 97 897 70 878 q 160 929 125 917 q 233 941 195 941 q 293 932 267 941 q 338 909 319 924 q 367 874 357 894 q 376 832 376 854 l 376 610 q 386 589 376 599 q 409 579 395 579 q 425 582 418 579 q 436 589 431 585 q 445 596 441 593 q 452 600 449 600 q 456 596 455 600 q 456 591 456 593 q 454 575 456 583 q 447 563 452 567 q 407 532 425 546 q 374 509 389 519 q 349 494 360 499 q 327 489 337 489 q 303 499 313 489 q 288 523 294 510 q 280 545 283 535 q 276 555 277 555 l 221 513 m 136 595 q 140 575 136 583 q 153 563 145 568 q 171 557 161 559 q 192 555 181 555 q 216 561 201 555 q 244 574 231 566 q 268 592 258 582 q 277 613 277 602 l 277 690 q 275 696 277 696 l 164 644 q 152 635 157 640 q 143 626 147 631 q 138 614 140 621 q 136 595 136 606 z "},"":{"ha":606,"x_min":46,"x_max":531,"o":"m 304 629 l 176 374 l 305 121 l 237 121 l 46 374 l 237 629 l 304 629 m 530 629 l 402 374 l 531 121 l 463 121 l 272 374 l 463 629 l 530 629 z "},"":{"ha":711,"x_min":46,"x_max":659,"o":"m 659 488 l 659 99 l 532 99 l 532 361 l 46 361 l 46 488 l 659 488 z "},"":{"ha":660,"x_min":58,"x_max":602,"o":"m 602 412 l 602 279 l 58 279 l 58 412 l 602 412 z "},"":{"ha":1154,"x_min":61,"x_max":1093,"o":"m 61 490 q 79 627 61 562 q 132 751 98 693 q 212 855 165 808 q 317 936 259 902 q 440 988 374 970 q 577 1006 506 1006 q 714 988 648 1006 q 838 936 780 970 q 942 855 895 902 q 1023 751 989 808 q 1075 627 1057 693 q 1093 490 1093 562 q 1075 353 1093 419 q 1023 230 1057 288 q 942 125 989 172 q 838 45 895 79 q 714 -7 780 11 q 577 -26 648 -26 q 440 -7 506 -26 q 317 45 374 11 q 212 125 259 79 q 132 230 165 172 q 79 353 98 288 q 61 490 61 419 m 153 490 q 169 378 153 432 q 211 276 184 323 q 277 191 239 229 q 363 124 316 152 q 465 82 410 97 q 577 66 519 66 q 690 82 635 66 q 791 124 744 97 q 877 191 838 152 q 943 276 916 229 q 986 378 970 323 q 1001 490 1001 432 q 986 603 1001 549 q 943 704 970 657 q 877 790 916 751 q 791 856 838 829 q 690 899 744 884 q 577 914 635 914 q 465 899 519 914 q 363 856 410 884 q 277 790 316 829 q 211 704 239 751 q 169 603 184 657 q 153 490 153 549 m 281 228 q 282 230 281 229 q 285 231 283 231 q 293 232 288 231 q 303 234 298 233 q 314 236 309 235 q 321 237 319 237 q 354 254 345 242 q 363 284 363 267 l 363 698 q 354 730 363 718 q 335 747 346 741 q 313 755 323 753 q 299 756 302 756 l 283 756 q 281 758 281 756 q 280 760 280 759 l 280 777 q 280 779 280 778 q 283 781 281 780 q 285 781 283 781 q 291 781 287 781 q 304 781 296 781 q 328 782 313 781 q 376 783 351 782 q 428 785 401 784 q 479 786 454 785 q 527 787 505 787 l 568 787 q 633 776 600 787 q 694 744 667 765 q 738 690 721 722 q 755 617 755 659 q 748 569 755 590 q 728 532 741 548 q 697 504 715 516 q 659 482 680 492 l 782 287 q 819 241 798 262 q 868 212 840 220 q 872 210 871 212 q 873 207 873 209 q 869 199 873 201 q 859 197 866 197 q 821 199 842 197 q 777 207 799 201 q 735 220 755 212 q 702 240 715 228 q 675 269 689 251 q 648 306 662 286 q 622 348 635 326 q 596 391 608 370 q 572 430 583 412 q 551 460 561 448 l 488 465 q 485 465 488 465 q 481 464 482 465 q 479 462 479 463 q 479 458 479 461 l 479 286 q 481 267 479 275 q 491 252 484 258 q 509 242 498 246 q 535 237 519 239 q 542 236 537 237 q 552 234 547 235 q 563 232 557 233 q 572 231 568 231 q 575 230 574 231 q 575 228 575 229 l 575 210 q 574 208 575 210 q 572 207 574 207 l 285 207 q 282 213 283 207 q 281 223 281 218 l 281 228 m 479 505 q 481 499 480 502 q 487 496 483 496 q 498 495 491 496 q 519 494 505 494 q 577 505 554 494 q 614 534 601 515 q 632 577 627 553 q 637 627 637 601 q 629 678 637 654 q 605 721 621 703 q 569 749 590 739 q 522 760 547 760 q 513 760 516 760 q 506 759 509 760 q 499 759 503 759 q 489 758 496 759 q 483 757 486 758 q 479 751 479 756 l 479 517 l 479 505 z "},"":{"ha":501,"x_min":18,"x_max":484,"o":"m 18 910 l 484 910 l 484 795 l 18 795 l 18 910 z "},"":{"ha":745,"x_min":200,"x_max":545,"o":"m 200 780 q 214 847 200 816 q 251 902 227 878 q 305 939 274 925 q 372 952 336 952 q 439 939 408 952 q 494 902 471 925 q 531 847 517 878 q 545 780 545 816 q 531 712 545 744 q 494 657 517 681 q 439 621 471 634 q 372 607 408 607 q 305 621 336 607 q 251 657 274 634 q 214 712 227 681 q 200 780 200 744 m 283 779 q 291 744 283 760 q 310 716 298 728 q 338 697 321 704 q 372 690 354 690 q 407 697 391 690 q 435 716 423 704 q 454 744 447 728 q 461 779 461 760 q 454 813 461 797 q 435 842 447 829 q 407 862 423 854 q 372 869 391 869 q 338 862 354 869 q 310 842 321 854 q 291 813 298 829 q 283 779 283 797 z "},"":{"ha":711,"x_min":46,"x_max":665,"o":"m 46 552 l 292 552 l 292 798 l 419 798 l 419 552 l 665 552 l 665 425 l 419 425 l 419 179 l 292 179 l 292 425 l 46 425 l 46 552 m 46 110 l 665 110 l 665 -17 l 46 -17 l 46 110 z "},"":{"ha":466,"x_min":33,"x_max":436,"o":"m 50 374 q 35 376 37 374 q 33 390 33 378 q 37 404 33 397 q 48 418 41 410 q 94 464 68 441 q 144 511 121 488 q 205 572 175 541 q 260 635 236 604 q 299 696 284 666 q 314 756 314 727 q 305 799 314 779 q 282 834 296 819 q 249 859 267 850 q 210 868 230 868 q 171 861 189 868 q 137 842 152 854 q 112 813 122 829 q 96 777 101 796 q 88 759 94 768 q 62 749 81 749 q 54 754 57 749 q 51 765 51 760 q 67 832 51 802 q 111 886 84 863 q 172 922 138 909 q 241 935 205 935 q 313 923 280 935 q 368 888 345 910 q 403 835 391 865 q 416 770 416 805 q 379 669 416 720 q 273 559 342 618 q 253 540 268 555 q 220 508 237 526 q 185 473 202 490 q 161 448 169 456 l 362 448 q 377 450 371 448 q 387 460 382 453 q 394 478 391 467 q 403 507 398 489 l 436 507 l 417 391 q 410 380 416 386 q 390 374 405 374 l 50 374 l 50 374 z "},"":{"ha":463,"x_min":31,"x_max":418,"o":"m 201 363 q 148 366 177 363 q 92 377 118 369 q 48 398 66 385 q 31 435 31 412 q 42 465 31 452 q 81 478 54 478 q 113 467 98 478 q 145 442 129 456 q 179 417 161 429 q 220 406 197 406 q 262 419 244 406 q 293 454 281 433 q 311 500 305 475 q 317 551 317 526 q 311 600 317 581 q 293 630 304 619 q 270 645 283 641 q 246 649 258 649 q 225 647 232 649 q 213 643 218 646 q 203 639 208 641 q 189 637 199 637 q 181 640 185 637 q 172 646 176 642 q 165 653 168 650 q 163 659 163 657 q 168 667 163 661 q 177 677 172 673 q 209 706 192 690 q 240 740 226 722 q 264 775 255 757 q 274 812 274 793 q 268 837 274 825 q 251 858 261 849 q 227 872 240 867 q 202 877 214 877 q 160 869 179 877 q 125 849 140 861 q 99 824 110 838 q 83 800 88 811 q 77 794 80 795 q 69 793 75 793 q 58 797 65 793 q 52 806 52 800 l 56 817 q 80 863 66 841 q 115 901 95 884 q 161 926 135 917 q 219 935 186 935 q 278 929 251 935 q 326 910 306 922 q 357 879 346 897 q 368 836 368 861 q 362 802 368 818 q 345 771 355 785 q 319 743 334 756 q 290 720 305 730 q 350 702 326 715 q 390 667 374 688 q 411 621 405 646 q 418 568 418 595 q 399 485 418 522 q 349 420 380 447 q 279 378 318 393 q 201 363 241 363 z "},"":{"ha":502,"x_min":114,"x_max":388,"o":"m 119 735 q 116 741 117 738 q 114 747 114 743 q 116 754 114 751 q 119 760 118 757 l 264 960 q 294 989 279 980 q 326 998 310 998 q 350 993 338 998 q 370 979 361 988 q 383 959 378 970 q 388 935 388 947 q 374 891 388 909 q 345 860 361 873 l 162 712 q 156 708 158 709 q 150 708 155 708 q 141 710 144 708 q 134 715 138 711 l 119 735 z "},"":{"ha":797,"x_min":105,"x_max":766,"o":"m 662 157 q 677 114 662 127 q 723 101 692 101 l 762 104 q 766 100 765 104 q 766 92 766 96 q 765 89 766 91 q 756 83 763 87 l 525 -14 q 518 -17 524 -15 q 512 -18 513 -18 q 506 -13 507 -18 q 505 -1 505 -7 l 505 52 q 502 56 505 56 q 494 54 498 56 q 432 25 457 37 q 388 6 406 14 q 358 -7 370 -2 q 336 -14 346 -12 q 316 -18 326 -17 q 294 -18 307 -18 q 265 -16 278 -18 q 237 -11 252 -14 l 237 -358 q 236 -367 237 -364 q 231 -372 235 -370 l 113 -420 q 106 -418 107 -420 q 105 -406 105 -416 l 105 610 q 106 622 105 619 q 113 624 107 624 l 254 624 q 261 622 260 624 q 262 610 262 619 l 262 174 q 273 133 262 151 q 300 101 283 114 q 339 81 317 88 q 384 75 361 75 q 408 79 392 75 q 443 91 425 83 q 478 111 461 99 q 505 137 496 122 l 505 610 q 506 622 505 619 q 513 624 507 624 l 654 624 q 661 622 660 624 q 662 610 662 619 l 662 157 z "},"":{"ha":825,"x_min":68,"x_max":801,"o":"m 494 -186 q 493 -204 494 -199 q 484 -209 491 -209 l 420 -209 q 411 -203 412 -209 q 410 -184 410 -197 l 410 566 q 345 570 381 568 q 271 581 309 573 q 196 605 233 589 q 131 646 159 620 q 85 711 102 672 q 68 806 68 750 q 87 919 68 873 q 140 996 106 965 q 224 1043 175 1026 q 334 1068 273 1060 q 465 1078 395 1076 q 614 1080 536 1080 l 784 1080 q 801 1069 801 1080 l 801 1022 q 798 1014 801 1016 q 783 1011 794 1011 l 692 1011 l 692 -197 q 690 -206 692 -203 q 681 -209 688 -209 l 618 -209 q 609 -204 610 -209 q 607 -185 607 -200 l 607 1008 l 494 1008 l 494 -186 z "},"":{"ha":410,"x_min":88,"x_max":321,"o":"m 88 460 q 97 504 88 483 q 122 542 106 526 q 160 567 138 557 q 205 576 181 576 q 250 567 229 576 q 287 542 271 557 q 312 504 303 526 q 321 460 321 483 q 312 413 321 435 q 287 376 303 392 q 250 352 271 361 q 205 343 229 343 q 160 352 181 343 q 122 376 138 361 q 97 413 106 392 q 88 460 88 435 z "},"":{"ha":526,"x_min":68,"x_max":382,"o":"m 382 10 l 288 -102 q 332 -127 314 -112 q 360 -157 349 -142 q 375 -185 370 -172 q 379 -207 379 -199 q 357 -279 379 -249 q 299 -328 334 -309 q 219 -355 263 -347 q 132 -364 176 -364 q 86 -359 105 -364 q 68 -332 68 -353 q 74 -318 68 -326 q 94 -305 81 -311 q 110 -301 100 -303 q 132 -298 120 -300 q 167 -291 148 -295 q 203 -278 186 -287 q 230 -256 219 -270 q 241 -220 241 -242 q 229 -193 241 -205 q 200 -173 217 -182 q 165 -160 183 -165 q 134 -154 146 -155 l 267 10 l 382 10 z "},"":{"ha":467,"x_min":73,"x_max":381,"o":"m 104 374 q 88 377 92 374 q 85 384 85 380 l 85 406 q 88 412 85 410 q 102 415 91 415 q 123 415 111 415 q 147 416 135 416 q 169 419 159 417 q 182 424 178 420 l 182 835 q 158 820 168 825 q 140 809 149 814 q 123 800 132 804 q 103 789 115 795 q 96 785 101 787 q 87 783 91 783 q 81 787 83 783 q 73 801 79 791 q 73 802 73 802 l 73 803 q 82 811 73 804 q 110 832 94 819 q 143 861 125 845 q 179 897 161 878 q 214 935 197 916 l 273 935 q 292 933 288 935 q 296 922 296 930 l 296 457 q 296 434 296 446 q 298 423 297 423 q 326 416 309 417 q 361 415 344 415 q 378 412 374 415 q 381 406 381 409 l 381 384 q 378 377 381 380 q 361 374 374 374 l 104 374 l 104 374 z "},"":{"ha":559,"x_min":20,"x_max":507,"o":"m 20 720 q 39 803 20 763 q 91 873 58 843 q 166 922 123 904 q 258 941 210 941 q 353 923 308 941 q 433 876 399 906 q 487 806 467 846 q 507 718 507 765 q 489 628 507 669 q 438 555 471 586 q 360 508 406 525 q 262 490 315 490 q 164 508 209 490 q 88 557 120 526 q 38 630 56 588 q 20 720 20 671 m 138 749 q 147 670 138 711 q 173 597 155 630 q 217 543 190 564 q 281 522 243 522 q 328 536 308 522 q 360 573 348 550 q 379 624 373 595 q 385 680 385 652 q 376 753 385 714 q 348 826 366 793 q 303 882 330 860 q 241 904 276 904 q 196 890 215 904 q 163 853 176 876 q 144 803 151 831 q 138 749 138 776 z "},"":{"ha":606,"x_min":75,"x_max":559,"o":"m 368 629 l 559 374 l 368 121 l 300 121 l 429 374 q 365 502 398 437 q 302 629 332 566 l 368 629 m 142 629 l 334 374 l 142 121 l 75 121 l 203 374 q 139 502 172 437 q 76 629 106 566 l 142 629 z "},"":{"ha":1116,"x_min":56,"x_max":1072,"o":"m 893 1004 l 1022 1004 l 275 -37 l 147 -37 l 893 1004 m 87 374 q 71 377 75 374 q 68 384 68 380 l 68 406 q 71 412 68 410 q 85 415 74 415 q 106 415 94 415 q 130 416 118 416 q 152 419 142 417 q 165 424 161 420 l 165 835 q 141 820 151 825 q 123 809 132 814 q 106 800 115 804 q 86 789 98 795 q 79 785 84 787 q 71 783 74 783 q 64 787 66 783 q 56 801 62 791 q 56 802 56 802 l 56 803 q 65 811 56 804 q 93 832 77 819 q 126 861 109 845 q 162 897 144 878 q 197 935 180 916 l 256 935 q 275 933 271 935 q 279 922 279 930 l 279 457 q 279 434 279 446 q 281 423 280 423 q 309 416 292 417 q 345 415 327 415 q 361 412 357 415 q 364 406 364 409 l 364 384 q 361 377 364 380 q 345 374 357 374 l 87 374 l 87 374 m 630 183 q 631 194 630 192 l 899 568 q 906 573 901 571 q 919 575 912 574 q 931 576 926 576 q 939 576 937 576 q 950 576 943 576 q 965 575 958 576 q 978 572 972 574 q 984 566 984 570 l 984 248 q 991 238 984 238 l 1059 238 q 1068 237 1064 238 q 1072 231 1072 236 l 1072 177 q 1064 168 1072 168 l 990 168 q 985 166 986 168 q 984 159 984 165 l 984 12 q 983 5 984 10 q 972 1 981 1 l 890 1 q 883 5 884 1 q 882 10 882 9 l 882 155 q 879 164 882 161 q 866 168 876 168 l 648 168 q 635 173 640 168 q 630 183 630 178 m 747 243 q 750 239 747 239 q 760 238 753 238 l 873 238 q 880 240 879 238 q 882 246 882 243 l 882 409 q 881 420 882 414 q 872 425 880 425 q 866 422 869 425 q 861 416 863 419 l 751 250 l 749 245 q 747 243 749 244 z "},"":{"ha":1197,"x_min":56,"x_max":1149,"o":"m 905 1004 l 1034 1004 l 288 -37 l 159 -37 l 905 1004 m 764 0 q 748 2 750 0 q 746 16 746 5 q 750 30 746 23 q 762 44 755 37 q 808 91 781 67 q 857 137 834 114 q 919 199 888 168 q 974 261 949 230 q 1013 323 998 292 q 1027 382 1027 353 q 1019 425 1027 405 q 995 460 1010 445 q 962 485 981 476 q 924 494 943 494 q 884 487 903 494 q 850 468 865 480 q 825 439 836 456 q 810 404 814 422 q 801 385 808 394 q 776 376 795 376 q 767 381 770 376 q 764 391 764 386 q 781 459 764 428 q 824 513 798 490 q 885 549 851 536 q 954 562 919 562 q 1026 549 994 562 q 1081 514 1059 536 q 1117 461 1104 492 q 1129 397 1129 431 q 1093 295 1129 346 q 987 186 1056 245 q 966 166 981 181 q 933 134 951 152 q 899 100 916 117 q 875 74 882 83 l 1076 74 q 1090 77 1084 74 q 1100 86 1096 79 q 1108 104 1104 93 q 1116 133 1112 115 l 1149 133 l 1131 18 q 1124 6 1129 12 q 1103 0 1118 0 l 764 0 l 764 0 m 87 374 q 71 377 75 374 q 68 384 68 380 l 68 406 q 71 412 68 410 q 85 415 74 415 q 106 415 94 415 q 130 416 118 416 q 152 419 142 417 q 165 424 161 420 l 165 835 q 141 820 151 825 q 123 809 132 814 q 106 800 115 804 q 86 789 98 795 q 79 785 84 787 q 71 783 74 783 q 64 787 66 783 q 56 801 62 791 q 56 802 56 802 l 56 803 q 65 811 56 804 q 93 832 77 819 q 126 861 109 845 q 162 897 144 878 q 197 935 180 916 l 256 935 q 275 933 271 935 q 279 922 279 930 l 279 457 q 279 434 279 446 q 281 423 280 423 q 309 416 292 417 q 345 415 327 415 q 361 412 357 415 q 364 406 364 409 l 364 384 q 361 377 364 380 q 345 374 357 374 l 87 374 l 87 374 z "},"":{"ha":1150,"x_min":29,"x_max":1065,"o":"m 901 1004 l 1030 1004 l 283 -37 l 155 -37 l 901 1004 m 200 363 q 146 366 176 363 q 91 377 117 369 q 47 398 64 385 q 29 435 29 412 q 41 465 29 452 q 79 478 52 478 q 112 467 96 478 q 144 442 127 456 q 178 417 160 429 q 218 406 196 406 q 261 419 243 406 q 292 454 279 433 q 310 500 304 475 q 316 551 316 526 q 309 600 316 581 q 292 630 302 619 q 269 645 281 641 q 245 649 256 649 q 223 647 231 649 q 212 643 216 646 q 202 639 207 641 q 187 637 197 637 q 179 640 184 637 q 171 646 175 642 q 164 653 167 650 q 161 659 161 657 q 166 667 161 661 q 176 677 171 673 q 208 706 191 690 q 239 740 224 722 q 263 775 254 757 q 273 812 273 793 q 266 837 273 825 q 249 858 260 849 q 226 872 239 867 q 201 877 213 877 q 158 869 178 877 q 124 849 139 861 q 98 824 109 838 q 81 800 87 811 q 76 794 79 795 q 68 793 73 793 q 57 797 64 793 q 50 806 50 800 l 54 817 q 79 863 64 841 q 114 901 94 884 q 159 926 134 917 q 218 935 185 935 q 277 929 250 935 q 325 910 304 922 q 356 879 345 897 q 367 836 367 861 q 360 802 367 818 q 343 771 354 785 q 318 743 332 756 q 288 720 304 730 q 349 702 324 715 q 388 667 373 688 q 410 621 404 646 q 416 568 416 595 q 397 485 416 522 q 348 420 378 447 q 278 378 317 393 q 200 363 239 363 m 623 183 q 625 194 623 192 l 892 568 q 900 573 894 571 q 912 575 905 574 q 925 576 919 576 q 932 576 930 576 q 943 576 936 576 q 958 575 951 576 q 971 572 966 574 q 977 566 977 570 l 977 248 q 985 238 977 238 l 1053 238 q 1061 237 1057 238 q 1065 231 1065 236 l 1065 177 q 1057 168 1065 168 l 983 168 q 978 166 979 168 q 977 159 977 165 l 977 12 q 976 5 977 10 q 966 1 975 1 l 884 1 q 877 5 878 1 q 876 10 876 9 l 876 155 q 872 164 876 161 q 859 168 869 168 l 641 168 q 628 173 633 168 q 623 183 623 178 m 741 243 q 743 239 741 239 q 753 238 746 238 l 867 238 q 873 240 872 238 q 876 246 875 243 l 876 409 q 874 420 876 414 q 865 425 873 425 q 859 422 862 425 q 854 416 857 419 l 745 250 l 743 245 q 741 243 742 244 z "},"":{"ha":528,"x_min":84,"x_max":467,"o":"m 343 383 q 356 373 349 383 q 372 348 364 363 q 388 312 380 332 q 402 273 396 292 q 413 236 409 254 q 418 208 418 219 q 401 138 418 165 q 358 92 385 111 q 298 62 331 74 q 233 36 264 50 q 193 16 212 27 q 160 -11 174 4 q 138 -46 146 -26 q 130 -92 130 -66 q 144 -144 130 -123 q 190 -176 159 -164 q 271 -192 221 -188 q 393 -197 321 -197 q 418 -202 406 -197 q 442 -216 431 -208 q 459 -236 452 -224 q 467 -262 467 -248 q 460 -300 467 -282 q 441 -332 454 -318 q 405 -353 427 -345 q 351 -361 383 -361 q 245 -337 294 -361 q 161 -273 197 -313 q 105 -180 125 -233 q 85 -70 85 -127 q 97 11 85 -30 q 131 88 109 52 q 182 153 153 124 q 248 199 212 182 q 282 214 264 208 q 313 231 299 221 q 335 256 326 241 q 344 295 344 271 q 342 316 344 309 q 338 329 341 323 q 331 342 335 334 q 321 364 327 349 q 324 369 321 366 q 331 375 327 372 q 338 381 334 378 q 343 383 342 383 m 449 548 q 441 508 449 527 q 419 475 433 489 q 386 452 405 460 q 346 444 368 444 q 306 452 325 444 q 273 475 287 460 q 252 508 260 489 q 243 548 243 527 q 252 588 243 569 q 273 622 260 607 q 306 645 287 636 q 346 653 325 653 q 386 645 368 653 q 419 622 405 636 q 441 588 433 607 q 449 548 449 569 z "},"":{"ha":1045,"x_min":3,"x_max":1042,"o":"m 3 32 q 9 37 3 37 q 39 41 22 38 q 74 54 56 44 q 109 83 92 64 q 138 136 126 102 l 410 927 q 411 928 410 926 q 411 930 411 929 q 407 942 411 935 q 404 953 404 949 q 406 956 404 956 l 603 956 q 607 955 604 956 q 610 951 609 954 l 897 146 q 910 113 904 127 q 925 89 916 100 q 946 70 933 79 q 979 53 959 62 q 1005 43 989 48 q 1036 37 1021 37 q 1041 35 1040 37 q 1042 31 1042 33 l 1042 5 q 1041 2 1042 4 q 1036 0 1040 0 l 560 0 q 556 2 557 0 q 555 5 555 4 l 555 32 q 556 35 555 33 q 560 37 557 37 q 566 38 563 37 q 570 38 568 38 q 591 39 577 39 q 621 42 605 40 q 654 47 637 43 q 684 58 671 51 q 707 77 698 65 q 715 105 715 88 q 714 115 715 109 l 625 359 q 623 366 625 361 q 617 375 621 370 q 608 385 614 380 q 594 389 602 389 l 349 389 q 334 385 340 389 q 324 376 328 380 q 318 366 320 371 q 315 361 315 361 q 279 253 294 297 q 254 181 264 210 q 239 137 244 153 q 231 114 233 121 q 228 105 229 107 q 228 104 228 104 q 229 99 228 102 q 230 95 229 97 q 250 67 235 78 q 283 49 264 56 q 322 40 302 43 q 358 37 342 37 l 376 37 q 380 35 379 37 q 381 32 381 33 l 381 5 q 380 2 381 4 q 376 0 379 0 l 9 0 q 3 5 3 0 l 3 32 m 359 486 q 357 479 357 483 q 356 473 356 476 q 358 466 356 469 q 366 464 360 464 l 570 464 q 579 467 577 464 q 582 474 582 470 q 581 480 582 477 q 579 486 581 483 l 489 734 q 479 748 486 743 q 467 752 472 752 q 454 747 461 752 q 444 733 448 742 l 359 486 m 585 1058 q 575 1049 581 1053 q 566 1046 570 1046 q 552 1050 558 1046 l 370 1198 q 341 1229 354 1211 q 328 1272 328 1247 q 332 1297 328 1285 q 346 1317 337 1308 q 365 1331 354 1326 q 390 1336 376 1336 q 421 1327 406 1336 q 452 1297 437 1318 l 594 1100 q 598 1092 597 1095 q 600 1083 600 1088 q 599 1078 600 1081 q 595 1072 598 1076 l 585 1058 z "},"":{"ha":1045,"x_min":3,"x_max":1042,"o":"m 3 32 q 9 37 3 37 q 39 41 22 38 q 74 54 56 44 q 109 83 92 64 q 138 136 126 102 l 410 927 q 411 928 410 926 q 411 930 411 929 q 407 942 411 935 q 404 953 404 949 q 406 956 404 956 l 603 956 q 607 955 604 956 q 610 951 609 954 l 897 146 q 910 113 904 127 q 925 89 916 100 q 946 70 933 79 q 979 53 959 62 q 1005 43 989 48 q 1036 37 1021 37 q 1041 35 1040 37 q 1042 31 1042 33 l 1042 5 q 1041 2 1042 4 q 1036 0 1040 0 l 560 0 q 556 2 557 0 q 555 5 555 4 l 555 32 q 556 35 555 33 q 560 37 557 37 q 566 38 563 37 q 570 38 568 38 q 591 39 577 39 q 621 42 605 40 q 654 47 637 43 q 684 58 671 51 q 707 77 698 65 q 715 105 715 88 q 714 115 715 109 l 625 359 q 623 366 625 361 q 617 375 621 370 q 608 385 614 380 q 594 389 602 389 l 349 389 q 334 385 340 389 q 324 376 328 380 q 318 366 320 371 q 315 361 315 361 q 279 253 294 297 q 254 181 264 210 q 239 137 244 153 q 231 114 233 121 q 228 105 229 107 q 228 104 228 104 q 229 99 228 102 q 230 95 229 97 q 250 67 235 78 q 283 49 264 56 q 322 40 302 43 q 358 37 342 37 l 376 37 q 380 35 379 37 q 381 32 381 33 l 381 5 q 380 2 381 4 q 376 0 379 0 l 9 0 q 3 5 3 0 l 3 32 m 359 486 q 357 479 357 483 q 356 473 356 476 q 358 466 356 469 q 366 464 360 464 l 570 464 q 579 467 577 464 q 582 474 582 470 q 581 480 582 477 q 579 486 581 483 l 489 734 q 479 748 486 743 q 467 752 472 752 q 454 747 461 752 q 444 733 448 742 l 359 486 m 478 1074 q 474 1079 476 1076 q 473 1086 473 1082 q 475 1093 473 1090 q 478 1098 477 1095 l 623 1298 q 653 1328 637 1318 q 684 1337 669 1337 q 709 1332 697 1337 q 729 1318 720 1326 q 742 1297 737 1309 q 747 1273 747 1286 q 733 1230 747 1248 q 704 1198 720 1211 l 521 1050 q 515 1047 517 1047 q 509 1046 513 1046 q 499 1048 503 1046 q 493 1054 496 1050 l 478 1074 z "},"":{"ha":1045,"x_min":3,"x_max":1042,"o":"m 3 32 q 9 37 3 37 q 39 41 22 38 q 74 54 56 44 q 109 83 92 64 q 138 136 126 102 l 410 927 q 411 928 410 926 q 411 930 411 929 q 407 942 411 935 q 404 953 404 949 q 406 956 404 956 l 603 956 q 607 955 604 956 q 610 951 609 954 l 897 146 q 910 113 904 127 q 925 89 916 100 q 946 70 933 79 q 979 53 959 62 q 1005 43 989 48 q 1036 37 1021 37 q 1041 35 1040 37 q 1042 31 1042 33 l 1042 5 q 1041 2 1042 4 q 1036 0 1040 0 l 560 0 q 556 2 557 0 q 555 5 555 4 l 555 32 q 556 35 555 33 q 560 37 557 37 q 566 38 563 37 q 570 38 568 38 q 591 39 577 39 q 621 42 605 40 q 654 47 637 43 q 684 58 671 51 q 707 77 698 65 q 715 105 715 88 q 714 115 715 109 l 625 359 q 623 366 625 361 q 617 375 621 370 q 608 385 614 380 q 594 389 602 389 l 349 389 q 334 385 340 389 q 324 376 328 380 q 318 366 320 371 q 315 361 315 361 q 279 253 294 297 q 254 181 264 210 q 239 137 244 153 q 231 114 233 121 q 228 105 229 107 q 228 104 228 104 q 229 99 228 102 q 230 95 229 97 q 250 67 235 78 q 283 49 264 56 q 322 40 302 43 q 358 37 342 37 l 376 37 q 380 35 379 37 q 381 32 381 33 l 381 5 q 380 2 381 4 q 376 0 379 0 l 9 0 q 3 5 3 0 l 3 32 m 359 486 q 357 479 357 483 q 356 473 356 476 q 358 466 356 469 q 366 464 360 464 l 570 464 q 579 467 577 464 q 582 474 582 470 q 581 480 582 477 q 579 486 581 483 l 489 734 q 479 748 486 743 q 467 752 472 752 q 454 747 461 752 q 444 733 448 742 l 359 486 m 502 1207 l 353 1051 q 344 1046 349 1048 q 336 1044 339 1044 q 328 1049 333 1044 q 318 1059 323 1053 q 309 1071 313 1065 q 306 1080 306 1077 q 308 1089 306 1086 q 313 1098 309 1093 l 479 1322 q 489 1332 483 1327 q 502 1336 496 1336 q 517 1330 510 1336 q 530 1316 525 1323 l 699 1097 q 706 1080 706 1088 q 703 1071 706 1077 q 694 1059 699 1065 q 684 1049 689 1053 q 675 1044 679 1044 q 668 1046 672 1044 q 661 1051 664 1048 l 502 1207 z "},"":{"ha":1045,"x_min":3,"x_max":1042,"o":"m 3 32 q 9 37 3 37 q 39 41 22 38 q 74 54 56 44 q 109 83 92 64 q 138 136 126 102 l 410 927 q 411 928 410 926 q 411 930 411 929 q 407 942 411 935 q 404 953 404 949 q 406 956 404 956 l 603 956 q 607 955 604 956 q 610 951 609 954 l 897 146 q 910 113 904 127 q 925 89 916 100 q 946 70 933 79 q 979 53 959 62 q 1005 43 989 48 q 1036 37 1021 37 q 1041 35 1040 37 q 1042 31 1042 33 l 1042 5 q 1041 2 1042 4 q 1036 0 1040 0 l 560 0 q 556 2 557 0 q 555 5 555 4 l 555 32 q 556 35 555 33 q 560 37 557 37 q 566 38 563 37 q 570 38 568 38 q 591 39 577 39 q 621 42 605 40 q 654 47 637 43 q 684 58 671 51 q 707 77 698 65 q 715 105 715 88 q 714 115 715 109 l 625 359 q 623 366 625 361 q 617 375 621 370 q 608 385 614 380 q 594 389 602 389 l 349 389 q 334 385 340 389 q 324 376 328 380 q 318 366 320 371 q 315 361 315 361 q 279 253 294 297 q 254 181 264 210 q 239 137 244 153 q 231 114 233 121 q 228 105 229 107 q 228 104 228 104 q 229 99 228 102 q 230 95 229 97 q 250 67 235 78 q 283 49 264 56 q 322 40 302 43 q 358 37 342 37 l 376 37 q 380 35 379 37 q 381 32 381 33 l 381 5 q 380 2 381 4 q 376 0 379 0 l 9 0 q 3 5 3 0 l 3 32 m 359 486 q 357 479 357 483 q 356 473 356 476 q 358 466 356 469 q 366 464 360 464 l 570 464 q 579 467 577 464 q 582 474 582 470 q 581 480 582 477 q 579 486 581 483 l 489 734 q 479 748 486 743 q 467 752 472 752 q 454 747 461 752 q 444 733 448 742 l 359 486 m 700 1321 q 705 1318 703 1321 q 708 1310 707 1314 q 709 1301 709 1305 q 709 1293 709 1296 q 702 1243 709 1271 q 680 1192 694 1216 q 646 1152 666 1168 q 600 1136 625 1136 q 546 1147 572 1136 q 495 1171 520 1158 q 446 1195 471 1184 q 394 1206 420 1206 q 374 1200 385 1206 q 355 1184 363 1194 q 340 1159 346 1173 q 334 1128 334 1145 q 331 1122 334 1123 q 323 1120 328 1120 l 309 1120 q 304 1131 304 1120 q 311 1195 304 1162 q 332 1254 319 1227 q 366 1297 346 1280 q 410 1314 385 1314 q 465 1302 438 1314 q 519 1278 492 1291 q 573 1254 546 1265 q 626 1242 600 1242 q 648 1249 638 1242 q 664 1266 657 1256 q 673 1289 670 1277 q 676 1312 676 1301 q 680 1318 676 1316 q 687 1321 683 1321 l 700 1321 z "},"":{"ha":1045,"x_min":3,"x_max":1042,"o":"m 3 32 q 9 37 3 37 q 39 41 22 38 q 74 54 56 44 q 109 83 92 64 q 138 136 126 102 l 410 927 q 411 928 410 926 q 411 930 411 929 q 407 942 411 935 q 404 953 404 949 q 406 956 404 956 l 603 956 q 607 955 604 956 q 610 951 609 954 l 897 146 q 910 113 904 127 q 925 89 916 100 q 946 70 933 79 q 979 53 959 62 q 1005 43 989 48 q 1036 37 1021 37 q 1041 35 1040 37 q 1042 31 1042 33 l 1042 5 q 1041 2 1042 4 q 1036 0 1040 0 l 560 0 q 556 2 557 0 q 555 5 555 4 l 555 32 q 556 35 555 33 q 560 37 557 37 q 566 38 563 37 q 570 38 568 38 q 591 39 577 39 q 621 42 605 40 q 654 47 637 43 q 684 58 671 51 q 707 77 698 65 q 715 105 715 88 q 714 115 715 109 l 625 359 q 623 366 625 361 q 617 375 621 370 q 608 385 614 380 q 594 389 602 389 l 349 389 q 334 385 340 389 q 324 376 328 380 q 318 366 320 371 q 315 361 315 361 q 279 253 294 297 q 254 181 264 210 q 239 137 244 153 q 231 114 233 121 q 228 105 229 107 q 228 104 228 104 q 229 99 228 102 q 230 95 229 97 q 250 67 235 78 q 283 49 264 56 q 322 40 302 43 q 358 37 342 37 l 376 37 q 380 35 379 37 q 381 32 381 33 l 381 5 q 380 2 381 4 q 376 0 379 0 l 9 0 q 3 5 3 0 l 3 32 m 359 486 q 357 479 357 483 q 356 473 356 476 q 358 466 356 469 q 366 464 360 464 l 570 464 q 579 467 577 464 q 582 474 582 470 q 581 480 582 477 q 579 486 581 483 l 489 734 q 479 748 486 743 q 467 752 472 752 q 454 747 461 752 q 444 733 448 742 l 359 486 m 345 1128 q 309 1135 326 1128 q 279 1154 292 1142 q 259 1183 267 1166 q 252 1219 252 1200 q 259 1256 252 1239 q 279 1286 267 1274 q 309 1306 292 1299 q 345 1314 326 1314 q 382 1306 365 1314 q 411 1286 399 1299 q 431 1256 424 1274 q 438 1219 438 1239 q 431 1183 438 1200 q 411 1154 424 1166 q 382 1135 399 1142 q 345 1128 365 1128 m 643 1128 q 607 1135 623 1128 q 577 1154 590 1142 q 557 1183 564 1166 q 550 1219 550 1200 q 557 1256 550 1239 q 577 1286 564 1274 q 607 1306 590 1299 q 643 1314 623 1314 q 680 1306 663 1314 q 709 1286 697 1299 q 729 1256 722 1274 q 736 1219 736 1239 q 729 1183 736 1200 q 709 1154 722 1166 q 680 1135 697 1142 q 643 1128 663 1128 z "},"":{"ha":1045,"x_min":3,"x_max":1042,"o":"m 3 32 q 9 37 3 37 q 39 41 22 38 q 74 54 56 44 q 109 83 92 64 q 138 136 126 102 l 410 927 q 411 928 410 926 q 411 930 411 929 q 407 942 411 935 q 404 953 404 949 q 406 956 404 956 l 603 956 q 607 955 604 956 q 610 951 609 954 l 897 146 q 910 113 904 127 q 925 89 916 100 q 946 70 933 79 q 979 53 959 62 q 1005 43 989 48 q 1036 37 1021 37 q 1041 35 1040 37 q 1042 31 1042 33 l 1042 5 q 1041 2 1042 4 q 1036 0 1040 0 l 560 0 q 556 2 557 0 q 555 5 555 4 l 555 32 q 556 35 555 33 q 560 37 557 37 q 566 38 563 37 q 570 38 568 38 q 591 39 577 39 q 621 42 605 40 q 654 47 637 43 q 684 58 671 51 q 707 77 698 65 q 715 105 715 88 q 714 115 715 109 l 625 359 q 623 366 625 361 q 617 375 621 370 q 608 385 614 380 q 594 389 602 389 l 349 389 q 334 385 340 389 q 324 376 328 380 q 318 366 320 371 q 315 361 315 361 q 279 253 294 297 q 254 181 264 210 q 239 137 244 153 q 231 114 233 121 q 228 105 229 107 q 228 104 228 104 q 229 99 228 102 q 230 95 229 97 q 250 67 235 78 q 283 49 264 56 q 322 40 302 43 q 358 37 342 37 l 376 37 q 380 35 379 37 q 381 32 381 33 l 381 5 q 380 2 381 4 q 376 0 379 0 l 9 0 q 3 5 3 0 l 3 32 m 359 486 q 357 479 357 483 q 356 473 356 476 q 358 466 356 469 q 366 464 360 464 l 570 464 q 579 467 577 464 q 582 474 582 470 q 581 480 582 477 q 579 486 581 483 l 489 734 q 479 748 486 743 q 467 752 472 752 q 454 747 461 752 q 444 733 448 742 l 359 486 m 437 1221 q 444 1190 437 1204 q 460 1166 450 1176 q 484 1149 470 1156 q 515 1143 498 1143 q 544 1149 530 1143 q 569 1166 558 1156 q 586 1190 580 1176 q 592 1221 592 1204 q 586 1250 592 1236 q 569 1275 580 1264 q 544 1292 558 1286 q 515 1298 530 1298 q 484 1292 498 1298 q 460 1275 470 1286 q 444 1250 450 1264 q 437 1221 437 1236 m 370 1221 q 381 1277 370 1251 q 412 1323 393 1303 q 458 1354 432 1343 q 515 1366 485 1366 q 571 1354 545 1366 q 617 1323 597 1343 q 648 1277 637 1303 q 660 1221 660 1251 q 648 1164 660 1191 q 617 1118 637 1138 q 571 1087 597 1099 q 515 1076 545 1076 q 458 1087 485 1076 q 412 1118 432 1099 q 381 1164 393 1138 q 370 1221 370 1191 z "},"":{"ha":1353,"x_min":3,"x_max":1293,"o":"m 3 15 q 9 27 3 22 q 23 37 15 33 q 41 44 31 41 q 58 49 50 47 q 84 62 72 52 q 106 84 96 71 q 125 111 116 96 q 144 138 134 125 l 578 859 q 587 880 587 870 q 581 895 587 888 q 568 906 576 901 q 550 912 559 910 q 534 915 541 915 q 509 915 524 915 q 465 916 495 916 q 448 923 453 916 q 443 935 443 930 q 445 948 443 939 q 455 956 447 956 l 1195 956 q 1213 952 1207 956 q 1219 932 1218 947 l 1232 715 q 1226 710 1232 712 q 1215 709 1220 709 q 1204 710 1210 709 q 1197 714 1199 711 q 1190 734 1192 721 q 1186 764 1188 747 q 1179 798 1183 780 q 1166 830 1175 815 q 1142 856 1157 845 q 1103 871 1126 867 l 861 871 q 852 863 852 871 l 852 539 q 859 532 852 532 l 1053 532 q 1086 537 1069 532 q 1115 553 1103 541 q 1136 585 1128 564 q 1143 638 1143 606 q 1149 644 1143 644 l 1175 644 q 1181 638 1181 644 l 1181 328 q 1179 323 1181 324 q 1175 322 1177 322 l 1149 322 q 1144 324 1145 322 q 1143 328 1143 326 q 1136 389 1143 366 q 1115 426 1128 412 q 1085 443 1102 439 q 1050 448 1069 448 l 859 448 q 852 441 852 448 l 852 144 q 858 113 852 125 q 874 95 864 101 q 899 87 885 89 q 927 85 912 85 l 1112 85 q 1178 103 1152 85 q 1221 146 1204 121 q 1245 200 1237 172 q 1255 248 1253 228 q 1263 261 1256 256 q 1280 267 1271 267 q 1289 264 1284 267 q 1293 258 1293 261 l 1271 9 q 1267 3 1270 6 q 1261 0 1265 0 l 475 0 q 470 4 470 0 l 470 35 q 471 38 470 35 q 475 40 471 40 l 490 40 q 549 42 519 42 q 603 50 578 43 q 643 75 627 57 q 659 131 659 93 l 659 376 l 434 376 q 415 372 423 376 q 400 363 406 368 q 391 354 394 358 q 387 349 387 349 l 243 104 q 242 98 242 101 q 241 92 241 95 q 256 63 241 73 q 291 49 271 54 q 334 43 312 44 q 371 40 356 41 q 382 32 378 39 q 387 19 387 24 q 385 6 387 13 q 375 0 382 0 l 14 0 q 5 5 6 0 q 3 15 3 9 m 659 452 l 659 745 q 655 755 659 753 q 647 758 651 758 q 632 752 637 758 q 622 739 627 747 l 456 464 q 456 460 456 463 q 478 452 456 452 l 659 452 z "},"":{"ha":1078,"x_min":71,"x_max":1025,"o":"m 71 472 q 90 615 71 548 q 144 740 109 683 q 227 842 178 797 q 335 919 276 888 q 463 968 395 951 q 604 985 530 985 q 725 974 667 985 q 844 947 783 962 q 866 941 854 945 q 887 933 877 937 q 905 926 897 929 q 917 924 913 924 q 926 926 918 924 q 937 929 934 929 l 968 929 q 977 918 977 929 l 977 696 q 974 691 977 692 q 960 690 970 690 q 950 690 958 690 q 939 694 941 690 q 934 702 938 696 q 926 714 930 708 q 918 727 922 721 q 913 734 914 732 q 857 820 888 785 q 790 877 827 855 q 709 908 753 899 q 615 918 666 918 q 501 903 551 918 q 414 861 451 888 q 351 796 376 834 q 310 713 326 758 q 287 617 294 668 q 279 511 279 566 q 288 397 279 454 q 314 289 296 340 q 361 194 332 238 q 431 118 390 151 q 526 68 471 86 q 648 50 580 50 q 756 67 706 50 q 847 114 806 84 q 921 181 888 143 q 976 262 953 220 q 979 266 977 265 q 984 266 981 266 l 1019 266 q 1023 264 1021 266 q 1025 257 1025 262 q 1022 247 1025 255 q 1016 232 1019 238 l 922 26 q 918 22 921 24 q 913 21 916 21 q 891 24 897 21 q 878 26 884 26 q 826 20 858 26 q 757 6 794 14 q 682 -9 720 -2 q 612 -18 644 -16 l 541 -102 q 585 -127 568 -112 q 613 -157 603 -142 q 628 -185 624 -172 q 633 -207 633 -199 q 610 -279 633 -249 q 552 -328 588 -309 q 473 -355 517 -347 q 386 -364 429 -364 q 340 -359 359 -364 q 321 -332 321 -353 q 328 -318 321 -326 q 348 -305 334 -311 q 363 -301 353 -303 q 385 -298 374 -300 q 421 -291 401 -295 q 456 -278 440 -287 q 484 -256 473 -270 q 495 -220 495 -242 q 483 -193 495 -205 q 454 -173 471 -182 q 418 -160 437 -165 q 387 -154 400 -155 l 503 -10 q 334 44 412 4 q 197 146 255 84 q 105 291 138 208 q 71 472 71 373 z "},"":{"ha":888,"x_min":5,"x_max":828,"o":"m 5 35 q 5 38 5 35 q 10 40 6 40 l 25 40 q 83 42 54 42 q 138 50 113 43 q 178 75 162 57 q 193 131 193 93 l 193 825 q 182 868 193 852 q 154 895 172 885 q 114 910 136 905 q 68 919 92 916 l 54 919 q 50 921 51 919 q 49 924 49 923 l 49 951 q 50 954 49 952 q 54 956 51 956 l 730 956 q 747 952 742 956 q 754 932 753 947 l 766 715 q 761 710 766 712 q 750 709 755 709 q 739 710 745 709 q 732 714 734 711 q 725 734 727 721 q 721 764 723 747 q 714 798 718 780 q 701 830 709 815 q 676 856 692 845 q 637 871 661 867 l 395 871 q 387 863 387 871 l 387 539 q 393 532 387 532 l 587 532 q 621 537 604 532 q 650 553 637 541 q 670 585 663 564 q 678 638 678 606 q 684 644 678 644 l 710 644 q 715 638 715 644 l 715 328 q 713 323 715 324 q 710 322 711 322 l 684 322 q 679 324 680 322 q 678 328 678 326 q 670 389 678 366 q 650 426 663 412 q 620 443 637 439 q 585 448 604 448 l 393 448 q 387 441 387 448 l 387 144 q 393 113 387 125 q 409 95 399 101 q 433 87 420 89 q 462 85 447 85 l 647 85 q 713 103 686 85 q 755 146 739 121 q 780 200 772 172 q 789 248 787 228 q 798 261 791 256 q 815 267 806 267 q 823 264 819 267 q 828 258 828 261 l 806 9 q 802 3 804 6 q 796 0 800 0 l 10 0 q 5 2 6 0 q 5 5 5 5 l 5 15 l 5 35 m 535 1058 q 526 1049 532 1053 q 516 1046 520 1046 q 503 1050 509 1046 l 320 1198 q 291 1229 304 1211 q 278 1272 278 1247 q 283 1297 278 1285 q 296 1317 288 1308 q 316 1331 304 1326 q 340 1336 327 1336 q 372 1327 356 1336 q 402 1297 387 1318 l 545 1100 q 549 1092 548 1095 q 550 1083 550 1088 q 549 1078 550 1081 q 546 1072 549 1076 l 535 1058 z "},"":{"ha":888,"x_min":5,"x_max":828,"o":"m 5 35 q 5 38 5 35 q 10 40 6 40 l 25 40 q 83 42 54 42 q 138 50 113 43 q 178 75 162 57 q 193 131 193 93 l 193 825 q 182 868 193 852 q 154 895 172 885 q 114 910 136 905 q 68 919 92 916 l 54 919 q 50 921 51 919 q 49 924 49 923 l 49 951 q 50 954 49 952 q 54 956 51 956 l 730 956 q 747 952 742 956 q 754 932 753 947 l 766 715 q 761 710 766 712 q 750 709 755 709 q 739 710 745 709 q 732 714 734 711 q 725 734 727 721 q 721 764 723 747 q 714 798 718 780 q 701 830 709 815 q 676 856 692 845 q 637 871 661 867 l 395 871 q 387 863 387 871 l 387 539 q 393 532 387 532 l 587 532 q 621 537 604 532 q 650 553 637 541 q 670 585 663 564 q 678 638 678 606 q 684 644 678 644 l 710 644 q 715 638 715 644 l 715 328 q 713 323 715 324 q 710 322 711 322 l 684 322 q 679 324 680 322 q 678 328 678 326 q 670 389 678 366 q 650 426 663 412 q 620 443 637 439 q 585 448 604 448 l 393 448 q 387 441 387 448 l 387 144 q 393 113 387 125 q 409 95 399 101 q 433 87 420 89 q 462 85 447 85 l 647 85 q 713 103 686 85 q 755 146 739 121 q 780 200 772 172 q 789 248 787 228 q 798 261 791 256 q 815 267 806 267 q 823 264 819 267 q 828 258 828 261 l 806 9 q 802 3 804 6 q 796 0 800 0 l 10 0 q 5 2 6 0 q 5 5 5 5 l 5 15 l 5 35 m 387 1073 q 384 1078 385 1076 q 382 1085 382 1081 q 384 1092 382 1089 q 387 1097 386 1095 l 532 1297 q 562 1327 547 1318 q 593 1336 578 1336 q 618 1331 606 1336 q 638 1317 629 1326 q 651 1297 646 1308 q 656 1272 656 1285 q 642 1229 656 1247 q 613 1198 629 1211 l 430 1050 q 424 1046 426 1046 q 418 1046 422 1046 q 409 1047 412 1046 q 402 1053 406 1049 l 387 1073 z "},"":{"ha":888,"x_min":5,"x_max":828,"o":"m 5 35 q 5 38 5 35 q 10 40 6 40 l 25 40 q 83 42 54 42 q 138 50 113 43 q 178 75 162 57 q 193 131 193 93 l 193 825 q 182 868 193 852 q 154 895 172 885 q 114 910 136 905 q 68 919 92 916 l 54 919 q 50 921 51 919 q 49 924 49 923 l 49 951 q 50 954 49 952 q 54 956 51 956 l 730 956 q 747 952 742 956 q 754 932 753 947 l 766 715 q 761 710 766 712 q 750 709 755 709 q 739 710 745 709 q 732 714 734 711 q 725 734 727 721 q 721 764 723 747 q 714 798 718 780 q 701 830 709 815 q 676 856 692 845 q 637 871 661 867 l 395 871 q 387 863 387 871 l 387 539 q 393 532 387 532 l 587 532 q 621 537 604 532 q 650 553 637 541 q 670 585 663 564 q 678 638 678 606 q 684 644 678 644 l 710 644 q 715 638 715 644 l 715 328 q 713 323 715 324 q 710 322 711 322 l 684 322 q 679 324 680 322 q 678 328 678 326 q 670 389 678 366 q 650 426 663 412 q 620 443 637 439 q 585 448 604 448 l 393 448 q 387 441 387 448 l 387 144 q 393 113 387 125 q 409 95 399 101 q 433 87 420 89 q 462 85 447 85 l 647 85 q 713 103 686 85 q 755 146 739 121 q 780 200 772 172 q 789 248 787 228 q 798 261 791 256 q 815 267 806 267 q 823 264 819 267 q 828 258 828 261 l 806 9 q 802 3 804 6 q 796 0 800 0 l 10 0 q 5 2 6 0 q 5 5 5 5 l 5 15 l 5 35 m 461 1223 l 312 1067 q 303 1062 309 1064 q 296 1061 298 1061 q 287 1065 292 1061 q 277 1076 282 1069 q 269 1087 272 1082 q 265 1096 265 1093 q 267 1105 265 1102 q 273 1114 269 1109 l 439 1338 q 449 1348 442 1343 q 461 1352 455 1352 q 477 1346 469 1352 q 490 1332 484 1339 l 658 1114 q 665 1096 665 1104 q 662 1087 665 1093 q 653 1076 659 1082 q 643 1065 648 1069 q 635 1061 638 1061 q 627 1062 631 1061 q 620 1067 623 1064 l 461 1223 z "},"":{"ha":888,"x_min":5,"x_max":828,"o":"m 5 35 q 5 38 5 35 q 10 40 6 40 l 25 40 q 83 42 54 42 q 138 50 113 43 q 178 75 162 57 q 193 131 193 93 l 193 825 q 182 868 193 852 q 154 895 172 885 q 114 910 136 905 q 68 919 92 916 l 54 919 q 50 921 51 919 q 49 924 49 923 l 49 951 q 50 954 49 952 q 54 956 51 956 l 730 956 q 747 952 742 956 q 754 932 753 947 l 766 715 q 761 710 766 712 q 750 709 755 709 q 739 710 745 709 q 732 714 734 711 q 725 734 727 721 q 721 764 723 747 q 714 798 718 780 q 701 830 709 815 q 676 856 692 845 q 637 871 661 867 l 395 871 q 387 863 387 871 l 387 539 q 393 532 387 532 l 587 532 q 621 537 604 532 q 650 553 637 541 q 670 585 663 564 q 678 638 678 606 q 684 644 678 644 l 710 644 q 715 638 715 644 l 715 328 q 713 323 715 324 q 710 322 711 322 l 684 322 q 679 324 680 322 q 678 328 678 326 q 670 389 678 366 q 650 426 663 412 q 620 443 637 439 q 585 448 604 448 l 393 448 q 387 441 387 448 l 387 144 q 393 113 387 125 q 409 95 399 101 q 433 87 420 89 q 462 85 447 85 l 647 85 q 713 103 686 85 q 755 146 739 121 q 780 200 772 172 q 789 248 787 228 q 798 261 791 256 q 815 267 806 267 q 823 264 819 267 q 828 258 828 261 l 806 9 q 802 3 804 6 q 796 0 800 0 l 10 0 q 5 2 6 0 q 5 5 5 5 l 5 15 l 5 35 m 295 1128 q 258 1135 275 1128 q 229 1154 241 1142 q 209 1183 216 1166 q 202 1219 202 1200 q 209 1256 202 1239 q 229 1286 216 1274 q 258 1306 241 1299 q 295 1314 275 1314 q 332 1306 315 1314 q 361 1286 349 1299 q 381 1256 374 1274 q 388 1219 388 1239 q 381 1183 388 1200 q 361 1154 374 1166 q 332 1135 349 1142 q 295 1128 315 1128 m 593 1128 q 556 1135 573 1128 q 527 1154 540 1142 q 507 1183 514 1166 q 500 1219 500 1200 q 507 1256 500 1239 q 527 1286 514 1274 q 556 1306 540 1299 q 593 1314 573 1314 q 630 1306 613 1314 q 659 1286 647 1299 q 679 1256 671 1274 q 686 1219 686 1239 q 679 1183 686 1200 q 659 1154 671 1166 q 630 1135 647 1142 q 593 1128 613 1128 z "},"":{"ha":535,"x_min":61,"x_max":474,"o":"m 364 129 q 371 90 364 106 q 392 65 378 75 q 424 52 405 56 q 467 47 444 47 q 473 42 473 47 l 473 5 q 472 2 473 3 q 467 0 471 0 l 66 0 q 62 2 63 0 q 61 5 61 4 l 61 42 q 62 45 61 43 q 66 47 63 47 q 110 51 90 47 q 142 64 129 54 q 163 93 156 74 q 171 144 171 112 l 171 827 q 164 866 171 850 q 143 891 157 882 q 111 905 130 901 q 68 909 92 909 q 62 914 62 909 l 62 951 q 68 956 62 956 l 469 956 q 473 954 472 956 q 474 951 474 952 l 474 914 q 473 911 474 913 q 469 909 472 909 q 426 906 445 909 q 393 892 406 903 q 372 863 379 882 q 364 812 364 844 l 364 129 l 364 129 m 364 1058 q 355 1049 361 1053 q 345 1046 349 1046 q 332 1050 338 1046 l 149 1198 q 120 1229 134 1211 q 107 1272 107 1247 q 112 1297 107 1285 q 125 1317 117 1308 q 145 1331 134 1326 q 170 1336 156 1336 q 201 1327 185 1336 q 231 1297 216 1318 l 374 1100 q 378 1092 377 1095 q 379 1083 379 1088 q 378 1078 379 1081 q 375 1072 378 1076 l 364 1058 z "},"":{"ha":535,"x_min":61,"x_max":474,"o":"m 364 129 q 371 90 364 106 q 392 65 378 75 q 424 52 405 56 q 467 47 444 47 q 473 42 473 47 l 473 5 q 472 2 473 3 q 467 0 471 0 l 66 0 q 62 2 63 0 q 61 5 61 4 l 61 42 q 62 45 61 43 q 66 47 63 47 q 110 51 90 47 q 142 64 129 54 q 163 93 156 74 q 171 144 171 112 l 171 827 q 164 866 171 850 q 143 891 157 882 q 111 905 130 901 q 68 909 92 909 q 62 914 62 909 l 62 951 q 68 956 62 956 l 469 956 q 473 954 472 956 q 474 951 474 952 l 474 914 q 473 911 474 913 q 469 909 472 909 q 426 906 445 909 q 393 892 406 903 q 372 863 379 882 q 364 812 364 844 l 364 129 l 364 129 m 179 1073 q 175 1078 177 1076 q 174 1085 174 1081 q 176 1092 174 1089 q 179 1097 178 1095 l 323 1297 q 354 1327 338 1318 q 385 1336 370 1336 q 410 1331 398 1336 q 430 1317 421 1326 q 443 1297 438 1308 q 448 1272 448 1285 q 434 1229 448 1247 q 405 1198 420 1211 l 222 1050 q 216 1046 218 1046 q 210 1046 214 1046 q 200 1047 203 1046 q 194 1053 197 1049 l 179 1073 z "},"":{"ha":535,"x_min":61,"x_max":474,"o":"m 364 129 q 371 90 364 106 q 392 65 378 75 q 424 52 405 56 q 467 47 444 47 q 473 42 473 47 l 473 5 q 472 2 473 3 q 467 0 471 0 l 66 0 q 62 2 63 0 q 61 5 61 4 l 61 42 q 62 45 61 43 q 66 47 63 47 q 110 51 90 47 q 142 64 129 54 q 163 93 156 74 q 171 144 171 112 l 171 827 q 164 866 171 850 q 143 891 157 882 q 111 905 130 901 q 68 909 92 909 q 62 914 62 909 l 62 951 q 68 956 62 956 l 469 956 q 473 954 472 956 q 474 951 474 952 l 474 914 q 473 911 474 913 q 469 909 472 909 q 426 906 445 909 q 393 892 406 903 q 372 863 379 882 q 364 812 364 844 l 364 129 l 364 129 m 264 1207 l 115 1051 q 106 1046 111 1048 q 98 1044 101 1044 q 90 1049 95 1044 q 80 1059 85 1053 q 71 1071 75 1065 q 68 1080 68 1077 q 70 1089 68 1086 q 75 1098 71 1093 l 241 1322 q 251 1332 245 1327 q 264 1336 258 1336 q 279 1330 272 1336 q 292 1316 287 1323 l 460 1097 q 468 1080 468 1088 q 465 1071 468 1077 q 456 1059 461 1065 q 446 1049 451 1053 q 437 1044 441 1044 q 430 1046 434 1044 q 422 1051 426 1048 l 264 1207 z "},"":{"ha":535,"x_min":22,"x_max":506,"o":"m 364 129 q 371 90 364 106 q 392 65 378 75 q 424 52 405 56 q 467 47 444 47 q 473 42 473 47 l 473 5 q 472 2 473 3 q 467 0 471 0 l 66 0 q 62 2 63 0 q 61 5 61 4 l 61 42 q 62 45 61 43 q 66 47 63 47 q 110 51 90 47 q 142 64 129 54 q 163 93 156 74 q 171 144 171 112 l 171 827 q 164 866 171 850 q 143 891 157 882 q 111 905 130 901 q 68 909 92 909 q 62 914 62 909 l 62 951 q 68 956 62 956 l 469 956 q 473 954 472 956 q 474 951 474 952 l 474 914 q 473 911 474 913 q 469 909 472 909 q 426 906 445 909 q 393 892 406 903 q 372 863 379 882 q 364 812 364 844 l 364 129 l 364 129 m 115 1128 q 79 1135 96 1128 q 49 1154 62 1142 q 30 1183 37 1166 q 22 1219 22 1200 q 30 1256 22 1239 q 49 1286 37 1274 q 79 1306 62 1299 q 115 1314 96 1314 q 152 1306 135 1314 q 181 1286 169 1299 q 201 1256 194 1274 q 208 1219 208 1239 q 201 1183 208 1200 q 181 1154 194 1166 q 152 1135 169 1142 q 115 1128 135 1128 m 413 1128 q 377 1135 393 1128 q 347 1154 360 1142 q 327 1183 334 1166 q 320 1219 320 1200 q 327 1256 320 1239 q 347 1286 334 1274 q 377 1306 360 1299 q 413 1314 393 1314 q 450 1306 433 1314 q 479 1286 467 1299 q 499 1256 492 1274 q 506 1219 506 1239 q 499 1183 506 1200 q 479 1154 492 1166 q 450 1135 467 1142 q 413 1128 433 1128 z "},"":{"ha":1190,"x_min":26,"x_max":1128,"o":"m 41 437 q 26 454 26 437 l 26 505 q 41 522 26 522 l 174 522 l 174 842 q 165 877 174 863 q 142 901 156 892 q 111 914 128 910 q 79 918 94 918 l 36 918 q 31 921 32 918 q 31 924 31 923 l 31 953 q 31 956 31 954 q 36 958 32 958 l 51 958 l 330 963 q 415 964 369 964 q 500 964 460 964 q 576 963 543 964 q 642 959 610 962 q 705 951 673 956 q 776 939 736 947 q 916 881 851 923 q 1028 779 981 839 q 1102 647 1075 720 q 1128 498 1128 574 q 1108 360 1128 425 q 1052 239 1088 294 q 965 139 1015 184 q 856 64 916 95 q 729 17 796 33 q 591 0 662 0 l 36 0 q 31 2 32 0 q 31 5 31 5 l 31 35 q 31 38 31 35 q 36 40 32 40 l 51 40 q 86 42 65 40 q 127 51 107 43 q 160 75 146 59 q 174 119 174 91 l 174 437 l 41 437 m 368 105 q 380 75 368 85 q 413 59 393 64 q 462 53 434 54 q 520 52 490 52 q 822 163 722 52 q 923 488 923 275 q 900 659 923 581 q 831 793 878 737 q 714 881 785 850 q 549 912 644 912 l 385 912 q 371 908 374 912 q 368 894 368 903 l 368 522 l 590 522 q 601 517 597 522 q 604 505 604 512 l 604 454 q 600 441 604 446 q 590 437 596 437 l 368 437 l 368 105 z "},"":{"ha":1185,"x_min":31,"x_max":1172,"o":"m 37 0 q 33 2 35 0 q 31 5 31 3 l 31 35 q 37 41 31 41 q 54 41 44 41 q 72 41 63 41 q 89 43 81 42 q 100 45 96 43 q 128 67 117 54 q 145 98 139 81 q 153 137 151 116 q 155 182 155 158 l 155 859 q 140 889 155 878 q 106 906 125 900 q 67 913 87 911 q 37 916 47 916 q 32 918 33 916 q 31 921 31 920 l 31 951 q 32 954 31 952 q 37 956 33 956 l 344 956 l 928 309 q 933 304 932 306 q 937 302 935 302 q 940 304 939 302 q 941 309 941 307 l 941 711 q 936 819 941 779 q 918 881 931 859 q 884 909 905 902 q 828 916 862 916 l 793 916 q 789 918 790 916 q 788 921 788 920 l 788 951 q 789 954 788 952 q 793 956 790 956 l 1166 956 q 1171 954 1171 956 q 1172 951 1172 952 l 1172 921 q 1171 918 1172 920 q 1166 916 1170 916 q 1132 910 1153 916 q 1090 895 1110 905 q 1055 869 1069 884 q 1040 836 1040 854 l 1040 33 q 1035 14 1040 22 q 1021 1 1029 6 q 1003 -6 1013 -3 q 985 -8 993 -8 q 953 -2 971 -8 q 918 23 935 3 l 277 733 q 271 739 273 738 q 265 740 269 740 q 262 733 262 740 l 262 127 q 271 95 262 109 q 294 71 280 81 q 326 55 309 61 q 360 46 343 50 q 390 42 376 43 q 410 41 403 41 q 414 38 413 41 q 415 35 415 37 l 415 5 q 414 2 415 4 q 410 0 413 0 l 37 0 l 37 0 m 792 1321 q 797 1318 795 1321 q 800 1310 799 1314 q 801 1301 801 1305 q 802 1293 802 1296 q 794 1243 802 1271 q 772 1192 787 1216 q 738 1152 758 1168 q 692 1136 718 1136 q 638 1147 664 1136 q 588 1171 612 1158 q 538 1195 563 1184 q 486 1206 513 1206 q 466 1200 477 1206 q 447 1184 456 1194 q 432 1159 438 1173 q 427 1128 427 1145 q 423 1122 427 1123 q 416 1120 420 1120 l 401 1120 q 396 1131 396 1120 q 404 1195 396 1162 q 425 1254 411 1227 q 458 1297 438 1280 q 502 1314 477 1314 q 557 1302 530 1314 q 611 1278 585 1291 q 665 1254 638 1265 q 718 1242 692 1242 q 740 1249 730 1242 q 756 1266 749 1256 q 765 1289 762 1277 q 768 1312 768 1301 q 772 1318 768 1316 q 779 1321 775 1321 l 792 1321 z "},"":{"ha":1238,"x_min":75,"x_max":1164,"o":"m 612 -18 q 552 -14 588 -18 q 474 1 517 -9 q 386 30 432 12 q 295 75 340 47 q 211 140 251 102 q 141 228 171 178 q 93 341 111 277 q 75 484 75 405 q 94 619 75 555 q 149 739 113 684 q 236 840 185 795 q 351 918 288 886 q 488 967 414 949 q 643 985 562 985 q 780 967 713 985 q 903 919 846 950 q 1009 843 961 887 q 1091 745 1057 799 q 1145 628 1126 690 q 1164 497 1164 565 q 1145 371 1164 433 q 1093 251 1127 308 q 1009 144 1058 193 q 899 59 960 96 q 765 3 838 23 q 612 -18 692 -18 m 274 509 q 285 399 274 454 q 318 294 296 345 q 372 198 340 243 q 444 121 404 154 q 535 70 485 88 q 643 51 585 51 q 785 86 725 51 q 885 178 846 121 q 944 311 925 236 q 964 466 964 386 q 952 580 964 524 q 920 687 941 636 q 867 780 899 737 q 794 853 836 822 q 704 902 753 884 q 595 919 654 919 q 499 903 543 919 q 419 858 455 886 q 357 791 384 830 q 311 707 330 752 q 283 611 293 661 q 274 509 274 560 m 729 1075 q 720 1066 726 1070 q 710 1063 714 1063 q 696 1067 703 1063 l 514 1215 q 485 1246 498 1227 q 472 1289 472 1264 q 477 1314 472 1302 q 490 1334 481 1325 q 510 1348 498 1343 q 534 1353 521 1353 q 566 1344 550 1353 q 596 1314 581 1335 l 739 1117 q 743 1108 742 1112 q 744 1100 744 1105 q 743 1095 744 1098 q 740 1089 743 1093 l 729 1075 z "},"":{"ha":1238,"x_min":75,"x_max":1164,"o":"m 612 -18 q 552 -14 588 -18 q 474 1 517 -9 q 386 30 432 12 q 295 75 340 47 q 211 140 251 102 q 141 228 171 178 q 93 341 111 277 q 75 484 75 405 q 94 619 75 555 q 149 739 113 684 q 236 840 185 795 q 351 918 288 886 q 488 967 414 949 q 643 985 562 985 q 780 967 713 985 q 903 919 846 950 q 1009 843 961 887 q 1091 745 1057 799 q 1145 628 1126 690 q 1164 497 1164 565 q 1145 371 1164 433 q 1093 251 1127 308 q 1009 144 1058 193 q 899 59 960 96 q 765 3 838 23 q 612 -18 692 -18 m 274 509 q 285 399 274 454 q 318 294 296 345 q 372 198 340 243 q 444 121 404 154 q 535 70 485 88 q 643 51 585 51 q 785 86 725 51 q 885 178 846 121 q 944 311 925 236 q 964 466 964 386 q 952 580 964 524 q 920 687 941 636 q 867 780 899 737 q 794 853 836 822 q 704 902 753 884 q 595 919 654 919 q 499 903 543 919 q 419 858 455 886 q 357 791 384 830 q 311 707 330 752 q 283 611 293 661 q 274 509 274 560 m 550 1090 q 546 1095 548 1093 q 545 1102 545 1098 q 547 1109 545 1106 q 550 1114 549 1112 l 694 1314 q 725 1344 709 1335 q 756 1353 741 1353 q 781 1348 769 1353 q 801 1334 792 1343 q 814 1314 809 1325 q 819 1289 819 1302 q 805 1246 819 1264 q 776 1215 791 1227 l 593 1067 q 587 1063 589 1063 q 581 1063 585 1063 q 571 1064 574 1063 q 565 1070 568 1066 l 550 1090 z "},"":{"ha":1238,"x_min":75,"x_max":1164,"o":"m 612 -18 q 552 -14 588 -18 q 474 1 517 -9 q 386 30 432 12 q 295 75 340 47 q 211 140 251 102 q 141 228 171 178 q 93 341 111 277 q 75 484 75 405 q 94 619 75 555 q 149 739 113 684 q 236 840 185 795 q 351 918 288 886 q 488 967 414 949 q 643 985 562 985 q 780 967 713 985 q 903 919 846 950 q 1009 843 961 887 q 1091 745 1057 799 q 1145 628 1126 690 q 1164 497 1164 565 q 1145 371 1164 433 q 1093 251 1127 308 q 1009 144 1058 193 q 899 59 960 96 q 765 3 838 23 q 612 -18 692 -18 m 274 509 q 285 399 274 454 q 318 294 296 345 q 372 198 340 243 q 444 121 404 154 q 535 70 485 88 q 643 51 585 51 q 785 86 725 51 q 885 178 846 121 q 944 311 925 236 q 964 466 964 386 q 952 580 964 524 q 920 687 941 636 q 867 780 899 737 q 794 853 836 822 q 704 902 753 884 q 595 919 654 919 q 499 903 543 919 q 419 858 455 886 q 357 791 384 830 q 311 707 330 752 q 283 611 293 661 q 274 509 274 560 m 618 1224 l 469 1068 q 460 1063 465 1065 q 452 1061 455 1061 q 444 1066 449 1061 q 434 1076 439 1070 q 425 1088 429 1082 q 422 1097 422 1094 q 424 1106 422 1103 q 429 1115 425 1109 l 595 1339 q 605 1349 599 1344 q 618 1353 612 1353 q 633 1347 626 1353 q 646 1333 641 1340 l 814 1114 q 822 1097 822 1105 q 819 1088 822 1094 q 810 1076 815 1082 q 800 1066 805 1070 q 791 1061 795 1061 q 784 1063 788 1061 q 777 1068 780 1065 l 618 1224 z "},"":{"ha":1238,"x_min":75,"x_max":1164,"o":"m 612 -18 q 552 -14 588 -18 q 474 1 517 -9 q 386 30 432 12 q 295 75 340 47 q 211 140 251 102 q 141 228 171 178 q 93 341 111 277 q 75 484 75 405 q 94 619 75 555 q 149 739 113 684 q 236 840 185 795 q 351 918 288 886 q 488 967 414 949 q 643 985 562 985 q 780 967 713 985 q 903 919 846 950 q 1009 843 961 887 q 1091 745 1057 799 q 1145 628 1126 690 q 1164 497 1164 565 q 1145 371 1164 433 q 1093 251 1127 308 q 1009 144 1058 193 q 899 59 960 96 q 765 3 838 23 q 612 -18 692 -18 m 274 509 q 285 399 274 454 q 318 294 296 345 q 372 198 340 243 q 444 121 404 154 q 535 70 485 88 q 643 51 585 51 q 785 86 725 51 q 885 178 846 121 q 944 311 925 236 q 964 466 964 386 q 952 580 964 524 q 920 687 941 636 q 867 780 899 737 q 794 853 836 822 q 704 902 753 884 q 595 919 654 919 q 499 903 543 919 q 419 858 455 886 q 357 791 384 830 q 311 707 330 752 q 283 611 293 661 q 274 509 274 560 m 817 1273 q 822 1270 820 1273 q 824 1262 823 1266 q 826 1253 825 1257 q 826 1245 826 1248 q 819 1195 826 1223 q 797 1144 811 1168 q 762 1104 783 1120 q 716 1088 742 1088 q 663 1099 688 1088 q 612 1123 637 1109 q 562 1147 587 1136 q 511 1158 537 1158 q 491 1152 501 1158 q 471 1136 480 1146 q 457 1111 463 1125 q 451 1080 451 1097 q 448 1074 451 1075 q 440 1072 444 1072 l 426 1072 q 420 1083 420 1072 q 428 1147 420 1114 q 449 1206 435 1179 q 482 1249 463 1232 q 526 1265 502 1265 q 582 1254 555 1265 q 636 1230 609 1243 q 689 1205 663 1217 q 743 1194 716 1194 q 764 1201 755 1194 q 780 1218 774 1208 q 790 1241 787 1229 q 793 1263 793 1253 q 796 1270 793 1267 q 804 1273 800 1273 l 817 1273 z "},"":{"ha":1238,"x_min":75,"x_max":1164,"o":"m 612 -18 q 552 -14 588 -18 q 474 1 517 -9 q 386 30 432 12 q 295 75 340 47 q 211 140 251 102 q 141 228 171 178 q 93 341 111 277 q 75 484 75 405 q 94 619 75 555 q 149 739 113 684 q 236 840 185 795 q 351 918 288 886 q 488 967 414 949 q 643 985 562 985 q 780 967 713 985 q 903 919 846 950 q 1009 843 961 887 q 1091 745 1057 799 q 1145 628 1126 690 q 1164 497 1164 565 q 1145 371 1164 433 q 1093 251 1127 308 q 1009 144 1058 193 q 899 59 960 96 q 765 3 838 23 q 612 -18 692 -18 m 274 509 q 285 399 274 454 q 318 294 296 345 q 372 198 340 243 q 444 121 404 154 q 535 70 485 88 q 643 51 585 51 q 785 86 725 51 q 885 178 846 121 q 944 311 925 236 q 964 466 964 386 q 952 580 964 524 q 920 687 941 636 q 867 780 899 737 q 794 853 836 822 q 704 902 753 884 q 595 919 654 919 q 499 903 543 919 q 419 858 455 886 q 357 791 384 830 q 311 707 330 752 q 283 611 293 661 q 274 509 274 560 m 472 1081 q 435 1088 452 1081 q 406 1107 418 1095 q 386 1136 393 1120 q 379 1173 379 1153 q 386 1210 379 1192 q 406 1239 393 1227 q 435 1259 418 1252 q 472 1267 452 1267 q 509 1259 492 1267 q 538 1239 526 1252 q 558 1210 551 1227 q 565 1173 565 1192 q 558 1136 565 1153 q 538 1107 551 1120 q 509 1088 526 1095 q 472 1081 492 1081 m 770 1081 q 733 1088 750 1081 q 704 1107 717 1095 q 684 1136 691 1120 q 677 1173 677 1153 q 684 1210 677 1192 q 704 1239 691 1227 q 733 1259 717 1252 q 770 1267 750 1267 q 807 1259 790 1267 q 836 1239 824 1252 q 856 1210 848 1227 q 863 1173 863 1192 q 856 1136 863 1153 q 836 1107 848 1120 q 807 1088 824 1095 q 770 1081 790 1081 z "},"":{"ha":711,"x_min":71,"x_max":640,"o":"m 161 709 l 356 515 l 550 709 l 640 620 l 445 426 l 638 231 l 549 141 l 355 336 l 161 141 l 71 231 l 265 425 l 71 619 l 161 709 z "},"":{"ha":1238,"x_min":75,"x_max":1164,"o":"m 226 126 q 166 191 193 155 q 118 271 138 227 q 86 368 98 315 q 75 484 75 421 q 94 619 75 555 q 149 739 113 684 q 236 840 185 795 q 351 918 288 886 q 488 967 414 949 q 643 985 562 985 q 807 960 729 985 q 951 889 885 935 l 1083 1029 l 1143 972 l 1015 838 q 1124 685 1084 772 q 1164 497 1164 597 q 1145 371 1164 433 q 1093 251 1127 308 q 1009 144 1058 193 q 899 59 960 96 q 765 3 838 23 q 612 -18 692 -18 q 551 -13 587 -18 q 473 2 515 -9 q 384 31 430 12 q 292 77 337 49 l 139 -85 l 79 -28 l 226 126 m 274 509 q 291 374 274 441 q 340 247 308 307 l 858 791 q 745 884 810 850 q 595 919 679 919 q 499 903 543 919 q 419 858 455 886 q 357 791 384 830 q 311 707 330 752 q 283 611 293 661 q 274 509 274 560 m 964 466 q 948 599 964 534 q 903 720 933 664 l 388 177 q 499 85 435 120 q 643 51 563 51 q 785 86 725 51 q 885 178 846 121 q 944 311 925 236 q 964 466 964 386 z "},"":{"ha":1134,"x_min":24,"x_max":1118,"o":"m 143 838 q 134 872 143 857 q 109 898 125 888 q 73 913 94 908 q 30 919 53 919 q 24 924 24 919 l 24 951 q 29 956 24 956 l 458 956 q 462 954 461 956 q 463 951 463 952 l 463 924 q 462 921 463 923 q 458 919 461 919 q 416 916 437 919 q 377 904 395 913 q 348 877 359 895 q 336 828 336 859 l 336 353 q 406 143 336 217 q 612 68 475 68 q 722 84 669 68 q 814 134 774 100 q 878 218 854 167 q 901 341 901 270 l 901 762 q 900 810 901 785 q 888 856 898 834 q 859 893 879 878 q 801 916 838 909 q 773 919 784 918 q 758 919 762 919 q 753 924 753 919 l 753 951 q 758 956 753 956 l 1112 956 q 1117 954 1116 956 q 1118 951 1118 952 l 1118 924 q 1116 921 1118 923 q 1112 919 1115 919 q 1069 915 1088 919 q 1041 907 1050 911 q 1020 893 1029 903 q 1004 872 1010 883 q 994 849 998 861 q 991 828 991 837 l 991 394 q 966 222 991 298 q 890 93 941 146 q 763 11 840 39 q 584 -18 686 -18 q 483 -11 535 -18 q 382 13 431 -3 q 290 55 333 29 q 214 117 246 81 q 162 199 181 153 q 143 305 143 246 l 143 838 l 143 838 m 664 1058 q 655 1049 661 1053 q 645 1046 649 1046 q 631 1050 637 1046 l 449 1198 q 420 1229 433 1211 q 407 1272 407 1247 q 412 1297 407 1285 q 425 1317 416 1308 q 445 1331 433 1326 q 469 1336 456 1336 q 500 1327 485 1336 q 531 1297 516 1318 l 673 1100 q 678 1092 677 1095 q 679 1083 679 1088 q 678 1078 679 1081 q 675 1072 677 1076 l 664 1058 z "},"":{"ha":1134,"x_min":24,"x_max":1118,"o":"m 143 838 q 134 872 143 857 q 109 898 125 888 q 73 913 94 908 q 30 919 53 919 q 24 924 24 919 l 24 951 q 29 956 24 956 l 458 956 q 462 954 461 956 q 463 951 463 952 l 463 924 q 462 921 463 923 q 458 919 461 919 q 416 916 437 919 q 377 904 395 913 q 348 877 359 895 q 336 828 336 859 l 336 353 q 406 143 336 217 q 612 68 475 68 q 722 84 669 68 q 814 134 774 100 q 878 218 854 167 q 901 341 901 270 l 901 762 q 900 810 901 785 q 888 856 898 834 q 859 893 879 878 q 801 916 838 909 q 773 919 784 918 q 758 919 762 919 q 753 924 753 919 l 753 951 q 758 956 753 956 l 1112 956 q 1117 954 1116 956 q 1118 951 1118 952 l 1118 924 q 1116 921 1118 923 q 1112 919 1115 919 q 1069 915 1088 919 q 1041 907 1050 911 q 1020 893 1029 903 q 1004 872 1010 883 q 994 849 998 861 q 991 828 991 837 l 991 394 q 966 222 991 298 q 890 93 941 146 q 763 11 840 39 q 584 -18 686 -18 q 483 -11 535 -18 q 382 13 431 -3 q 290 55 333 29 q 214 117 246 81 q 162 199 181 153 q 143 305 143 246 l 143 838 l 143 838 m 519 1073 q 516 1078 517 1076 q 514 1085 514 1081 q 516 1092 514 1089 q 519 1097 518 1095 l 664 1297 q 694 1327 679 1318 q 726 1336 710 1336 q 750 1331 739 1336 q 770 1317 762 1326 q 783 1297 779 1308 q 788 1272 788 1285 q 774 1229 788 1247 q 745 1198 761 1211 l 562 1050 q 556 1046 558 1046 q 550 1046 555 1046 q 541 1047 544 1046 q 534 1053 538 1049 l 519 1073 z "},"":{"ha":1134,"x_min":24,"x_max":1118,"o":"m 143 838 q 134 872 143 857 q 109 898 125 888 q 73 913 94 908 q 30 919 53 919 q 24 924 24 919 l 24 951 q 29 956 24 956 l 458 956 q 462 954 461 956 q 463 951 463 952 l 463 924 q 462 921 463 923 q 458 919 461 919 q 416 916 437 919 q 377 904 395 913 q 348 877 359 895 q 336 828 336 859 l 336 353 q 406 143 336 217 q 612 68 475 68 q 722 84 669 68 q 814 134 774 100 q 878 218 854 167 q 901 341 901 270 l 901 762 q 900 810 901 785 q 888 856 898 834 q 859 893 879 878 q 801 916 838 909 q 773 919 784 918 q 758 919 762 919 q 753 924 753 919 l 753 951 q 758 956 753 956 l 1112 956 q 1117 954 1116 956 q 1118 951 1118 952 l 1118 924 q 1116 921 1118 923 q 1112 919 1115 919 q 1069 915 1088 919 q 1041 907 1050 911 q 1020 893 1029 903 q 1004 872 1010 883 q 994 849 998 861 q 991 828 991 837 l 991 394 q 966 222 991 298 q 890 93 941 146 q 763 11 840 39 q 584 -18 686 -18 q 483 -11 535 -18 q 382 13 431 -3 q 290 55 333 29 q 214 117 246 81 q 162 199 181 153 q 143 305 143 246 l 143 838 l 143 838 m 602 1207 l 452 1051 q 444 1046 449 1048 q 436 1044 439 1044 q 428 1049 433 1044 q 417 1059 422 1053 q 409 1071 412 1065 q 406 1080 406 1077 q 407 1089 406 1086 q 413 1098 409 1093 l 579 1322 q 589 1332 583 1327 q 602 1336 595 1336 q 617 1330 610 1336 q 630 1316 625 1323 l 798 1097 q 806 1080 806 1088 q 802 1071 806 1077 q 794 1059 799 1065 q 784 1049 789 1053 q 775 1044 779 1044 q 768 1046 772 1044 q 760 1051 764 1048 l 602 1207 z "},"":{"ha":1134,"x_min":24,"x_max":1118,"o":"m 143 838 q 134 872 143 857 q 109 898 125 888 q 73 913 94 908 q 30 919 53 919 q 24 924 24 919 l 24 951 q 29 956 24 956 l 458 956 q 462 954 461 956 q 463 951 463 952 l 463 924 q 462 921 463 923 q 458 919 461 919 q 416 916 437 919 q 377 904 395 913 q 348 877 359 895 q 336 828 336 859 l 336 353 q 406 143 336 217 q 612 68 475 68 q 722 84 669 68 q 814 134 774 100 q 878 218 854 167 q 901 341 901 270 l 901 762 q 900 810 901 785 q 888 856 898 834 q 859 893 879 878 q 801 916 838 909 q 773 919 784 918 q 758 919 762 919 q 753 924 753 919 l 753 951 q 758 956 753 956 l 1112 956 q 1117 954 1116 956 q 1118 951 1118 952 l 1118 924 q 1116 921 1118 923 q 1112 919 1115 919 q 1069 915 1088 919 q 1041 907 1050 911 q 1020 893 1029 903 q 1004 872 1010 883 q 994 849 998 861 q 991 828 991 837 l 991 394 q 966 222 991 298 q 890 93 941 146 q 763 11 840 39 q 584 -18 686 -18 q 483 -11 535 -18 q 382 13 431 -3 q 290 55 333 29 q 214 117 246 81 q 162 199 181 153 q 143 305 143 246 l 143 838 l 143 838 m 475 1128 q 438 1135 455 1128 q 409 1154 421 1142 q 389 1183 396 1166 q 382 1219 382 1200 q 389 1256 382 1239 q 409 1286 396 1274 q 438 1306 421 1299 q 475 1314 455 1314 q 511 1306 494 1314 q 541 1286 528 1299 q 561 1256 553 1274 q 568 1219 568 1239 q 561 1183 568 1200 q 541 1154 553 1166 q 511 1135 528 1142 q 475 1128 494 1128 m 772 1128 q 736 1135 753 1128 q 707 1154 720 1142 q 687 1183 694 1166 q 680 1219 680 1200 q 687 1256 680 1239 q 707 1286 694 1274 q 736 1306 720 1299 q 772 1314 753 1314 q 810 1306 793 1314 q 839 1286 827 1299 q 858 1256 851 1274 q 865 1219 865 1239 q 858 1183 865 1200 q 839 1154 851 1166 q 810 1135 827 1142 q 772 1128 793 1128 z "},"":{"ha":1061,"x_min":-57,"x_max":1045,"o":"m 423 335 q 421 342 423 339 l 144 785 q 119 822 132 804 q 90 858 106 841 q 55 887 74 874 q 15 905 37 899 q 4 907 12 905 q -12 910 -3 909 q -27 913 -20 911 q -38 915 -35 914 q -51 923 -45 916 q -57 937 -57 931 q -57 942 -57 939 q -55 948 -56 945 q -52 954 -54 951 q -47 956 -50 956 l 414 956 q 423 949 421 956 q 425 937 425 943 q 424 923 425 930 q 416 916 423 916 q 382 913 398 914 q 354 906 366 911 q 336 891 342 901 q 329 863 329 881 q 337 833 329 846 l 544 501 q 554 487 551 490 q 562 484 556 484 q 570 490 566 484 q 579 504 574 495 l 743 781 q 762 816 752 797 q 772 854 772 835 q 767 885 772 873 q 751 902 762 896 q 727 911 741 908 q 693 916 712 913 q 684 924 686 916 q 683 937 683 931 q 685 949 683 942 q 694 956 686 956 l 1036 956 q 1043 948 1041 956 q 1045 937 1045 941 q 1041 926 1045 930 q 1030 918 1036 921 q 1016 913 1023 915 q 1003 910 1009 911 q 944 885 969 903 q 896 842 920 868 q 886 831 892 839 q 879 823 880 824 l 616 372 l 616 132 q 637 69 616 92 q 712 41 659 47 q 731 41 720 41 q 751 41 743 41 q 755 39 754 41 q 756 35 756 37 l 756 5 q 755 2 756 4 q 751 0 754 0 l 289 0 q 284 2 286 0 q 283 5 283 4 l 283 35 q 284 39 283 37 q 289 41 286 41 q 308 41 296 41 q 328 41 320 41 q 402 69 381 47 q 423 132 423 92 l 423 335 m 458 1073 q 455 1078 456 1076 q 453 1085 453 1081 q 455 1092 453 1089 q 458 1097 457 1095 l 603 1297 q 633 1327 618 1318 q 665 1336 649 1336 q 689 1331 677 1336 q 709 1317 701 1326 q 722 1297 718 1308 q 727 1272 727 1285 q 713 1229 727 1247 q 684 1198 700 1211 l 501 1050 q 495 1046 497 1046 q 489 1046 494 1046 q 480 1047 483 1046 q 473 1053 477 1049 l 458 1073 z "},"":{"ha":847,"x_min":27,"x_max":798,"o":"m 27 35 q 28 39 27 37 q 33 41 29 41 q 114 65 85 41 q 143 129 143 90 l 143 819 q 120 893 143 871 q 45 916 97 916 l 33 916 q 28 918 29 916 q 27 922 27 920 l 27 951 q 28 954 27 952 q 33 956 29 956 l 446 956 q 450 954 449 956 q 451 951 451 952 l 451 922 q 450 918 451 920 q 446 916 449 916 l 433 916 q 395 914 413 916 q 365 906 378 912 q 344 886 351 899 q 336 851 336 873 l 336 797 q 366 798 356 798 q 384 799 376 798 q 401 800 391 800 q 430 800 410 800 l 485 800 q 595 781 539 800 q 696 723 651 762 q 770 625 741 684 q 798 487 798 566 q 784 412 798 448 q 747 345 770 376 q 694 289 724 314 q 633 245 665 263 q 569 217 601 227 q 509 208 536 208 l 505 208 l 352 212 q 347 212 351 212 q 339 211 342 212 q 336 205 336 209 l 336 120 q 352 78 336 94 q 391 54 368 62 q 444 43 415 46 q 499 41 473 41 q 505 36 505 41 l 505 5 q 499 0 505 0 l 33 0 q 28 2 29 0 q 27 5 27 4 l 27 35 m 336 296 q 340 286 337 290 q 351 281 343 281 q 369 278 357 280 q 403 277 381 277 q 485 295 448 277 q 548 346 522 313 q 588 424 574 379 q 602 524 602 469 q 588 621 602 579 q 548 691 574 663 q 487 733 523 719 q 408 747 452 747 q 393 746 399 747 q 383 746 388 746 q 371 745 378 745 q 353 744 365 745 q 343 742 349 744 q 336 735 338 741 l 336 316 l 336 296 z "},"":{"ha":885,"x_min":16,"x_max":820,"o":"m 379 618 q 547 688 487 629 q 606 847 606 748 q 595 930 606 892 q 565 996 585 968 q 516 1038 545 1023 q 452 1053 487 1053 q 382 1035 414 1053 q 327 985 350 1017 q 290 910 303 954 q 276 816 276 867 l 276 124 q 280 81 276 98 q 293 56 283 65 q 317 43 302 46 q 355 39 332 39 q 390 20 390 36 q 389 14 390 18 q 385 7 388 10 q 373 2 381 4 q 353 0 366 0 l 42 0 q 21 8 26 4 q 16 20 16 13 q 26 32 16 28 q 63 44 37 37 q 81 49 71 46 q 99 59 91 52 q 113 78 108 66 q 119 111 119 90 l 119 718 q 133 846 119 789 q 172 947 147 903 q 231 1022 197 991 q 304 1074 265 1053 q 386 1103 344 1094 q 471 1113 429 1113 q 587 1093 534 1113 q 681 1040 641 1074 q 743 960 720 1006 q 766 861 766 914 q 708 713 766 779 q 546 605 651 647 q 646 567 597 591 q 734 504 695 542 q 796 416 772 467 q 820 301 820 366 q 807 199 820 245 q 772 118 794 153 q 722 57 751 83 q 663 15 694 31 q 601 -10 632 -2 q 542 -18 570 -18 q 469 -7 497 -18 q 441 32 441 4 q 454 67 441 54 q 492 81 467 81 q 517 76 505 81 q 543 64 530 71 q 567 52 555 57 q 592 46 580 46 q 617 64 606 46 q 637 114 629 83 q 649 187 645 146 q 654 275 654 229 q 634 421 654 359 q 578 519 614 484 q 541 547 561 536 q 496 564 521 557 q 443 573 472 570 q 379 575 414 575 l 379 618 z "},"":{"ha":690,"x_min":47,"x_max":673,"o":"m 330 14 q 277 -11 308 -2 q 216 -20 247 -20 q 91 18 134 -20 q 47 119 47 55 q 64 182 47 155 q 113 229 81 208 q 194 266 146 249 q 304 298 241 282 q 359 317 338 307 q 397 337 380 328 q 411 348 409 343 q 412 357 412 353 l 412 475 q 406 516 412 497 q 387 550 399 536 q 355 572 374 564 q 314 581 337 581 q 277 574 294 581 q 248 554 260 567 q 229 524 236 541 q 222 484 222 506 q 222 477 222 481 q 223 469 222 473 q 224 461 224 465 q 225 457 225 458 q 214 452 224 456 q 188 443 203 448 q 155 432 173 437 q 120 422 136 427 q 91 414 103 418 q 73 410 78 410 q 64 417 66 410 q 62 433 62 425 q 86 509 62 472 q 150 575 110 547 q 241 622 189 604 q 347 640 292 640 q 435 627 396 640 q 500 592 473 614 q 542 542 528 570 q 556 480 556 513 l 556 157 q 569 125 556 139 q 604 111 583 111 q 626 116 616 111 q 643 126 635 120 q 656 136 651 132 q 666 140 662 140 q 672 136 671 140 q 673 128 673 132 q 670 105 673 117 q 659 87 667 93 q 600 42 626 62 q 553 8 574 22 q 515 -14 532 -6 q 484 -21 498 -21 q 459 -14 470 -21 q 441 5 449 -6 q 428 28 433 16 q 419 52 422 41 q 413 69 415 62 q 410 75 411 76 l 330 14 m 205 135 q 213 105 205 117 q 231 87 220 94 q 257 79 243 81 q 288 77 272 77 q 323 84 302 77 q 364 103 344 91 q 398 130 384 115 q 412 161 412 145 l 412 273 q 407 280 412 280 q 404 279 406 280 l 247 206 q 230 194 237 199 q 216 180 222 188 q 208 162 211 172 q 205 135 205 151 m 427 720 q 418 712 424 715 q 408 708 412 708 q 395 713 401 708 l 212 860 q 183 891 197 873 q 170 935 170 909 q 175 959 170 947 q 188 979 180 970 q 208 993 197 988 q 233 998 219 998 q 264 989 248 998 q 294 960 279 980 l 437 762 q 441 754 440 758 q 442 745 442 750 q 441 741 442 743 q 438 734 441 738 l 427 720 z "},"":{"ha":690,"x_min":47,"x_max":673,"o":"m 330 14 q 277 -11 308 -2 q 216 -20 247 -20 q 91 18 134 -20 q 47 119 47 55 q 64 182 47 155 q 113 229 81 208 q 194 266 146 249 q 304 298 241 282 q 359 317 338 307 q 397 337 380 328 q 411 348 409 343 q 412 357 412 353 l 412 475 q 406 516 412 497 q 387 550 399 536 q 355 572 374 564 q 314 581 337 581 q 277 574 294 581 q 248 554 260 567 q 229 524 236 541 q 222 484 222 506 q 222 477 222 481 q 223 469 222 473 q 224 461 224 465 q 225 457 225 458 q 214 452 224 456 q 188 443 203 448 q 155 432 173 437 q 120 422 136 427 q 91 414 103 418 q 73 410 78 410 q 64 417 66 410 q 62 433 62 425 q 86 509 62 472 q 150 575 110 547 q 241 622 189 604 q 347 640 292 640 q 435 627 396 640 q 500 592 473 614 q 542 542 528 570 q 556 480 556 513 l 556 157 q 569 125 556 139 q 604 111 583 111 q 626 116 616 111 q 643 126 635 120 q 656 136 651 132 q 666 140 662 140 q 672 136 671 140 q 673 128 673 132 q 670 105 673 117 q 659 87 667 93 q 600 42 626 62 q 553 8 574 22 q 515 -14 532 -6 q 484 -21 498 -21 q 459 -14 470 -21 q 441 5 449 -6 q 428 28 433 16 q 419 52 422 41 q 413 69 415 62 q 410 75 411 76 l 330 14 m 205 135 q 213 105 205 117 q 231 87 220 94 q 257 79 243 81 q 288 77 272 77 q 323 84 302 77 q 364 103 344 91 q 398 130 384 115 q 412 161 412 145 l 412 273 q 407 280 412 280 q 404 279 406 280 l 247 206 q 230 194 237 199 q 216 180 222 188 q 208 162 211 172 q 205 135 205 151 m 275 735 q 271 741 273 738 q 269 747 269 743 q 271 754 269 751 q 275 760 273 757 l 419 960 q 450 989 434 980 q 481 998 465 998 q 505 993 494 998 q 525 979 517 988 q 538 959 534 970 q 543 935 543 947 q 530 891 543 909 q 500 860 516 873 l 317 712 q 312 708 313 709 q 305 708 310 708 q 296 710 299 708 q 290 715 293 711 l 275 735 z "},"":{"ha":690,"x_min":47,"x_max":673,"o":"m 330 14 q 277 -11 308 -2 q 216 -20 247 -20 q 91 18 134 -20 q 47 119 47 55 q 64 182 47 155 q 113 229 81 208 q 194 266 146 249 q 304 298 241 282 q 359 317 338 307 q 397 337 380 328 q 411 348 409 343 q 412 357 412 353 l 412 475 q 406 516 412 497 q 387 550 399 536 q 355 572 374 564 q 314 581 337 581 q 277 574 294 581 q 248 554 260 567 q 229 524 236 541 q 222 484 222 506 q 222 477 222 481 q 223 469 222 473 q 224 461 224 465 q 225 457 225 458 q 214 452 224 456 q 188 443 203 448 q 155 432 173 437 q 120 422 136 427 q 91 414 103 418 q 73 410 78 410 q 64 417 66 410 q 62 433 62 425 q 86 509 62 472 q 150 575 110 547 q 241 622 189 604 q 347 640 292 640 q 435 627 396 640 q 500 592 473 614 q 542 542 528 570 q 556 480 556 513 l 556 157 q 569 125 556 139 q 604 111 583 111 q 626 116 616 111 q 643 126 635 120 q 656 136 651 132 q 666 140 662 140 q 672 136 671 140 q 673 128 673 132 q 670 105 673 117 q 659 87 667 93 q 600 42 626 62 q 553 8 574 22 q 515 -14 532 -6 q 484 -21 498 -21 q 459 -14 470 -21 q 441 5 449 -6 q 428 28 433 16 q 419 52 422 41 q 413 69 415 62 q 410 75 411 76 l 330 14 m 205 135 q 213 105 205 117 q 231 87 220 94 q 257 79 243 81 q 288 77 272 77 q 323 84 302 77 q 364 103 344 91 q 398 130 384 115 q 412 161 412 145 l 412 273 q 407 280 412 280 q 404 279 406 280 l 247 206 q 230 194 237 199 q 216 180 222 188 q 208 162 211 172 q 205 135 205 151 m 340 870 l 191 714 q 182 709 187 711 q 174 707 177 707 q 166 712 171 707 q 156 722 161 716 q 147 734 151 728 q 144 743 144 740 q 145 752 144 749 q 151 761 147 755 l 317 985 q 327 995 321 990 q 340 999 334 999 q 355 992 348 999 q 368 979 363 986 l 536 760 q 544 743 544 751 q 541 734 544 740 q 532 722 537 728 q 522 712 527 716 q 513 707 517 707 q 506 709 510 707 q 498 714 502 711 l 340 870 z "},"":{"ha":690,"x_min":47,"x_max":673,"o":"m 330 14 q 277 -11 308 -2 q 216 -20 247 -20 q 91 18 134 -20 q 47 119 47 55 q 64 182 47 155 q 113 229 81 208 q 194 266 146 249 q 304 298 241 282 q 359 317 338 307 q 397 337 380 328 q 411 348 409 343 q 412 357 412 353 l 412 475 q 406 516 412 497 q 387 550 399 536 q 355 572 374 564 q 314 581 337 581 q 277 574 294 581 q 248 554 260 567 q 229 524 236 541 q 222 484 222 506 q 222 477 222 481 q 223 469 222 473 q 224 461 224 465 q 225 457 225 458 q 214 452 224 456 q 188 443 203 448 q 155 432 173 437 q 120 422 136 427 q 91 414 103 418 q 73 410 78 410 q 64 417 66 410 q 62 433 62 425 q 86 509 62 472 q 150 575 110 547 q 241 622 189 604 q 347 640 292 640 q 435 627 396 640 q 500 592 473 614 q 542 542 528 570 q 556 480 556 513 l 556 157 q 569 125 556 139 q 604 111 583 111 q 626 116 616 111 q 643 126 635 120 q 656 136 651 132 q 666 140 662 140 q 672 136 671 140 q 673 128 673 132 q 670 105 673 117 q 659 87 667 93 q 600 42 626 62 q 553 8 574 22 q 515 -14 532 -6 q 484 -21 498 -21 q 459 -14 470 -21 q 441 5 449 -6 q 428 28 433 16 q 419 52 422 41 q 413 69 415 62 q 410 75 411 76 l 330 14 m 205 135 q 213 105 205 117 q 231 87 220 94 q 257 79 243 81 q 288 77 272 77 q 323 84 302 77 q 364 103 344 91 q 398 130 384 115 q 412 161 412 145 l 412 273 q 407 280 412 280 q 404 279 406 280 l 247 206 q 230 194 237 199 q 216 180 222 188 q 208 162 211 172 q 205 135 205 151 m 529 941 q 534 938 532 941 q 537 930 536 935 q 538 921 538 926 q 538 913 538 916 q 531 864 538 891 q 509 812 524 836 q 475 772 495 789 q 429 756 454 756 q 375 767 401 756 q 325 791 349 778 q 275 815 300 804 q 223 827 250 827 q 203 821 214 827 q 184 804 193 814 q 169 779 175 793 q 163 749 163 765 q 160 742 163 743 q 153 741 157 741 l 138 741 q 133 751 133 741 q 140 815 133 783 q 161 874 148 848 q 195 917 175 901 q 239 934 214 934 q 294 923 267 934 q 348 898 321 911 q 402 874 375 885 q 455 863 429 863 q 477 869 467 863 q 493 887 486 876 q 502 909 499 897 q 505 932 505 922 q 509 939 505 936 q 516 941 512 941 l 529 941 z "},"":{"ha":690,"x_min":47,"x_max":673,"o":"m 330 14 q 277 -11 308 -2 q 216 -20 247 -20 q 91 18 134 -20 q 47 119 47 55 q 64 182 47 155 q 113 229 81 208 q 194 266 146 249 q 304 298 241 282 q 359 317 338 307 q 397 337 380 328 q 411 348 409 343 q 412 357 412 353 l 412 475 q 406 516 412 497 q 387 550 399 536 q 355 572 374 564 q 314 581 337 581 q 277 574 294 581 q 248 554 260 567 q 229 524 236 541 q 222 484 222 506 q 222 477 222 481 q 223 469 222 473 q 224 461 224 465 q 225 457 225 458 q 214 452 224 456 q 188 443 203 448 q 155 432 173 437 q 120 422 136 427 q 91 414 103 418 q 73 410 78 410 q 64 417 66 410 q 62 433 62 425 q 86 509 62 472 q 150 575 110 547 q 241 622 189 604 q 347 640 292 640 q 435 627 396 640 q 500 592 473 614 q 542 542 528 570 q 556 480 556 513 l 556 157 q 569 125 556 139 q 604 111 583 111 q 626 116 616 111 q 643 126 635 120 q 656 136 651 132 q 666 140 662 140 q 672 136 671 140 q 673 128 673 132 q 670 105 673 117 q 659 87 667 93 q 600 42 626 62 q 553 8 574 22 q 515 -14 532 -6 q 484 -21 498 -21 q 459 -14 470 -21 q 441 5 449 -6 q 428 28 433 16 q 419 52 422 41 q 413 69 415 62 q 410 75 411 76 l 330 14 m 205 135 q 213 105 205 117 q 231 87 220 94 q 257 79 243 81 q 288 77 272 77 q 323 84 302 77 q 364 103 344 91 q 398 130 384 115 q 412 161 412 145 l 412 273 q 407 280 412 280 q 404 279 406 280 l 247 206 q 230 194 237 199 q 216 180 222 188 q 208 162 211 172 q 205 135 205 151 m 172 741 q 136 748 153 741 q 106 767 119 755 q 86 796 94 779 q 79 832 79 812 q 86 869 79 852 q 106 899 94 886 q 136 919 119 911 q 172 926 153 926 q 209 919 192 926 q 238 899 226 911 q 258 869 251 886 q 265 832 265 852 q 258 796 265 812 q 238 767 251 779 q 209 748 226 755 q 172 741 192 741 m 470 741 q 434 748 450 741 q 404 767 417 755 q 384 796 391 779 q 377 832 377 812 q 384 869 377 852 q 404 899 391 886 q 434 919 417 911 q 470 926 450 926 q 507 919 490 926 q 536 899 524 911 q 556 869 549 886 q 563 832 563 852 q 556 796 563 812 q 536 767 549 779 q 507 748 524 755 q 470 741 490 741 z "},"":{"ha":690,"x_min":47,"x_max":673,"o":"m 330 14 q 277 -11 308 -2 q 216 -20 247 -20 q 91 18 134 -20 q 47 119 47 55 q 64 182 47 155 q 113 229 81 208 q 194 266 146 249 q 304 298 241 282 q 359 317 338 307 q 397 337 380 328 q 411 348 409 343 q 412 357 412 353 l 412 475 q 406 516 412 497 q 387 550 399 536 q 355 572 374 564 q 314 581 337 581 q 277 574 294 581 q 248 554 260 567 q 229 524 236 541 q 222 484 222 506 q 222 477 222 481 q 223 469 222 473 q 224 461 224 465 q 225 457 225 458 q 214 452 224 456 q 188 443 203 448 q 155 432 173 437 q 120 422 136 427 q 91 414 103 418 q 73 410 78 410 q 64 417 66 410 q 62 433 62 425 q 86 509 62 472 q 150 575 110 547 q 241 622 189 604 q 347 640 292 640 q 435 627 396 640 q 500 592 473 614 q 542 542 528 570 q 556 480 556 513 l 556 157 q 569 125 556 139 q 604 111 583 111 q 626 116 616 111 q 643 126 635 120 q 656 136 651 132 q 666 140 662 140 q 672 136 671 140 q 673 128 673 132 q 670 105 673 117 q 659 87 667 93 q 600 42 626 62 q 553 8 574 22 q 515 -14 532 -6 q 484 -21 498 -21 q 459 -14 470 -21 q 441 5 449 -6 q 428 28 433 16 q 419 52 422 41 q 413 69 415 62 q 410 75 411 76 l 330 14 m 205 135 q 213 105 205 117 q 231 87 220 94 q 257 79 243 81 q 288 77 272 77 q 323 84 302 77 q 364 103 344 91 q 398 130 384 115 q 412 161 412 145 l 412 273 q 407 280 412 280 q 404 279 406 280 l 247 206 q 230 194 237 199 q 216 180 222 188 q 208 162 211 172 q 205 135 205 151 m 267 857 q 273 826 267 840 q 290 802 279 812 q 314 785 300 791 q 345 779 328 779 q 374 785 360 779 q 399 802 388 791 q 416 826 410 812 q 422 857 422 840 q 416 886 422 872 q 399 911 410 900 q 374 928 388 922 q 345 934 360 934 q 314 928 328 934 q 290 911 300 922 q 273 886 279 900 q 267 857 267 872 m 199 857 q 211 913 199 886 q 242 959 222 939 q 288 990 262 979 q 345 1002 315 1002 q 401 990 374 1002 q 447 959 427 979 q 478 913 467 939 q 490 857 490 886 q 478 800 490 827 q 447 754 467 774 q 401 723 427 734 q 345 711 374 711 q 288 723 315 711 q 242 754 262 734 q 211 800 222 774 q 199 857 199 827 z "},"":{"ha":1032,"x_min":47,"x_max":985,"o":"m 216 -20 q 91 18 134 -20 q 47 119 47 55 q 64 182 47 155 q 113 229 81 208 q 194 266 146 249 q 304 298 241 282 q 359 317 338 307 q 397 337 380 328 q 411 348 409 343 q 412 357 412 353 l 412 475 q 406 516 412 497 q 387 550 399 536 q 355 572 374 564 q 314 581 337 581 q 277 574 294 581 q 248 554 260 567 q 229 524 236 541 q 222 484 222 506 q 222 477 222 481 q 223 469 222 473 q 224 461 224 465 q 225 457 225 458 q 214 452 224 456 q 188 443 203 448 q 155 432 173 437 q 120 422 136 427 q 91 414 103 418 q 73 410 78 410 q 64 417 66 410 q 62 433 62 425 q 86 509 62 472 q 150 575 110 547 q 241 622 189 604 q 347 640 292 640 q 456 619 410 640 q 527 565 501 599 q 621 620 568 601 q 739 640 673 640 q 781 636 762 640 q 814 628 799 633 q 843 616 829 623 q 869 601 856 609 q 905 572 885 593 q 943 523 925 551 q 972 464 960 495 q 985 403 985 432 q 981 382 985 393 q 968 371 977 371 l 568 371 q 559 359 562 371 q 557 329 557 347 q 574 223 557 269 q 621 144 591 176 q 688 95 650 112 q 768 79 726 79 q 819 86 794 79 q 865 104 843 93 q 907 130 888 116 q 945 159 927 144 q 950 160 949 160 q 956 157 952 160 q 968 144 962 151 q 977 132 974 137 q 979 128 979 130 q 977 123 979 126 q 922 72 954 97 q 852 26 889 46 q 777 -6 815 6 q 703 -18 738 -18 q 624 -8 661 -18 q 556 19 587 1 q 501 60 526 36 q 458 112 477 83 q 402 64 432 87 q 340 22 372 40 q 277 -8 309 3 q 216 -20 245 -20 m 810 423 q 827 439 827 423 q 819 489 827 465 q 795 530 810 512 q 757 558 779 548 q 708 568 735 568 q 651 554 675 568 q 610 521 627 541 q 584 480 593 501 q 576 444 576 459 q 579 428 576 433 q 588 423 583 423 l 810 423 m 412 278 q 407 280 410 280 q 404 279 406 280 l 247 206 q 230 194 237 199 q 216 180 222 188 q 208 162 211 172 q 205 135 205 151 q 213 105 205 117 q 231 87 220 94 q 257 79 243 81 q 288 77 272 77 q 323 84 302 77 q 364 103 344 91 q 398 130 384 115 q 412 161 412 145 l 412 253 q 412 264 412 258 q 412 275 412 269 l 412 278 z "},"":{"ha":670,"x_min":61,"x_max":623,"o":"m 61 273 q 89 447 62 377 q 164 559 116 517 q 277 621 212 602 q 418 639 342 639 q 454 638 433 639 q 497 634 475 637 q 540 625 519 631 q 579 609 562 619 q 607 583 596 598 q 617 546 617 568 q 594 501 617 514 q 538 488 571 488 q 490 501 510 488 q 454 530 471 514 q 421 559 437 546 q 381 572 404 572 q 333 561 355 572 q 293 530 311 549 q 263 486 276 511 q 242 433 250 460 q 229 379 233 406 q 225 329 225 352 q 235 234 225 279 q 268 155 245 189 q 327 100 291 120 q 415 79 363 79 q 453 85 434 79 q 489 102 471 92 q 521 126 506 113 q 549 155 536 140 q 563 169 556 163 q 583 174 569 174 q 611 166 599 174 q 623 148 623 157 q 622 141 623 145 q 614 128 621 136 q 537 51 579 83 q 445 0 496 18 l 359 -102 q 403 -127 385 -112 q 431 -157 420 -142 q 446 -185 441 -172 q 450 -207 450 -199 q 428 -279 450 -249 q 370 -328 406 -309 q 291 -355 334 -347 q 203 -364 247 -364 q 158 -359 176 -364 q 139 -332 139 -353 q 145 -318 139 -326 q 165 -305 152 -311 q 181 -301 171 -303 q 203 -298 191 -300 q 238 -291 219 -295 q 274 -278 258 -287 q 301 -256 290 -270 q 313 -220 313 -242 q 300 -193 313 -205 q 271 -173 288 -182 q 236 -160 254 -165 q 205 -154 218 -155 l 316 -16 q 211 14 258 -12 q 130 79 163 39 q 79 169 97 118 q 61 273 61 219 z "},"":{"ha":688,"x_min":47,"x_max":621,"o":"m 47 275 q 70 421 47 354 q 134 536 92 488 q 237 612 176 585 q 375 640 298 640 q 416 636 398 640 q 450 628 435 633 q 478 616 465 623 q 505 601 492 609 q 541 572 521 593 q 578 523 561 551 q 608 464 596 495 q 621 403 621 432 q 617 382 621 393 q 604 371 613 371 l 204 371 q 195 359 197 371 q 193 329 193 347 q 210 223 193 269 q 256 144 227 176 q 323 95 286 112 q 404 79 361 79 q 454 86 430 79 q 501 104 479 93 q 543 130 524 116 q 581 159 563 144 q 586 160 585 160 q 591 157 588 160 q 604 144 597 151 q 613 132 610 137 q 615 128 615 130 q 612 123 615 126 q 557 72 590 97 q 488 26 525 46 q 412 -6 451 6 q 339 -18 374 -18 q 215 7 269 -18 q 123 74 161 33 q 67 168 86 115 q 47 275 47 220 m 446 423 q 463 439 463 423 q 455 489 463 465 q 431 530 446 512 q 393 558 415 548 q 344 568 371 568 q 287 554 311 568 q 245 521 262 541 q 220 480 229 501 q 212 444 212 459 q 215 428 212 433 q 224 423 218 423 l 446 423 m 405 720 q 396 712 401 715 q 386 708 390 708 q 372 713 378 708 l 190 860 q 161 891 174 873 q 148 935 148 909 q 153 959 148 947 q 166 979 157 970 q 185 993 174 988 q 210 998 197 998 q 241 989 226 998 q 272 960 257 980 l 414 762 q 419 754 418 758 q 420 745 420 750 q 419 741 420 743 q 416 734 418 738 l 405 720 z "},"":{"ha":688,"x_min":47,"x_max":621,"o":"m 47 275 q 70 421 47 354 q 134 536 92 488 q 237 612 176 585 q 375 640 298 640 q 416 636 398 640 q 450 628 435 633 q 478 616 465 623 q 505 601 492 609 q 541 572 521 593 q 578 523 561 551 q 608 464 596 495 q 621 403 621 432 q 617 382 621 393 q 604 371 613 371 l 204 371 q 195 359 197 371 q 193 329 193 347 q 210 223 193 269 q 256 144 227 176 q 323 95 286 112 q 404 79 361 79 q 454 86 430 79 q 501 104 479 93 q 543 130 524 116 q 581 159 563 144 q 586 160 585 160 q 591 157 588 160 q 604 144 597 151 q 613 132 610 137 q 615 128 615 130 q 612 123 615 126 q 557 72 590 97 q 488 26 525 46 q 412 -6 451 6 q 339 -18 374 -18 q 215 7 269 -18 q 123 74 161 33 q 67 168 86 115 q 47 275 47 220 m 446 423 q 463 439 463 423 q 455 489 463 465 q 431 530 446 512 q 393 558 415 548 q 344 568 371 568 q 287 554 311 568 q 245 521 262 541 q 220 480 229 501 q 212 444 212 459 q 215 428 212 433 q 224 423 218 423 l 446 423 m 269 735 q 265 741 267 738 q 263 747 263 743 q 265 754 263 751 q 269 760 267 757 l 413 960 q 444 989 428 980 q 475 998 459 998 q 499 993 488 998 q 519 979 511 988 q 532 959 528 970 q 537 935 537 947 q 524 891 537 909 q 494 860 510 873 l 311 712 q 306 708 307 709 q 299 708 304 708 q 290 710 293 708 q 283 715 287 711 l 269 735 z "},"":{"ha":688,"x_min":47,"x_max":621,"o":"m 47 275 q 70 421 47 354 q 134 536 92 488 q 237 612 176 585 q 375 640 298 640 q 416 636 398 640 q 450 628 435 633 q 478 616 465 623 q 505 601 492 609 q 541 572 521 593 q 578 523 561 551 q 608 464 596 495 q 621 403 621 432 q 617 382 621 393 q 604 371 613 371 l 204 371 q 195 359 197 371 q 193 329 193 347 q 210 223 193 269 q 256 144 227 176 q 323 95 286 112 q 404 79 361 79 q 454 86 430 79 q 501 104 479 93 q 543 130 524 116 q 581 159 563 144 q 586 160 585 160 q 591 157 588 160 q 604 144 597 151 q 613 132 610 137 q 615 128 615 130 q 612 123 615 126 q 557 72 590 97 q 488 26 525 46 q 412 -6 451 6 q 339 -18 374 -18 q 215 7 269 -18 q 123 74 161 33 q 67 168 86 115 q 47 275 47 220 m 446 423 q 463 439 463 423 q 455 489 463 465 q 431 530 446 512 q 393 558 415 548 q 344 568 371 568 q 287 554 311 568 q 245 521 262 541 q 220 480 229 501 q 212 444 212 459 q 215 428 212 433 q 224 423 218 423 l 446 423 m 332 870 l 182 714 q 174 709 179 711 q 166 707 169 707 q 158 712 163 707 q 148 722 153 716 q 139 734 142 728 q 136 743 136 740 q 137 752 136 749 q 143 761 139 755 l 309 985 q 319 995 313 990 q 332 999 326 999 q 347 992 340 999 q 360 979 355 986 l 528 760 q 536 743 536 751 q 532 734 536 740 q 524 722 529 728 q 514 712 519 716 q 505 707 509 707 q 498 709 502 707 q 490 714 494 711 l 332 870 z "},"":{"ha":688,"x_min":47,"x_max":621,"o":"m 47 275 q 70 421 47 354 q 134 536 92 488 q 237 612 176 585 q 375 640 298 640 q 416 636 398 640 q 450 628 435 633 q 478 616 465 623 q 505 601 492 609 q 541 572 521 593 q 578 523 561 551 q 608 464 596 495 q 621 403 621 432 q 617 382 621 393 q 604 371 613 371 l 204 371 q 195 359 197 371 q 193 329 193 347 q 210 223 193 269 q 256 144 227 176 q 323 95 286 112 q 404 79 361 79 q 454 86 430 79 q 501 104 479 93 q 543 130 524 116 q 581 159 563 144 q 586 160 585 160 q 591 157 588 160 q 604 144 597 151 q 613 132 610 137 q 615 128 615 130 q 612 123 615 126 q 557 72 590 97 q 488 26 525 46 q 412 -6 451 6 q 339 -18 374 -18 q 215 7 269 -18 q 123 74 161 33 q 67 168 86 115 q 47 275 47 220 m 446 423 q 463 439 463 423 q 455 489 463 465 q 431 530 446 512 q 393 558 415 548 q 344 568 371 568 q 287 554 311 568 q 245 521 262 541 q 220 480 229 501 q 212 444 212 459 q 215 428 212 433 q 224 423 218 423 l 446 423 m 197 741 q 161 748 178 741 q 131 767 144 755 q 112 796 119 779 q 104 832 104 812 q 112 869 104 852 q 131 899 119 886 q 161 919 144 911 q 197 926 178 926 q 234 919 217 926 q 263 899 251 911 q 283 869 276 886 q 290 832 290 852 q 283 796 290 812 q 263 767 276 779 q 234 748 251 755 q 197 741 217 741 m 495 741 q 459 748 475 741 q 429 767 442 755 q 409 796 416 779 q 402 832 402 812 q 409 869 402 852 q 429 899 416 886 q 459 919 442 911 q 495 926 475 926 q 532 919 515 926 q 562 899 549 911 q 581 869 574 886 q 588 832 588 852 q 581 796 588 812 q 562 767 574 779 q 532 748 549 755 q 495 741 515 741 z "},"":{"ha":442,"x_min":1,"x_max":408,"o":"m 47 0 q 42 9 43 1 q 41 21 41 17 q 43 32 41 24 q 47 40 45 39 q 73 46 56 44 q 105 56 89 49 q 134 78 121 63 q 146 123 146 94 l 146 450 q 137 475 146 466 q 115 489 128 484 q 85 497 101 494 q 56 504 70 500 q 49 508 52 505 q 47 517 47 510 q 49 524 47 521 q 57 531 51 528 l 281 637 q 287 640 284 638 q 292 641 290 641 q 303 625 303 641 l 303 123 q 315 78 303 94 q 344 56 328 63 q 376 46 360 49 q 401 40 393 44 q 406 32 404 39 q 408 21 408 24 q 407 9 408 17 q 401 0 406 1 l 47 0 l 47 0 m 258 720 q 249 712 254 715 q 239 708 243 708 q 225 713 231 708 l 43 860 q 14 891 27 873 q 1 935 1 909 q 5 959 1 947 q 19 979 10 970 q 38 993 27 988 q 63 998 50 998 q 94 989 79 998 q 125 960 110 980 l 267 762 q 272 754 271 758 q 273 745 273 750 q 272 741 273 743 q 269 734 271 738 l 258 720 z "},"":{"ha":442,"x_min":41,"x_max":408,"o":"m 47 0 q 42 9 43 1 q 41 21 41 17 q 43 32 41 24 q 47 40 45 39 q 73 46 56 44 q 105 56 89 49 q 134 78 121 63 q 146 123 146 94 l 146 450 q 137 475 146 466 q 115 489 128 484 q 85 497 101 494 q 56 504 70 500 q 49 508 52 505 q 47 517 47 510 q 49 524 47 521 q 57 531 51 528 l 281 637 q 287 640 284 638 q 292 641 290 641 q 303 625 303 641 l 303 123 q 315 78 303 94 q 344 56 328 63 q 376 46 360 49 q 401 40 393 44 q 406 32 404 39 q 408 21 408 24 q 407 9 408 17 q 401 0 406 1 l 47 0 l 47 0 m 93 735 q 89 741 91 738 q 87 747 87 743 q 90 754 87 751 q 93 760 92 757 l 237 960 q 268 989 252 980 q 299 998 283 998 q 323 993 312 998 q 343 979 335 988 q 357 959 352 970 q 361 935 361 947 q 348 891 361 909 q 319 860 334 873 l 136 712 q 130 708 132 709 q 123 708 128 708 q 114 710 117 708 q 108 715 111 711 l 93 735 z "},"":{"ha":442,"x_min":20,"x_max":420,"o":"m 47 0 q 42 9 43 1 q 41 21 41 17 q 43 32 41 24 q 47 40 45 39 q 73 46 56 44 q 105 56 89 49 q 134 78 121 63 q 146 123 146 94 l 146 450 q 137 475 146 466 q 115 489 128 484 q 85 497 101 494 q 56 504 70 500 q 49 508 52 505 q 47 517 47 510 q 49 524 47 521 q 57 531 51 528 l 281 637 q 287 640 284 638 q 292 641 290 641 q 303 625 303 641 l 303 123 q 315 78 303 94 q 344 56 328 63 q 376 46 360 49 q 401 40 393 44 q 406 32 404 39 q 408 21 408 24 q 407 9 408 17 q 401 0 406 1 l 47 0 l 47 0 m 216 870 l 66 714 q 58 709 63 711 q 50 707 53 707 q 42 712 47 707 q 32 722 37 716 q 23 734 26 728 q 20 743 20 740 q 21 752 20 749 q 27 761 23 755 l 193 985 q 203 995 197 990 q 216 999 210 999 q 231 992 224 999 q 244 979 239 986 l 412 760 q 420 743 420 751 q 416 734 420 740 q 408 722 413 728 q 398 712 403 716 q 389 707 393 707 q 382 709 386 707 q 374 714 378 711 l 216 870 z "},"":{"ha":442,"x_min":-21,"x_max":463,"o":"m 47 0 q 42 9 43 1 q 41 21 41 17 q 43 32 41 24 q 47 40 45 39 q 73 46 56 44 q 105 56 89 49 q 134 78 121 63 q 146 123 146 94 l 146 450 q 137 475 146 466 q 115 489 128 484 q 85 497 101 494 q 56 504 70 500 q 49 508 52 505 q 47 517 47 510 q 49 524 47 521 q 57 531 51 528 l 281 637 q 287 640 284 638 q 292 641 290 641 q 303 625 303 641 l 303 123 q 315 78 303 94 q 344 56 328 63 q 376 46 360 49 q 401 40 393 44 q 406 32 404 39 q 408 21 408 24 q 407 9 408 17 q 401 0 406 1 l 47 0 l 47 0 m 72 741 q 35 748 52 741 q 6 767 18 755 q -14 796 -7 779 q -21 832 -21 812 q -14 869 -21 852 q 6 899 -7 886 q 35 919 18 911 q 72 926 52 926 q 109 919 92 926 q 138 899 125 911 q 158 869 151 886 q 165 832 165 852 q 158 796 165 812 q 138 767 151 779 q 109 748 125 755 q 72 741 92 741 m 370 741 q 333 748 350 741 q 304 767 317 755 q 284 796 291 779 q 277 832 277 812 q 284 869 277 852 q 304 899 291 886 q 333 919 317 911 q 370 926 350 926 q 407 919 390 926 q 436 899 424 911 q 455 869 448 886 q 463 832 463 852 q 455 796 463 812 q 436 767 448 779 q 407 748 424 755 q 370 741 390 741 z "},"":{"ha":800,"x_min":51,"x_max":742,"o":"m 359 914 q 306 976 335 944 q 250 1035 277 1008 q 199 1079 222 1061 q 164 1096 176 1096 l 164 1116 l 293 1116 q 367 1058 328 1093 q 445 981 406 1024 l 605 1107 l 666 1025 l 510 904 q 597 777 555 845 q 672 633 640 708 q 723 478 704 559 q 742 314 742 397 q 716 183 742 244 q 644 78 690 123 q 534 7 597 33 q 395 -18 470 -18 q 257 8 320 -18 q 148 80 194 35 q 77 186 102 125 q 51 317 51 248 q 63 399 51 359 q 98 475 76 439 q 152 541 121 511 q 221 593 183 571 q 302 627 259 615 q 391 640 345 640 q 457 632 418 640 q 536 607 496 625 q 526 654 535 628 q 502 709 517 680 q 466 770 486 739 q 422 834 445 802 q 384 805 404 820 q 345 774 364 789 q 306 744 325 758 q 272 718 288 730 l 211 798 l 359 914 m 221 358 q 233 249 221 305 q 269 145 244 192 q 331 67 293 98 q 421 37 368 37 q 488 58 460 37 q 534 113 516 79 q 560 193 551 148 q 568 287 568 238 q 563 343 568 312 q 545 408 557 375 q 516 471 533 440 q 476 526 499 502 q 426 564 454 549 q 366 578 398 578 q 302 558 329 578 q 257 506 275 538 q 230 435 239 474 q 221 358 221 395 z "},"":{"ha":892,"x_min":35,"x_max":879,"o":"m 276 658 q 282 661 279 659 q 286 662 285 662 q 298 646 298 662 l 298 540 q 303 533 300 533 q 309 533 307 533 q 314 536 311 534 q 388 573 357 558 q 440 599 418 589 q 479 615 462 610 q 514 624 496 621 q 553 628 532 627 q 604 629 574 629 q 662 614 637 629 q 703 577 686 600 q 730 523 720 553 q 746 461 741 493 q 753 399 751 430 q 755 343 755 368 q 754 299 755 319 q 752 255 753 279 q 750 200 751 231 q 749 126 749 170 q 757 92 749 106 q 776 70 764 79 q 802 57 788 61 q 830 50 817 52 q 855 45 844 47 q 872 41 866 43 q 877 32 875 39 q 879 21 879 24 q 878 9 879 17 q 872 0 876 1 l 494 0 q 488 9 490 1 q 487 21 487 17 q 489 32 487 24 q 494 41 491 39 q 517 47 503 45 q 547 58 532 50 q 575 82 562 66 q 591 132 587 99 q 594 151 593 142 q 595 169 595 159 q 596 189 596 178 q 597 214 597 199 q 596 279 597 244 q 595 356 595 313 q 592 422 595 389 q 577 480 589 454 q 543 522 566 506 q 479 538 519 538 q 453 537 465 538 q 426 529 442 535 q 385 511 410 523 q 315 477 359 498 q 304 470 310 474 q 298 458 298 465 l 298 126 q 310 80 298 96 q 338 57 322 64 q 371 47 355 50 q 396 41 387 45 q 401 32 399 39 q 403 21 403 24 q 401 9 403 17 q 396 0 400 1 l 42 0 q 37 9 38 1 q 35 21 35 17 q 37 32 35 24 q 42 41 39 39 q 67 47 51 45 q 100 57 83 50 q 128 80 116 64 q 140 126 140 96 l 140 471 q 132 496 140 487 q 109 510 123 505 q 80 518 96 515 q 50 525 64 521 q 44 529 46 526 q 41 538 41 531 q 43 545 41 542 q 52 552 45 549 l 276 658 m 627 941 q 632 938 630 941 q 634 930 633 935 q 636 921 635 926 q 636 913 636 916 q 629 864 636 891 q 607 812 621 836 q 572 772 593 789 q 526 756 552 756 q 473 767 498 756 q 422 791 447 778 q 372 815 397 804 q 321 827 347 827 q 301 821 311 827 q 281 804 290 814 q 267 779 273 793 q 261 749 261 765 q 258 742 261 743 q 250 741 254 741 l 236 741 q 231 751 231 741 q 238 815 231 783 q 259 874 245 848 q 292 917 273 901 q 336 934 312 934 q 392 923 365 934 q 446 898 419 911 q 499 874 473 885 q 553 863 526 863 q 574 869 565 863 q 590 887 584 876 q 600 909 597 897 q 603 932 603 922 q 606 939 603 936 q 614 941 610 941 l 627 941 z "},"":{"ha":812,"x_min":51,"x_max":761,"o":"m 51 317 q 79 439 51 380 q 155 542 107 497 q 265 613 202 587 q 398 640 328 640 q 537 614 471 640 q 653 546 603 589 q 732 443 703 502 q 761 314 761 383 q 734 183 761 243 q 660 77 707 122 q 547 7 612 33 q 404 -18 481 -18 q 263 8 328 -18 q 151 79 198 34 q 77 185 104 124 q 51 317 51 246 m 224 359 q 230 284 224 323 q 246 208 235 245 q 274 138 257 171 q 313 81 290 106 q 366 42 336 56 q 431 28 395 28 q 500 48 471 28 q 548 102 529 69 q 575 177 566 136 q 584 260 584 218 q 578 330 584 293 q 559 403 572 367 q 530 473 547 439 q 489 531 512 506 q 436 572 465 557 q 374 587 408 587 q 308 566 336 587 q 261 512 279 545 q 234 439 243 479 q 224 359 224 399 m 420 720 q 411 712 416 715 q 401 708 405 708 q 387 713 393 708 l 205 860 q 176 891 189 873 q 163 935 163 909 q 168 959 163 947 q 181 979 172 970 q 200 993 189 988 q 225 998 212 998 q 256 989 241 998 q 287 960 272 980 l 429 762 q 434 754 433 758 q 435 745 435 750 q 434 741 435 743 q 431 734 433 738 l 420 720 z "},"":{"ha":812,"x_min":51,"x_max":761,"o":"m 51 317 q 79 439 51 380 q 155 542 107 497 q 265 613 202 587 q 398 640 328 640 q 537 614 471 640 q 653 546 603 589 q 732 443 703 502 q 761 314 761 383 q 734 183 761 243 q 660 77 707 122 q 547 7 612 33 q 404 -18 481 -18 q 263 8 328 -18 q 151 79 198 34 q 77 185 104 124 q 51 317 51 246 m 224 359 q 230 284 224 323 q 246 208 235 245 q 274 138 257 171 q 313 81 290 106 q 366 42 336 56 q 431 28 395 28 q 500 48 471 28 q 548 102 529 69 q 575 177 566 136 q 584 260 584 218 q 578 330 584 293 q 559 403 572 367 q 530 473 547 439 q 489 531 512 506 q 436 572 465 557 q 374 587 408 587 q 308 566 336 587 q 261 512 279 545 q 234 439 243 479 q 224 359 224 399 m 336 735 q 333 741 334 738 q 331 747 331 743 q 333 754 331 751 q 336 760 335 757 l 481 960 q 511 989 496 980 q 543 998 527 998 q 567 993 555 998 q 587 979 578 988 q 600 959 595 970 q 605 935 605 947 q 591 891 605 909 q 562 860 578 873 l 379 712 q 373 708 375 709 q 367 708 372 708 q 358 710 361 708 q 351 715 355 711 l 336 735 z "},"":{"ha":812,"x_min":51,"x_max":761,"o":"m 51 317 q 79 439 51 380 q 155 542 107 497 q 265 613 202 587 q 398 640 328 640 q 537 614 471 640 q 653 546 603 589 q 732 443 703 502 q 761 314 761 383 q 734 183 761 243 q 660 77 707 122 q 547 7 612 33 q 404 -18 481 -18 q 263 8 328 -18 q 151 79 198 34 q 77 185 104 124 q 51 317 51 246 m 224 359 q 230 284 224 323 q 246 208 235 245 q 274 138 257 171 q 313 81 290 106 q 366 42 336 56 q 431 28 395 28 q 500 48 471 28 q 548 102 529 69 q 575 177 566 136 q 584 260 584 218 q 578 330 584 293 q 559 403 572 367 q 530 473 547 439 q 489 531 512 506 q 436 572 465 557 q 374 587 408 587 q 308 566 336 587 q 261 512 279 545 q 234 439 243 479 q 224 359 224 399 m 433 870 l 284 714 q 276 709 281 711 q 268 707 271 707 q 259 712 264 707 q 249 722 254 716 q 241 734 244 728 q 237 743 237 740 q 239 752 237 749 q 245 761 241 755 l 411 985 q 421 995 414 990 q 433 999 427 999 q 449 992 441 999 q 462 979 456 986 l 630 760 q 637 743 637 751 q 634 734 637 740 q 626 722 631 728 q 615 712 621 716 q 607 707 610 707 q 600 709 604 707 q 592 714 595 711 l 433 870 z "},"":{"ha":812,"x_min":51,"x_max":761,"o":"m 51 317 q 79 439 51 380 q 155 542 107 497 q 265 613 202 587 q 398 640 328 640 q 537 614 471 640 q 653 546 603 589 q 732 443 703 502 q 761 314 761 383 q 734 183 761 243 q 660 77 707 122 q 547 7 612 33 q 404 -18 481 -18 q 263 8 328 -18 q 151 79 198 34 q 77 185 104 124 q 51 317 51 246 m 224 359 q 230 284 224 323 q 246 208 235 245 q 274 138 257 171 q 313 81 290 106 q 366 42 336 56 q 431 28 395 28 q 500 48 471 28 q 548 102 529 69 q 575 177 566 136 q 584 260 584 218 q 578 330 584 293 q 559 403 572 367 q 530 473 547 439 q 489 531 512 506 q 436 572 465 557 q 374 587 408 587 q 308 566 336 587 q 261 512 279 545 q 234 439 243 479 q 224 359 224 399 m 602 941 q 607 938 606 941 q 610 930 609 935 q 611 921 611 926 q 612 913 612 916 q 604 864 612 891 q 583 812 597 836 q 548 772 568 789 q 502 756 528 756 q 448 767 474 756 q 398 791 422 778 q 348 815 373 804 q 296 827 323 827 q 276 821 287 827 q 257 804 266 814 q 242 779 248 793 q 237 749 237 765 q 233 742 237 743 q 226 741 230 741 l 212 741 q 206 751 206 741 q 214 815 206 783 q 235 874 221 848 q 268 917 248 901 q 312 934 288 934 q 368 923 340 934 q 421 898 395 911 q 475 874 448 885 q 528 863 502 863 q 550 869 541 863 q 566 887 559 876 q 575 909 572 897 q 578 932 578 922 q 582 939 578 936 q 589 941 585 941 l 602 941 z "},"":{"ha":812,"x_min":51,"x_max":761,"o":"m 51 317 q 79 439 51 380 q 155 542 107 497 q 265 613 202 587 q 398 640 328 640 q 537 614 471 640 q 653 546 603 589 q 732 443 703 502 q 761 314 761 383 q 734 183 761 243 q 660 77 707 122 q 547 7 612 33 q 404 -18 481 -18 q 263 8 328 -18 q 151 79 198 34 q 77 185 104 124 q 51 317 51 246 m 224 359 q 230 284 224 323 q 246 208 235 245 q 274 138 257 171 q 313 81 290 106 q 366 42 336 56 q 431 28 395 28 q 500 48 471 28 q 548 102 529 69 q 575 177 566 136 q 584 260 584 218 q 578 330 584 293 q 559 403 572 367 q 530 473 547 439 q 489 531 512 506 q 436 572 465 557 q 374 587 408 587 q 308 566 336 587 q 261 512 279 545 q 234 439 243 479 q 224 359 224 399 m 258 741 q 221 748 238 741 q 192 767 204 755 q 172 796 179 779 q 165 832 165 812 q 172 869 165 852 q 192 899 179 886 q 221 919 204 911 q 258 926 238 926 q 294 919 277 926 q 324 899 311 911 q 343 869 336 886 q 351 832 351 852 q 343 796 351 812 q 324 767 336 779 q 294 748 311 755 q 258 741 277 741 m 555 741 q 519 748 536 741 q 490 767 503 755 q 470 796 477 779 q 463 832 463 812 q 470 869 463 852 q 490 899 477 886 q 519 919 503 911 q 555 926 536 926 q 593 919 576 926 q 622 899 610 911 q 641 869 634 886 q 648 832 648 852 q 641 796 648 812 q 622 767 634 779 q 593 748 610 755 q 555 741 576 741 z "}}}
